<?xml version="1.0" encoding="UTF-8" standalone="no"?>
<svg
   version="1.0"
   width="4084.000000pt"
   height="2680.000000pt"
   viewBox="0 0 4084.000000 2680.000000"
   preserveAspectRatio="xMidYMid meet"
   id="svg228"
   sodipodi:docname="LCD.svg"
   inkscape:version="1.1 (c68e22c387, 2021-05-23)"
   xmlns:inkscape="http://www.inkscape.org/namespaces/inkscape"
   xmlns:sodipodi="http://sodipodi.sourceforge.net/DTD/sodipodi-0.dtd"
   xmlns="http://www.w3.org/2000/svg"
   xmlns:svg="http://www.w3.org/2000/svg">
  <defs
     id="defs232" />
  <sodipodi:namedview
     id="namedview230"
     pagecolor="#ffffff"
     bordercolor="#666666"
     borderopacity="1.0"
     inkscape:pageshadow="2"
     inkscape:pageopacity="0.0"
     inkscape:pagecheckerboard="true"
     inkscape:document-units="pt"
     showgrid="false"
     borderlayer="true"
     inkscape:showpageshadow="false"
     inkscape:zoom="0.21212924"
     inkscape:cx="2731.8252"
     inkscape:cy="1779.5755"
     inkscape:window-width="2048"
     inkscape:window-height="1009"
     inkscape:window-x="-4"
     inkscape:window-y="-4"
     inkscape:window-maximized="1"
     inkscape:current-layer="g226" />
  <metadata
     id="metadata2">
Created by potrace 1.16, written by Peter Selinger 2001-2019
</metadata>
  <g
     inkscape:groupmode="layer"
     id="layer1"
     inkscape:label="white">
    <rect
       height="2840"
       id="rect1356"
       style="fill:#ffffff;fill-opacity:1;stroke-width:0.297802;stroke-miterlimit:4;stroke-dasharray:none"
       width="4244"
       x="-80"
       y="-80" />
  </g>
  <g
     transform="matrix(0.1,0,0,-0.1,0,2680)"
     fill="#000000"
     stroke="none"
     id="g226"
     inkscape:groupmode="layer"
     inkscape:label="segs">
    <g
       id="g1395"
       style="fill:#000000;fill-opacity:0.847059">
      <desc
         id="desc1489">h1os1</desc>
      <title
         id="title1487">0.0.0</title>
      <path
         d="m 24991,12268 c -17,-13 -72,-52 -122,-88 -51,-36 -119,-87 -152,-115 -32,-27 -85,-68 -117,-90 -32,-22 -78,-59 -102,-81 -59,-55 -83,-62 -112,-35 -22,21 -42,60 -152,303 -27,60 -52,108 -55,108 -14,0 -106,-110 -139,-166 -91,-156 -115,-165 -216,-81 -151,126 -206,162 -231,153 -14,-6 -15,-24 -10,-170 9,-219 22,-205 -191,-213 -89,-3 -165,-10 -169,-16 -3,-5 80,-93 186,-194 l 191,-185 v -143 c 0,-83 4,-146 10,-150 88.349,27.57 159.366,56.874 234,93 30,19 44,22 60,14 12,-5 71,-69 131,-141 323,-386 328,-392 368,-374 21,10 25,24 40,144 9,74 24,204 33,289 19,194 24,214 52,218 12,2 55,-10 95,-27 39,-16 105,-44 146,-61 80,-33 101,-33 101,1 0,21 -90,182 -137,245 -13,17 -23,42 -23,55 0,14 22,67 48,119 247,482 282,554 282,581 0,35 -7,36 -49,7 z"
         id="path134"
         sodipodi:nodetypes="cccscccsccccccccsccccccccccscscsc"
         style="fill:#000000;fill-opacity:0.847059" />
    </g>
    <g
       id="g1322"
       style="fill:#000000;fill-opacity:0.847059">
      <desc
         id="desc1485">h2o44</desc>
      <title
         id="title1483">4.3.1</title>
      <path
         d="m 9585,24980 c -282.5844,-73.199 -471.856,-264.691 -612,-475 -31,-45 -198,-222 -474,-500 -461,-465 -587,-604 -670,-741 -480.664,-732.689 -755.6006,-1650.606 -891,-2389 -51,-291 19,-565 186,-730 189.9069,-181.775 551.1691,-209.738 764,-73 582.4482,405.261 1048.7044,874.846 1408,1363 158,213 191,259 254,353 43,64 73,98 87,100 175.3585,-47.127 325.9041,-179.742 467,-270 107.59,-70.075 101.938,-43.926 168,43 82.255,120.247 68.65,197.264 -46,239 -105,38 -187,81 -308,163 -121,81 -151,113 -151,157 100.9735,255.424 252.309,503.851 330,700 170.639,495.675 405.304,1136.082 308,1617 -31,117 -74,190 -172,288 -214.172,175.642 -402.6879,220.408 -648,155 z m -491,-1555 c -5,-14 -55,-85 -112,-160 -84,-110 -107,-135 -128,-135 -44,0 -171,74 -199,116 -23,36 -6,86 65,192 65,97 129,162 160,162 70.2856,-21.206 236.7744,-111.424 214,-175 z m 577,-15 c 29,-16 47,-59 77,-183 39.1147,-236.231 48.2216,-501.13 -28,-687 -71,-172 -87,-204 -106,-217 -26,-17 -44,-10 -111,39 -64,47 -66,64 -19,145 109.5357,244.767 157.7021,507.599 89,772 -25,89 -23,103 17,123 40,21 54,22 81,8 z m -329,-270 c 72.9164,-73.65 -56.8288,-200.683 -119,-198 -73,6 -79,90 -12,171 52,64 87,71 131,27 z m -824,-201 c 104,-63 119,-84 98,-133 -37.9551,-75.777 -87.9161,-139.496 -123,-218 -33,-78 -49,-98 -81,-98 -29,0 -144,53 -191,88 -30,23 -33,28 -27,63 9,54 50,139 115,234 56,84 86,114 111,115 9,0 53,-23 98,-51 z m 494,-179 c 57,-44 60,-158 8,-265 -69,-142 -192,-229 -293,-206 -48,11 -73,34 -87,77 -10,29 -8,41 9,77 28,56 153,224 199,266 80,73 121,86 164,51 z m -757,-610 c -15.4348,-99.334 -64.2498,-170.988 -99,-273 -13,-35 -24,-49 -43,-53 -49,-13 -244,58 -257,93 -7,17 4,62 32,128 20,49 98,183 121,209 58.8958,36.208 229.3196,-57.79 246,-104 z m 1106,-191 c 11,-5 24,-21 29,-35 12,-31 -6,-70 -99,-208 -183.7359,-259.792 -505.44,-409.518 -766,-451 -98,-16 -180,-13 -217,6 -27,15 -68,81 -68,110 0,40 22,51 125,65 335.5572,55.511 602.4539,166.506 805,396 115,133 137,146 191,117 z m -805,-186 c -34,-33 -51,-43 -77,-43 -112.5852,25.896 -86.1969,129.487 -37,179 38,39 45,42 87,39 112.5523,-16.512 71.8838,-128.537 27,-175 z"
         id="path4"
         sodipodi:nodetypes="cccccccccccccccccccccsccccccccccccccccccccsccccccccccccccccccccccccscccccccc"
         style="fill:#000000;fill-opacity:0.847059" />
    </g>
    <g
       id="g1086"
       style="fill:#000000;fill-opacity:0.847059">
      <desc
         id="desc1481">h1o24</desc>
      <title
         id="title1479">4.1.0</title>
      <path
         d="m 15405,24417 c -82,-30 -101,-42 -169,-106 -93,-89 -136,-193 -136,-331 0,-41 -9,-199 -21,-350 -15,-203 -25,-279 -35,-291 -10,-11 -36,-18 -74,-21 -92,-7 -90,-1 -90,-219 v -189 h 85 85 v 93 c 0,78 3,97 18,110 17,15 63,17 459,17 413,0 441,-1 456,-18 13,-15 17,-39 17,-110 v -92 h 90 90 v 180 c 0,214 -2,220 -95,220 -42,0 -60,5 -75,20 -19,19 -20,33 -20,548 0,500 -1,530 -18,545 -16,15 -49,17 -263,16 -224,0 -249,-2 -304,-22 z m 386,-204 c 20,-23 26,-836 6,-873 l -13,-25 -249,-2 c -143,-2 -256,1 -265,6 -17,12 -16,50 5,326 33,415 39,446 108,513 61,60 99,70 258,71 115,1 139,-2 150,-16 z"
         id="path6"
         style="fill:#000000;fill-opacity:0.847059" />
      <path
         d="m 16577,24412 c -16,-17 -17,-84 -17,-760 v -742 h 90 90 v 638 c 0,606 1,640 18,655 16,15 49,17 249,17 210,0 231,-2 246,-18 15,-17 17,-77 17,-655 v -637 h 90 90 v 743 c 0,708 -1,745 -18,760 -17,15 -61,17 -429,17 -384,0 -411,-1 -426,-18 z"
         id="path8"
         style="fill:#000000;fill-opacity:0.847059" />
    </g>
    <g
       id="g1325"
       style="fill:#000000;fill-opacity:0.847059">
      <desc
         id="desc1477">h1o25</desc>
      <title
         id="title1475">5.1.0</title>
      <path
         d="m 21848,24399 c -21,-10 -45,-30 -54,-43 -14,-23 -14,-28 7,-68 36,-71 219,-362 237,-375 12,-10 111,-13 417,-13 h 401 l 26,28 c 14,15 49,72 77,127 28,55 66,129 86,165 19,36 35,70 35,76 0,14 -57,66 -111,99 l -39,25 h -522 c -501,-1 -525,-2 -560,-21 z"
         id="path10"
         style="fill:#000000;fill-opacity:0.847059" />
    </g>
    <g
       id="g1328"
       style="fill:#000000;fill-opacity:0.847059">
      <desc
         id="desc1473">h1o26</desc>
      <title
         id="title1471">6.1.0</title>
      <path
         d="m 26331,24374 c -36,-31 -41,-41 -36,-62 7,-29 191,-336 238,-398 l 18,-24 h 389 389 l 25,23 c 32,29 216,365 216,395 0,6 -27,31 -61,56 l -61,46 h -537 -537 z"
         id="path12"
         style="fill:#000000;fill-opacity:0.847059" />
    </g>
    <g
       id="g1331"
       style="fill:#000000;fill-opacity:0.847059">
      <desc
         id="desc1469">h1o27</desc>
      <title
         id="title1467">7.1.0</title>
      <path
         d="m 30075,24369 c -43,-38 -44,-61 -7,-120 16,-24 63,-98 105,-164 41,-66 87,-137 101,-157 l 26,-38 h 399 c 263,0 408,4 424,11 12,6 29,20 37,32 37,60 122,211 155,277 l 37,74 -38,34 c -22,19 -56,45 -76,58 l -38,24 h -544 -545 z"
         id="path14"
         style="fill:#000000;fill-opacity:0.847059" />
    </g>
    <g
       id="g1349"
       style="fill:#000000;fill-opacity:0.847059">
      <desc
         id="desc1465">h2o25</desc>
      <title
         id="title1463">5.1.1</title>
      <path
         d="m 21597,24172 c -30,-31 -30,-35 -67,-602 -13.481,-195.583 -29.312,-403.424 -37,-589 -5,-149 -4,-181 10,-206 23,-45 149,-175 169,-175 19,0 125,87 220,178 67,65 66,63 118,392 17,107 38,239 46,293 9,54 14,107 11,117 -5,18 -104,175 -266,419 -144,217 -154,226 -204,173 z"
         id="path18"
         sodipodi:nodetypes="ccccscccccc"
         style="fill:#000000;fill-opacity:0.847059" />
    </g>
    <g
       id="g1343"
       style="fill:#000000;fill-opacity:0.847059">
      <desc
         id="desc1461">h2o26</desc>
      <title
         id="title1459">6.1.1</title>
      <path
         d="m 26102,24165 c -26,-22 -30,-31 -35,-107 -4,-46 -15,-204 -27,-353 -11,-148 -29,-407 -39,-574 -22,-346 -24,-331 54,-429 53,-65 100,-102 131,-102 22,0 228,169 258,211 21,31 31,88 62,344 14,121 32,269 39,329 l 14,108 -26,42 c -144,229 -344,526 -366,541 -28,20 -30,19 -65,-10 z"
         id="path20"
         style="fill:#000000;fill-opacity:0.847059" />
    </g>
    <g
       id="g1337"
       style="fill:#000000;fill-opacity:0.847059">
      <desc
         id="desc1457">h2o27</desc>
      <title
         id="title1455">7.1.1</title>
      <path
         d="m 29858,24179 c -10,-5 -22,-18 -28,-28 -5,-11 -16,-128 -25,-262 -16,-259 -38,-600 -56,-864 -15,-219 -12,-239 44,-318 56,-78 100,-117 133,-117 26,0 203,153 245,212 18,25 33,94 81,382 32,193 58,363 58,378 0,27 -63,132 -247,410 -38,57 -81,124 -96,150 -37,64 -69,81 -109,57 z"
         id="path22"
         style="fill:#000000;fill-opacity:0.847059" />
    </g>
    <g
       id="g1340"
       style="fill:#000000;fill-opacity:0.847059">
      <desc
         id="desc1453">h1o16</desc>
      <title
         id="title1451">6.0.0</title>
      <path
         d="m 27663,24133 c -16,-27 -45,-75 -65,-108 -19,-33 -82,-139 -139,-235 l -104,-175 -11,-130 c -7,-71 -24,-260 -39,-420 -15,-159 -24,-307 -21,-328 10,-64 162,-257 201,-257 28,0 103,60 233,187 70,68 93,97 101,128 9,37 47,357 91,767 19,174 19,177 0,245 -11,37 -34,100 -51,138 -41,89 -136,235 -154,235 -7,0 -26,-21 -42,-47 z"
         id="path24"
         style="fill:#000000;fill-opacity:0.847059" />
    </g>
    <g
       id="g1346"
       style="fill:#000000;fill-opacity:0.847059">
      <desc
         id="desc1449">h1o15</desc>
      <title
         id="title1447">5.0.0</title>
      <path
         d="m 23185,24148 c -24,-34 -225,-361 -279,-454 l -47,-80 -14,-205 c -8,-112 -19,-280 -25,-374 -6,-93 -13,-197 -16,-230 -5,-58 -3,-64 35,-121 53,-79 117,-151 141,-159 13,-4 34,4 62,24 76,52 271,215 290,241 23,33 33,110 63,497 32,414 32,468 0,564 -43,126 -154,319 -185,319 -5,0 -16,-10 -25,-22 z"
         id="path26"
         style="fill:#000000;fill-opacity:0.847059" />
    </g>
    <g
       id="g1334"
       style="fill:#000000;fill-opacity:0.847059">
      <desc
         id="desc1445">h1o17</desc>
      <title
         id="title1443">7.0.0</title>
      <path
         d="m 31453,24157 c -21,-26 -305,-529 -328,-579 -25,-55 -25,-64 -55,-563 -18,-302 -18,-305 12,-348 57,-83 139,-167 163,-167 28,0 90,45 211,156 107,98 106,94 129,324 19,187 62,560 75,652 6,37 10,85 10,107 0,75 -58,216 -145,350 -51,79 -59,86 -72,68 z"
         id="path28"
         style="fill:#000000;fill-opacity:0.847059" />
    </g>
    <g
       id="g1358"
       style="fill:#000000;fill-opacity:0.847059">
      <desc
         id="desc1441">h1o35</desc>
      <title
         id="title1439">5.2.0</title>
      <path
         d="m 22055,22610 c -49,-20 -235,-257 -235,-299 0,-29 31,-79 97,-158 l 45,-53 h 327 327 l 65,68 c 105,108 139,151 139,173 0,23 -165,199 -234,250 l -39,29 -236,-1 c -130,0 -245,-4 -256,-9 z"
         id="path32"
         style="fill:#000000;fill-opacity:0.847059" />
    </g>
    <g
       id="g1355"
       style="fill:#000000;fill-opacity:0.847059">
      <desc
         id="desc1437">h1o36</desc>
      <title
         id="title1435">6.2.0</title>
      <path
         d="m 26519,22578 c -56,-60 -179,-230 -185,-255 -4,-13 -2,-34 4,-47 12,-27 109,-157 130,-173 12,-10 89,-13 306,-13 347,0 330,-5 466,136 81,84 91,98 86,122 -8,34 -196,216 -251,242 -36,18 -64,20 -283,20 h -243 z"
         id="path34"
         style="fill:#000000;fill-opacity:0.847059" />
    </g>
    <g
       id="g1352"
       style="fill:#000000;fill-opacity:0.847059">
      <desc
         id="desc1433">h1o37</desc>
      <title
         id="title1431">7.2.0</title>
      <path
         d="m 30288,22598 c -21,-17 -141,-168 -185,-234 -33,-50 -34,-53 -20,-86 8,-19 42,-67 76,-106 l 62,-72 h 315 314 l 86,82 c 92,88 118,126 107,155 -12,33 -96,157 -137,202 -23,24 -55,50 -73,57 -45,19 -521,20 -545,2 z"
         id="path36"
         style="fill:#000000;fill-opacity:0.847059" />
    </g>
    <g
       id="g1315"
       style="fill:#000000;fill-opacity:0.847059">
      <desc
         id="desc1429">h1o34</desc>
      <title
         id="title1427">4.2.0</title>
      <path
         d="m 11001,22437 c -14,-6 -34,-27 -45,-46 -34,-59 -125,-269 -142,-329 -86.424,-298.182 -213.238,-610.631 -385,-868 -88,-131 -214,-292 -316,-406 -29,-32 -53,-66 -53,-76 0,-18 169,-182 188,-182 14,0 218,224 296,323 343.751,454.946 512.77,933.878 551,1474 7,95 6,102 -13,112 -27,14 -51,14 -81,-2 z"
         id="path38"
         sodipodi:nodetypes="cccccsscccc"
         style="fill:#000000;fill-opacity:0.847059" />
      <path
         d="m 11347,22373 c -4,-3 -7,-47 -7,-97 12.63,-741.728 -356.432,-1436.434 -818,-1848 -46,-43 -82,-85 -82,-95 0,-20 130,-143 150,-143 596.638,416.001 1006.501,1437.169 980,2014 v 133 c -45.056,4.849 -200.518,57.316 -223,36 z"
         id="path40"
         sodipodi:nodetypes="cccscccc"
         style="fill:#000000;fill-opacity:0.847059" />
    </g>
    <g
       id="g1078"
       style="fill:#000000;fill-opacity:0.847059">
      <desc
         id="desc1425">h1o14</desc>
      <title
         id="title1423">4.0.0</title>
      <path
         d="m 19901,24315 c -50.3,-92.818 -147.861,-208.7 -185,-300 -45.889,-473.089 -69.956,-862.567 -116,-1351 v -71 l 92,-127 c 77,-106 96,-126 118,-126 20,0 58,30 158,126 73,69 137,135 142,145 50.859,357.382 75.768,740.592 105,1024 37,357 35,394 -25,490 -62,100 -196,225 -242,225 -9,0 -30,-16 -47,-35 z"
         id="path16"
         sodipodi:nodetypes="cccccsccccsc"
         style="fill:#000000;fill-opacity:0.847059" />
      <path
         d="m 19758,22262 c -71.133,-58.738 -130.833,-104.081 -205,-161 l -6,-83 c -39.921,-428.282 -59.649,-864.098 -104,-1289 -5,-63 -4,-68 47,-175 59,-125 82,-154 121,-154 35,0 133,66 193,130 74,79 146,198 146,242 41.969,413.081 89.286,756.766 113,1187 -72.43,103.883 -145.208,209.557 -223,311 -27,27 -43,25 -82,-8 z"
         id="path42"
         sodipodi:nodetypes="cccccsccccc"
         style="fill:#000000;fill-opacity:0.847059" />
    </g>
    <g
       id="g1367"
       style="fill:#000000;fill-opacity:0.847059">
      <desc
         id="desc1421">h2o36</desc>
      <title
         id="title1419">6.2.1</title>
      <path
         d="m 26079,22257 c -20,-17 -80,-70 -134,-117 -136,-118 -142,-128 -155,-280 -5,-69 -14,-165 -19,-215 -5,-49 -14,-148 -20,-220 -7,-71 -16,-171 -21,-222 -15,-138 -12,-222 10,-307 24,-94 108,-270 132,-274 19,-4 348,304 380,356 15,25 23,66 33,175 8,78 23,232 34,342 11,110 25,250 31,310 6,61 13,121 16,135 4,21 -16,53 -102,165 -58,77 -110,150 -115,163 -12,30 -27,27 -70,-11 z"
         id="path44"
         style="fill:#000000;fill-opacity:0.847059" />
    </g>
    <g
       id="g1361"
       style="fill:#000000;fill-opacity:0.847059">
      <desc
         id="desc1417">h2o35</desc>
      <title
         id="title1415">5.2.1</title>
      <path
         d="m 21482,22137 -132,-132 -10,-80 c -6,-44 -15,-114 -21,-155 -5,-41 -14,-118 -19,-170 -6,-52 -21,-203 -35,-335 -33,-315 -32,-344 5,-447 34,-93 79,-180 97,-185 13,-5 361,301 392,346 18,25 24,53 31,148 5,65 16,183 24,263 17,160 35,369 43,500 5,85 5,85 -28,127 -59,72 -155,197 -174,226 -9,15 -22,27 -29,27 -6,0 -71,-60 -144,-133 z"
         id="path48"
         style="fill:#000000;fill-opacity:0.847059" />
    </g>
    <g
       id="g1373"
       style="fill:#000000;fill-opacity:0.847059">
      <desc
         id="desc1413">h2o37</desc>
      <title
         id="title1411">7.2.1</title>
      <path
         d="m 29747,22130 c -142,-137 -140,-133 -162,-325 -8,-71 -22,-186 -30,-255 -9,-69 -26,-213 -39,-320 -41,-333 -41,-298 -7,-397 31,-92 81,-192 106,-213 12,-10 27,-1 87,52 40,35 109,94 153,130 44,37 102,89 129,116 l 48,50 13,123 c 8,68 21,225 30,349 8,124 21,293 27,376 l 11,151 -92,118 c -51,66 -100,129 -108,142 -9,13 -21,23 -28,23 -8,0 -69,-54 -138,-120 z"
         id="path50"
         style="fill:#000000;fill-opacity:0.847059" />
    </g>
    <g
       id="g1364"
       style="fill:#000000;fill-opacity:0.847059">
      <desc
         id="desc1409">h1o45</desc>
      <title
         id="title1407">5.3.0</title>
      <path
         d="m 22857,22109 c -71,-67 -137,-139 -148,-162 -14,-26 -24,-74 -30,-136 -5,-53 -15,-159 -24,-236 -8,-77 -19,-192 -25,-255 -6,-63 -15,-158 -21,-210 l -10,-95 36,-95 c 69,-180 156,-395 187,-463 33,-71 54,-86 100,-72 22,7 135,118 164,160 13,20 27,142 79,690 14,149 29,306 35,350 5,44 14,149 21,233 l 12,152 -39,58 c -48,71 -174,202 -194,202 -9,0 -73,-55 -143,-121 z"
         id="path52"
         style="fill:#000000;fill-opacity:0.847059" />
    </g>
    <g
       id="g1370"
       style="fill:#000000;fill-opacity:0.847059">
      <desc
         id="desc1405">h1o46</desc>
      <title
         id="title1403">6.3.0</title>
      <path
         d="m 27455,22161 c -35,-22 -208,-197 -222,-226 -16,-31 -41,-202 -63,-430 -5,-55 -19,-179 -30,-275 -27,-242 -27,-243 25,-378 96,-246 179,-438 197,-455 14,-13 27,-17 45,-12 35,8 162,131 180,174 9,21 23,148 38,350 13,174 29,370 34,436 37,421 43,513 39,574 -4,74 -15,93 -127,214 -48,52 -70,57 -116,28 z"
         id="path54"
         style="fill:#000000;fill-opacity:0.847059" />
    </g>
    <g
       id="g1376"
       style="fill:#000000;fill-opacity:0.847059">
      <desc
         id="desc1401">h1o47</desc>
      <title
         id="title1399">7.3.0</title>
      <path
         d="m 31109,22057 c -148,-143 -136,-112 -169,-437 -11,-113 -25,-239 -30,-280 -5,-41 -14,-137 -21,-212 -14,-152 -14,-151 55,-326 18,-48 59,-153 91,-234 67,-173 76,-188 115,-188 23,0 43,16 102,80 87,95 108,131 108,185 0,23 9,135 20,250 11,116 27,296 35,400 8,105 22,262 30,350 16,173 19,265 9,314 -12,56 -170,222 -211,221 -4,0 -65,-56 -134,-123 z"
         id="path56"
         style="fill:#000000;fill-opacity:0.847059" />
    </g>
    <g
       id="g1319"
       style="fill:#000000;fill-opacity:0.847059">
      <desc
         id="desc1397">h1o44</desc>
      <title
         id="title1395">4.3.0</title>
      <path
         d="m 11860,22081 c -13.446,-710.196 -326.096,-1550.778 -932,-2022 -65,-49 -118,-94 -118,-100 0,-11 17,-28 113,-111 36,-32 72,-58 79,-58 16,0 146,92 248,176 585.096,552.332 862.573,1272.561 847,1964 -2,135 -9,256 -14,269 -31.949,22.047 -127.097,43.861 -210,71 -10,0 -13,-44 -13,-189 z"
         id="path46"
         sodipodi:nodetypes="ccscsccccc"
         style="fill:#000000;fill-opacity:0.847059" />
      <path
         d="m 12354,22108 c 37,-253 17.385,-561.335 -9,-763 -71.777,-548.612 -351.9,-1036.431 -687,-1386 -136,-140 -226,-215 -379,-322 -38,-26 -69,-51 -69,-55 0,-12 198,-192 211,-192 7,0 49,35 94,78 45,42 135,124 200,182 167,150 198,181 311,321 201.396,261.709 374.453,537.748 480,858 41,126 87,328 109,476 37,253 28,787 -14,799 -45,14 -204,46 -227,46 -25,0 -26,-2 -20,-42 z"
         id="path58"
         sodipodi:nodetypes="csccssccccccsc"
         style="fill:#000000;fill-opacity:0.847059" />
    </g>
    <g
       id="g1090"
       style="fill:#000000;fill-opacity:0.847059">
      <desc
         id="desc1393">h1o31</desc>
      <title
         id="title1391">1.2.0</title>
      <path
         d="m 15077,21792 c -16,-17 -17,-84 -17,-760 v -742 h 90 90 v 653 c 0,621 1,655 18,670 16,15 49,17 254,17 215,0 236,-2 251,-18 15,-17 17,-78 17,-670 v -652 h 85 85 v 743 c 0,708 -1,745 -18,760 -17,15 -61,17 -429,17 -384,0 -411,-1 -426,-18 z"
         id="path62"
         style="fill:#000000;fill-opacity:0.847059" />
      <path
         d="m 16577,21782 c -16,-17 -17,-84 -17,-755 v -737 h 90 90 v 653 c 0,621 1,655 18,670 16,15 49,17 249,17 210,0 231,-2 246,-18 15,-17 17,-78 17,-670 v -652 h 90 90 v 738 c 0,703 -1,740 -18,755 -17,15 -61,17 -429,17 -384,0 -411,-1 -426,-18 z"
         id="path64"
         style="fill:#000000;fill-opacity:0.847059" />
    </g>
    <g
       id="g1082"
       style="fill:#000000;fill-opacity:0.847059">
      <desc
         id="desc1389">h2o15</desc>
      <title
         id="title1387">5.0.1</title>
      <path
         d="m 24326,23648 c -2,-7 -14,-103 -26,-213 -11,-110 -24,-219 -27,-242 l -6,-43 h 246 c 135,0 253,3 261,6 9,4 21,15 27,26 12,23 49,312 49,390 0,88 2,88 -283,88 -181,0 -239,-3 -241,-12 z"
         id="path30"
         style="fill:#000000;fill-opacity:0.847059" />
      <path
         d="m 24106,21668 c -11,-81 -39,-373 -40,-423 l -1,-50 254,-3 c 176,-2 258,1 267,9 7,6 16,25 18,43 18,118 36,264 42,336 9,129 20,124 -286,128 l -248,3 z"
         id="path66"
         style="fill:#000000;fill-opacity:0.847059" />
    </g>
    <g
       id="g1407"
       style="fill:#000000;fill-opacity:0.847059">
      <desc
         id="desc1385">h2o13</desc>
      <title
         id="title1383">3.0.1</title>
      <path
         d="m 3132,21870 c -23,-25 -112,-182 -112,-199 0,-6 11,-28 24,-49 40,-60 146,-533 130,-576 -8,-21 -52,-21 -120,0 -82,27 -86,22 -78,-96 6,-87 5,-100 -10,-106 -21,-8 -58,7 -131,56 -33,22 -70,40 -83,40 -14,0 -49,-24 -91,-62 -90,-84 -161,-138 -178,-138 -7,0 -30,7 -50,15 -19,8 -37,15 -38,15 -1,0 -18,-26 -38,-57 -19,-32 -54,-76 -76,-98 -23,-21 -41,-43 -41,-48 0,-5 16,-27 35,-48 19,-22 35,-47 35,-58 0,-10 -18,-41 -40,-69 -63,-79 -71,-66 153,-254 59,-49 76,-80 57,-104 -8,-8 -54,-36 -102,-60 -49,-25 -92,-52 -95,-60 -3,-9 1,-29 11,-44 40,-69 22,-80 -322,-209 -71,-27 -91,-31 -145,-26 -59,6 -65,5 -126,-32 -79,-47 -141,-100 -141,-119 0,-8 141,-162 313,-342 173,-180 360,-378 418,-441 229,-252 422,-450 450,-461 29,-13 51,-8 249,57 48,15 80,39 80,58 0,6 -56,74 -125,151 -145,161 -151,177 -84,219 22,15 77,39 122,54 136,47 307,108 391,140 44,17 103,36 132,42 61,14 61,13 261,-118 91,-61 118,-74 144,-71 31,3 35,8 67,88 35,89 64,130 92,130 236.8734,-129.641 472.8776,-297.577 670,-397 l 115,-58 190,-5 c 166,-4 195,-8 230,-26 105.6235,-48.24 200.6487,-130.788 293,-189 39,-26 46,-27 81,-17 81,25 181,169 181,264 v 46 l -92,75 c -180,146 -205,180 -223,310 -6,49 -79,236 -109,282 -280.5773,207.796 -618.7799,360.88 -924,608 -39,42 -27,57 102,123 127,64 148,82 128,107 -15,18 -252,159 -304,180 -20,8 -43,26 -51,39 -8,12 -38,140 -67,282 -28,143 -62,297 -76,343 -42,145 -30,186 49,165 55,-14 156,-47 239,-78 37,-14 80,-24 95,-22 28,3 28,4 31,83 5,126 0,138 -65,175 -31,18 -188,90 -347,160 -160,70 -456,200 -658,289 -201,88 -375,161 -387,161 -11,0 -29,-9 -39,-20 z m 337,-291 c 80,-40 169,-80 196,-89 62,-22 270,-116 300,-136 32,-21 43,-55 50,-154 5,-66 3,-89 -8,-104 -14,-19 -15,-19 -63,-1 -83,32 -618,306 -640,329 -15,15 -24,44 -32,105 -10,75 -10,87 5,103 9,10 23,18 31,18 8,0 81,-32 161,-71 z m 218,-1012 c 568,-381 572,-383 611,-420 62,-59 52,-67 -159,-117 l -96,-23 -89,48 c -228.545,149.04 -438.187,298.098 -697,492 -23,27 -54,262 -37,293 6,11 15,20 20,20 5,0 206,-132 447,-293 z m -722,-594 c 254.3697,-166.827 490.1808,-351.701 730,-509 177,-116 183,-129 136,-282 -24,-76 -36,-102 -52,-107 -28,-9 -60,10 -414,255 -179.0776,145.532 -409.4995,277.319 -592,433 -82,102 -94,122 -87,140 11,28 157,103 209,106 5,1 37,-16 70,-36 z m -750,-491 c 30,-19 421,-418 489,-500 55,-67 50,-85 -35,-128 -46,-23 -79,-34 -94,-30 -147.983,125.64 -269.9016,271.743 -412,418 -73,75 -133,144 -133,152 0,15 26,34 110,84 44,26 39,25 75,4 z m 2810,-167 c 113,-43 215,-118 283,-209 25,-33 28,-74 9,-101 -20,-27 -56,-14 -128,48 -133,114 -207,155 -252,143 -50.5027,-31.822 -172.7953,-202.064 -177,-244 0,-9 39,-54 86,-99 77,-72 86,-84 74,-99 -30,-35 -166,17 -252,97 -38,36 -47,52 -53,91 -19,127 74,304 195,372 60,34 126,34 215,1 z"
         id="path60"
         sodipodi:nodetypes="csccccccscscsccscscccccccccsccccscccccccccccccccsccccccccccccccccccsccccccccccsccccccccscccccccccccccccscccccccccccccc"
         style="fill:#000000;fill-opacity:0.847059" />
      <path
         d="m 1998,21523 c -9,-10 -35,-59 -58,-109 -58,-127 -74,-132 -246,-90 -131,33 -418,80 -438,73 -24,-10 -19,-35 17,-91 19,-28 90,-136 159,-241 159,-244 158,-241 158,-260 0,-9 -32,-50 -71,-91 -103,-109 -104,-108 126,-112 l 189,-2 184,182 183,183 -3,136 -3,137 -75,148 c -42,85 -82,150 -91,152 -8,1 -22,-5 -31,-15 z"
         id="path68"
         style="fill:#000000;fill-opacity:0.847059" />
    </g>
    <g
       id="g1403"
       style="fill:#000000;fill-opacity:0.847059">
      <desc
         id="desc1381">h2o17</desc>
      <title
         id="title1379">7.0.1</title>
      <path
         d="m 37145,21326 c -231.095,-84.482 -463.225,-205.884 -685,-293 -132,-51 -351,-138 -395,-158 -16,-7 -47,-19 -68,-25 -21,-7 -41,-19 -44,-27 -4,-9 5,-52 19,-97 15,-45 34,-116 43,-159 10,-49 22,-80 32,-84 8,-3 39,4 69,17 30,12 72,24 93,27 33,5 41,2 54,-18 16,-26 16,-26 -21,-399 -16,-163 -22,-191 -45,-230 -42,-72 -104,-124 -230,-191 -68,-37 -120,-71 -123,-82 -4,-13 5,-31 25,-55 17,-21 51,-66 75,-102 24,-36 55,-76 70,-89 30,-28 34,-71 9,-93 -21,-17 -167,-103 -297,-173 -49,-26 -108,-60 -131,-76 -23,-15 -104,-61 -181,-102 -392,-208 -421,-226 -452,-275 -16,-26 -42,-92 -57,-147 l -29,-100 -77,-73 c -95,-91 -169,-195 -176,-250 -5,-37 -2,-44 42,-91 30,-32 61,-55 84,-61 58,-16 160,-12 239,10 80,22 121,25 166,10 105,-34 174,-50 213,-50 68,0 161,28 202,60 20,15 117,77 216,135 99,59 194,117 210,129 27,18 225,127 437,240 75,40 77,40 97,22 11,-10 30,-51 42,-90 56,-187 57,-188 162,-124 39,23 79,48 88,53 10,6 42,24 72,42 85,50 94,50 196,4 50,-23 95,-41 101,-41 5,0 38,-9 72,-20 35,-11 128,-38 207,-60 183,-52 201,-61 201,-101 0,-25 -16,-48 -81,-116 -57,-61 -79,-92 -77,-107 4,-26 74,-66 171,-97 l 68,-22 32,23 c 30,22 64,50 258,212 41,35 154,131 250,213 96,83 214,182 263,220 240,191 356,287 375,311 36,46 28,66 -49,123 -72,52 -97,59 -147,40 -15,-6 -41,-8 -58,-5 -34,7 -340,195 -361,223 -26,34 -17,73 26,113 22,20 40,44 40,52 0,8 -25,38 -55,66 -30,28 -55,57 -55,63 0,6 14,31 30,56 17,24 30,51 30,59 0,9 -22,48 -49,87 -75,109 -75,118 -5,182 66,61 66,49 -7,165 -23,36 -52,86 -66,113 -14,26 -31,47 -37,47 -7,0 -35,-11 -62,-25 -73,-37 -91,-34 -147,30 -56,64 -76,68 -175,33 -62,-22 -63,-22 -81,-2 -11,10 -35,75 -55,143 -36,125 -48,151 -71,151 -7,0 -24,9 -39,21 -24,19 -26,25 -21,68 23,163 70,401 90,446 8,21 41,53 89,89 47,35 76,63 76,75 0,10 -11,34 -24,54 -14,20 -50,85 -81,146 -47,91 -61,111 -78,110 -12,0 -211,-78 -442,-173 z m 244,-254 c 5,-10 13,-50 16,-90 6,-58 4,-76 -9,-97 -9,-14 -21,-25 -27,-25 -13,0 -132,-47 -209,-83 -232,-107 -679,-289 -703,-285 -17,2 -24,13 -31,51 -4,26 -5,72 -1,103 l 7,55 96,48 c 88,44 193,87 622,256 80,32 156,63 170,71 35,18 58,17 69,-4 z m 59,-1009 c 34,-62 39,-131 13,-164 -237.179,-149.815 -482.457,-291.659 -726,-419 -49,-26 -112,-60 -140,-75 -130,-72 -190,-97 -216,-91 -57,11 -159,98 -159,135 0,32 47,72 145,124 55,30 186,100 290,156 259,141 304,165 420,226 55,30 143,76 195,104 118,63 145,64 178,4 z m 524,-620 c 20,-18 24,-76 8,-134 -13,-46 -46,-75 -150,-134 -95,-53 -325,-188 -470,-275 -52,-32 -131,-77 -175,-100 -44,-24 -104,-58 -133,-77 -93,-61 -216,-123 -244,-123 -55,0 -90,89 -63,158 23,58 51,77 445,307 217.223,102.511 468.794,321.057 693,380 70,17 68,17 89,-2 z m 462,-613 c 17,-6 57,-17 88,-26 46,-12 59,-20 64,-39 11,-44 9,-46 -381,-364 -88,-72 -174,-141 -191,-155 -53,-43 -74,-42 -153,5 -87,52 -97,63 -85,93 15,38 291,281 418,369 22,16 59,46 81,67 66,62 95,71 159,50 z m -2659,-52 c 39,-21 81,-66 94,-101 25,-66 -2,-211 -57,-311 -29,-51 -41,-61 -232,-190 -161,-108 -272,-139 -322,-88 l -23,23 41,37 c 23,20 77,56 120,79 142,75 259,150 262,168 2,9 -6,28 -19,41 -25,27 -53,71 -99,157 -20,37 -37,57 -49,57 -10,0 -47,-19 -82,-42 -193,-125 -294,-170 -313,-140 -11,19 36,126 68,155 17,15 76,53 131,85 180,102 153,94 310,90 103,-3 148,-9 170,-20 z"
         id="path70"
         sodipodi:nodetypes="ccccccccccccccccsccccccccccccccsccccccccccsccsccccccccccccccssscsccccscscccsccccscccccccscccccsccccccccscccccccccccscccccccccccccccccccccccccscccccc"
         style="fill:#000000;fill-opacity:0.847059" />
      <path
         d="m 38582,20803 c -56,-80 -92,-170 -113,-288 l -22,-120 32,-62 c 17,-34 42,-99 55,-145 41,-141 46,-148 133,-204 108,-69 240,-114 384,-129 47,-5 69,-4 74,5 4,6 -16,56 -44,110 -28,54 -51,109 -51,122 29.152,90.545 94.767,182.773 143,249 128,179 189,276 185,296 -3,15 -13,18 -68,15 -73,-3 -215,-23 -367,-52 -114,-22 -165,-25 -193,-10 -12,7 -30,45 -50,107 -47,146 -60,160 -98,106 z"
         id="path72"
         sodipodi:nodetypes="ccccccccsccsccccc"
         style="fill:#000000;fill-opacity:0.847059" />
    </g>
    <g
       id="g1385"
       style="fill:#000000;fill-opacity:0.847059">
      <desc
         id="desc1377">h2o45</desc>
      <title
         id="title1375">5.3.1</title>
      <path
         d="m 21873,20805 c -51,-22 -363,-323 -363,-350 0,-15 73,-83 136,-128 l 52,-37 483,2 c 481,3 484,3 487,24 2,11 -22,88 -53,170 -31,82 -65,173 -76,203 -11,30 -29,72 -40,93 l -19,38 h -288 c -220,-1 -294,-4 -319,-15 z"
         id="path74"
         style="fill:#000000;fill-opacity:0.847059" />
    </g>
    <g
       id="g1382"
       style="fill:#000000;fill-opacity:0.847059">
      <desc
         id="desc1373">h2o46</desc>
      <title
         id="title1371">6.3.1</title>
      <path
         d="m 26345,20791 c -35,-21 -335,-334 -335,-349 0,-10 66,-67 139,-119 l 46,-33 h 487 c 311,0 489,4 493,10 3,5 -36,121 -87,257 l -94,248 -309,3 c -288,2 -312,1 -340,-17 z"
         id="path76"
         style="fill:#000000;fill-opacity:0.847059" />
    </g>
    <g
       id="g1379"
       style="fill:#000000;fill-opacity:0.847059">
      <desc
         id="desc1369">h2o47</desc>
      <title
         id="title1367">7.3.1</title>
      <path
         d="m 30130,20803 c -31,-5 -360,-338 -360,-364 0,-17 68,-80 137,-127 31,-22 34,-22 527,-22 h 496 v 33 c 0,18 -4,37 -9,43 -5,5 -21,43 -36,84 -14,41 -37,102 -50,135 -13,33 -38,97 -55,143 l -31,82 -297,-1 c -163,-1 -308,-4 -322,-6 z"
         id="path78"
         style="fill:#000000;fill-opacity:0.847059" />
    </g>
    <g
       id="g1112"
       style="fill:#000000;fill-opacity:0.847059">
      <desc
         id="desc1365">h2o24</desc>
      <title
         id="title1363">4.1.1</title>
      <path
         d="m 28664,18741 c -16,-10 -53,-48 -82,-84 -91,-116 -194,-217 -222,-217 -22,0 -254,133 -404,232 -108,71 -157,91 -171,68 -8,-13 43,-199 121,-440 19,-58 38,-136 43,-174 56.067,-141.526 54.498,-191.942 -10,-287 -39,-57 -90,-134 -115,-170 -52,-76 -61,-122 -27,-127 26,-4 127,32 278,97 146,64 209,85 229,78 23,-9 43,-60 80,-207 43,-172 37,-173 199,20 84,100 110,113 212,105 44,-4 113,-15 154,-26 41,-11 103,-23 138,-26 l 63,-6 v 29 c 0,20 -27,66 -91,154 -141,196 -150,219 -99,277 56.112,101.154 86.263,199.835 156,288 91,114 164,213 164,223 0,33 -103,1 -285,-87 -33,-16 -88,-35 -123,-42 -54,-11 -64,-11 -78,2 -9,10 -23,70 -37,161 -21,130 -36,178 -56,178 -3,0 -20,-8 -37,-19 z"
         id="path84"
         sodipodi:nodetypes="ccsccccccccccccsccscccsccccsc"
         style="fill:#000000;fill-opacity:0.847059" />
      <path
         d="m 29604,18577 c -97.349,-45.859 -190.849,-97.465 -284,-151 l -30,-72 c -28,-67 -38,-114 -25,-114 3,0 32,14 64,30 33,17 75,34 95,37 35,5 36,5 36,-25 0,-17 -12,-58 -27,-92 l -26,-61 31,-45 c 39,-54 39,-64 7,-94 -19,-18 -25,-34 -25,-64 0,-65 -9,-71 -69,-51 -63,21 -96,14 -116,-25 -35,-67 -21,-82 170,-174 269,-130 306,-126 235,29 -38,84 -47,136 -26,154 8,7 64,17 123,23 173,15 188,19 188,48 -55.285,83.528 -203.992,134.595 -282,192 -48,35 -53,42 -53,76 0,21 4,42 10,48 14,14 170,325 170,340 0,16 -28,44 -43,43 -7,0 -62,-24 -123,-52 z"
         id="path88"
         sodipodi:nodetypes="cccsccsccccsscccccccssscc"
         style="fill:#000000;fill-opacity:0.847059" />
      <path
         d="m 27294,18585 c -15.858,-88.341 56.513,-151.148 36,-234 -13,-50 -52,-73 -163,-101 -87.678,-19.55 -170.436,-54.559 -258,-74 -41,-9 -73,-39 -65,-62 3,-11 61,-52 134,-96 71,-43 152,-98 180,-123 64,-58 71,-91 48,-248 -22,-155 -21,-222 4,-247 29,-29 47,-25 88,21 20,23 89,84 152,135 256,208 245,197 248,234 2,29 -3,41 -32,69 -44,42 -57,39 -161,-39 -56,-42 -88,-59 -105,-58 -24,3 -25,5 -25,82 -1,89 -1,90 -109,155 -41,26 -56,41 -56,57 27.466,90.382 192.915,85.291 238,151 6,10 13,35 17,55 13,69 33,71 130,13 62,-38 87,-35 65,5 -7,13 -22,57 -34,99 -20,71 -25,78 -68,106 -165,106 -250,138 -264,100 z"
         id="path92"
         sodipodi:nodetypes="ccccccccsccccsccccccccccc"
         style="fill:#000000;fill-opacity:0.847059" />
    </g>
    <g
       id="g1107"
       style="fill:#000000;fill-opacity:0.847059">
      <desc
         id="desc1361">h2o14</desc>
      <title
         id="title1359">4.0.1</title>
      <path
         d="m 24700,18795 c -11,-14 -6,-44 34,-190 69,-253 78,-313 60,-401 -8,-39 -13,-98 -12,-130 2,-65 20,-32 -167,-322 -73,-114 -82,-155 -35,-160 25,-3 119,26 295,88 50,18 112,33 140,34 67,1 69,-3 114,-283 15,-95 41,-105 105,-38 38,40 178,208 194,233 19,29 59,44 117,44 34,0 65,-4 71,-8 11,-11 116,-29 214,-38 103,-9 111,1 71,86 -55.16,92.631 -171.287,350.388 -114,448 9,15 47,59 83,97 36,39 79,88 96,109 37,50 84,147 77,159 -8,13 -51,2 -190,-48 -131,-47 -173,-54 -193,-31 -6,8 -16,48 -21,88 -32,251 -30,239 -57,251 -24,11 -29,8 -86,-57 -124,-140 -202,-216 -223,-216 -12,0 -50,18 -84,39 -223,138 -403,239 -455,255 -14,4 -26,1 -34,-9 z"
         id="path82"
         sodipodi:nodetypes="cccccccccccsccccccccccccsccc"
         style="fill:#000000;fill-opacity:0.847059" />
      <path
         d="m 24169,18658 c 0,-13 -4,-63 -8,-111 -7,-84 -9,-89 -42,-117 -83.031,-54.206 -196.457,-61.665 -268,-134 -35,-37 -23,-55 119,-194 161,-156 158,-145 80,-348 -34,-87 -59,-163 -56,-171 9,-22 49,-15 142,26 49,21 130,56 179,76 166,70 197,105 163,181 -13,28 -9,28 -150,8 -40,-6 -47,-4 -57,14 -6,12 -8,40 -5,66 8,53 -19,106 -85,171 -24,22 -41,48 -41,61 20.387,54.819 84.881,71.636 123,108 67,67 83,68 178,7 44,-28 85,-49 90,-45 5,3 9,44 9,92 v 87 l -95,65 c -52,36 -131,91 -175,123 -44,31 -85,57 -90,57 -6,0 -10,-10 -11,-22 z"
         id="path86"
         sodipodi:nodetypes="csccccccccccccccccscccsc"
         style="fill:#000000;fill-opacity:0.847059" />
      <path
         d="m 26484,18576 c -111.483,-83.932 -255.86,-144.676 -358,-226 -67,-53 -78,-75 -92,-177 -4,-34 -3,-53 4,-53 5,0 56,29 113,65 57,36 110,65 117,65 8,0 12,-22 12,-78 0,-75 1,-79 30,-100 39,-29 38,-48 -7,-94 -31,-32 -38,-48 -43,-91 l -5,-52 -56,-3 c -66,-3 -87,-20 -96,-77 -5,-32 -2,-40 23,-62 52,-46 293,-151 315,-137 28,17 30,57 4,155 -14,54 -25,109 -25,122 0,44 52,73 155,87 33,4 72,13 88,19 40,16 36,53 -9,88 -105,81 -182,155 -187,180 -6,34 10,81 74,217 18,39 25,118 13,150 -7,19 -29,20 -70,2 z"
         id="path94"
         sodipodi:nodetypes="cccsssscccccccccsccccccc"
         style="fill:#000000;fill-opacity:0.847059" />
    </g>
    <g
       id="g1117"
       style="fill:#000000;fill-opacity:0.847059">
      <desc
         id="desc1357">h2o16</desc>
      <title
         id="title1355">6.0.1</title>
      <path
         d="m 31915,18836 c -149.479,-69.681 -189.688,-269.856 -297,-361 -47,-40 -43,-42 -355,162 -133,87 -175,108 -198,99 -21,-8 -18,-16 57,-180 69,-150 119,-277 142,-361 9,-33 26,-81 38,-107 l 21,-48 -79,-156 c -43,-86 -91,-180 -106,-208 -15,-28 -27,-64 -28,-80 0,-27 2,-28 35,-22 30,6 162,57 260,101 150,67 140,80 185,-230 28,-191 31,-200 60,-200 18,0 35,17 71,70 30.42,37.018 50.97,87.269 73,123 13,20 49,78 80,129 83,133 98,136 322,68 149,-45 184,-48 184,-16 0,19 -81,160 -125,217 -17.577,22.435 -22.253,27.871 -57,31 -37.965,3.419 -67,32 -75,91 -6,46 -3,51 198,349 113,168 141,233 100,233 -10,0 -54,-16 -97,-36 -94,-43 -174,-74 -191,-74 -6,0 -27,21 -45,48 0,0 -27.232,28.747 -33,47 -15.367,48.63 0,153 0,153 0,125 -3,154 -15,162 -21,14 -90,11 -125,-4 z"
         id="path80"
         sodipodi:nodetypes="cccccccccsccccsccccscsccscscsssc"
         style="fill:#000000;fill-opacity:0.847059" />
      <path
         d="m 32825,18576 c -33,-17 -87,-50 -120,-72 -33,-22 -91,-56 -128,-74 -37,-19 -71,-39 -76,-44 -20,-25 -133,-257 -128,-262 7,-8 130,42 203,82 33,19 71,34 82,34 20,0 22,-5 22,-60 0,-58 2,-63 45,-109 25,-26 45,-53 45,-58 0,-17 -35,-43 -68,-49 -49,-10 -66,-35 -53,-79 21,-76 -8,-87 -107,-40 -91,43 -119,45 -133,8 -17,-46 -3,-65 88,-123 47,-30 125,-81 174,-112 100,-66 176,-108 195,-108 17,0 44,39 44,65 0,12 -18,61 -40,110 -38,87 -48,129 -32,150 9,14 59,35 80,35 9,0 56,14 105,32 131,49 127,79 -18,149 -44,21 -99,54 -123,74 -35,31 -42,42 -42,73 0,36 49,202 75,252 7,14 18,49 24,79 19,90 -11,102 -114,47 z"
         id="path90"
         style="fill:#000000;fill-opacity:0.847059" />
      <path
         d="m 30603,18518 c -17,-21 -33,-88 -33,-143 0,-49 -13,-74 -51,-103 -18,-14 -178,-46 -300,-62 -88,-11 -126,-25 -135,-52 -8,-26 19,-54 79,-85 109,-55 314,-176 340,-201 36,-35 34,-50 -50,-291 -101,-292 -99,-281 -34,-281 28,0 53,10 90,35 44,29 205,174 358,320 53,52 62,84 33,125 -29,40 -64,39 -120,-2 -24,-18 -48,-37 -55,-42 -7,-5 -20,-6 -30,-2 -15,5 -17,14 -10,59 4,28 8,70 9,92 1,38 -1,41 -54,72 -189,110 -193,125 -46,154 74,14 100,39 115,110 16,72 35,99 70,99 26,0 106,-28 198,-71 49,-22 73,-24 73,-6 0,6 -14,44 -31,84 l -32,72 -142,59 c -154,65 -224,83 -242,60 z"
         id="path96"
         style="fill:#000000;fill-opacity:0.847059" />
    </g>
    <g
       id="g1120"
       style="fill:#000000;fill-opacity:0.847059">
      <desc
         id="desc1353">h1o13</desc>
      <title
         id="title1351">3.0.0</title>
      <path
         d="m 6398,18433 c -19,-21 -110,-137 -201,-258 -169,-223 -241,-318 -311,-407 -45,-58 -41,-64 44,-73 157,-17 230,-27 275,-40 169.6933,-38.28 310.5201,-144.42 410,-218 44,-32 120,-80 170,-105 98.7813,-46.416 211.2658,-68.085 317,-34 57,20 112,65 144,118 83.1525,166.886 -25.4871,328.548 -119,419 -156.3405,154.702 -352.9184,244.695 -511,389 -79,73 -99,98 -132,165 -21,44 -41,80 -44,80 -3,1 -22,-16 -42,-36 z"
         id="path98"
         sodipodi:nodetypes="cccccccccccccc"
         style="fill:#000000;fill-opacity:0.847059" />
    </g>
    <g
       id="g1165"
       style="fill:#000000;fill-opacity:0.847059">
      <desc
         id="desc1349">h2o48</desc>
      <title
         id="title1347">8.3.1</title>
      <path
         d="m 33822,17818 c -6,-18 -18,-60 -27,-93 -26,-95 -61,-157 -108,-189 -23,-16 -96,-58 -162,-94 -99.181,-71.024 -349.687,-174.397 -417,-259 -95.936,-136.177 -102.158,-240.763 -33,-383 36,-72 120,-142 199,-168 37,-12 84,-22 106,-22 43,0 185,57 277,113 113,67 449,245 486,257 29,9 49,9 80,1 92,-25 182,-39 191,-31 8,8 -97,171 -153,235 -56,65 -261,391 -296,470 -28,62 -112,195 -125,195 -5,0 -13,-15 -18,-32 z"
         id="path100"
         sodipodi:nodetypes="cccccccsccccccsc"
         style="fill:#000000;fill-opacity:0.847059" />
    </g>
    <g
       id="g1123"
       style="fill:#000000;fill-opacity:0.847059">
      <desc
         id="desc1345">h1o23</desc>
      <title
         id="title1343">3.1.0</title>
      <path
         d="m 7595,17618 c -165.3485,-219.507 -307.9518,-418.657 -472,-638 -26,-36 -49,-68 -51,-72 -2,-5 21,-8 52,-8 104,0 208,-22 294,-61 46,-21 228,-121 405,-221 294,-167 326,-182 377,-185 49,-4 63,0 127,36 117,66 206,191 220,309 3,28 0,81 -7,119 -16,83 -39,107 -205,215 -344,223 -465,308 -498,351 -30,40 -69,115 -97,187 -38,98 -52,95 -145,-32 z"
         id="path102"
         sodipodi:nodetypes="cccscccccccccc"
         style="fill:#000000;fill-opacity:0.847059" />
    </g>
    <g
       id="g1162"
       style="fill:#000000;fill-opacity:0.847059">
      <desc
         id="desc1341">h1o48</desc>
      <title
         id="title1339">8.3.0</title>
      <path
         d="m 32511,17048 c -5,-13 -19,-55 -30,-94 -26,-88 -73,-140 -176,-191 -149,-75 -401,-238 -439,-284 -71.225,-86.63 -112.065,-171.43 -123,-275 -7,-84 13,-139 72,-199 86,-85 195,-109 350,-76 175,36 218,55 410,176 39,25 104,59 145,77 74,33 76,33 213,30 115,-2 138,0 143,12 4,10 -74,137 -207,338 -117,178 -221,334 -231,348 -11,14 -36,54 -57,90 -43,72 -57,82 -70,48 z"
         id="path104"
         sodipodi:nodetypes="ccccccccccccccc"
         style="fill:#000000;fill-opacity:0.847059" />
    </g>
    <g
       id="g1126"
       style="fill:#000000;fill-opacity:0.847059">
      <desc
         id="desc1337">h2o23</desc>
      <title
         id="title1335">3.1.1</title>
      <path
         d="m 8928,16883 c -8,-10 -41,-61 -73,-113 -31,-52 -67,-106 -80,-120 -36,-40 -395,-572 -395,-585 0,-20 25,-25 120,-25 139,0 190,-24 383,-179 56,-45 150,-117 209,-160 99,-73 114,-81 196,-100 101,-24 181,-27 250,-9 95,24 206,180 206,293 1,102 -87,235 -219,330 -22,16 -65,50 -95,76 -366,316 -351,298 -425,493 -23,61 -46,111 -52,113 -5,2 -16,-4 -25,-14 z"
         id="path106"
         style="fill:#000000;fill-opacity:0.847059" />
    </g>
    <g
       id="g1159"
       style="fill:#000000;fill-opacity:0.847059">
      <desc
         id="desc1333">h1o38</desc>
      <title
         id="title1331">8.2.0</title>
      <path
         d="m 31301,16233 c -16,-32 -32,-72 -35,-89 -8,-37 -28,-57 -116,-117 -146.102,-93.806 -302.06,-194.617 -434,-282 -163.207,-104.397 -213.25,-220.076 -136,-378 81.989,-143.614 233.573,-212.628 374,-187 57,11 102,34 350,184 l 285,173 107,11 c 59,7 110,14 113,17 3,3 0,14 -6,23 -7,9 -38,62 -69,117 -49,85 -102,166 -325,495 -35,52 -66,90 -73,90 -3,0 -19,-26 -35,-57 z"
         id="path108"
         sodipodi:nodetypes="cccccccccscccsc"
         style="fill:#000000;fill-opacity:0.847059" />
    </g>
    <g
       id="g1129"
       style="fill:#000000;fill-opacity:0.847059">
      <desc
         id="desc1329">h2o33</desc>
      <title
         id="title1327">3.2.1</title>
      <path
         d="m 10136,15901 c -113.377,-153.992 -258.4972,-320.6 -351,-442 -22,-28 -60,-77 -85,-108 -83,-103 -99,-141 -62,-156 9,-4 69,-13 132,-20 101,-12 125,-19 200,-57 47,-24 112,-68 146,-98 253,-229 360,-290 507,-290 124,0 197,46 286,179 50.941,91.79 51.393,190.933 10,281 -35,74 -170,209 -284,285 -96,63 -255,187 -294,228 -16,18 -32,61 -52,143 -29,118 -41,144 -65,144 -7,0 -47,-40 -88,-89 z"
         id="path110"
         sodipodi:nodetypes="cccccccscccccsc"
         style="fill:#000000;fill-opacity:0.847059" />
    </g>
    <g
       id="g1156"
       style="fill:#000000;fill-opacity:0.847059">
      <desc
         id="desc1325">h2o38</desc>
      <title
         id="title1323">8.2.1</title>
      <path
         d="m 30023,15544 c -6,-3 -26,-47 -43,-98 -26,-80 -37,-99 -83,-143 -28,-28 -92,-75 -142,-104 -147.012,-95.561 -330.53,-169.721 -456,-272 -55,-43 -139,-151 -159,-204 -27.168,-85.005 -38.558,-170.413 -4,-232 57,-106 174,-181 282,-181 75,0 162,26 253,73 161,84 314,168 359,198 144,94 314,155 489,175 34,4 61,8 61,10 0,16 -384,588 -454,676 -12,14 -34,45 -50,67 -30,42 -32,43 -53,35 z"
         id="path112"
         sodipodi:nodetypes="cccccccscccsccc"
         style="fill:#000000;fill-opacity:0.847059" />
    </g>
    <g
       id="g1068"
       style="fill:#000000;fill-opacity:0.847059">
      <desc
         id="desc1321">h2o21</desc>
      <title
         id="title1319">1.1.1</title>
      <path
         d="m 13455,15375 c -301,-237 -591,-514 -803,-768 -226.4,-271.268 -482.386,-659.086 -605,-868 -115,-199 -225,-445 -307,-689 -83,-248 -106,-364 -77,-388 22,-18 99,-34 133,-27 42,7 46,15 90,167 63,216 72,241 198,498 270.635,599.637 657.048,1052.504 1060,1455 230,230 351,338 485,434 33,24 61,49 61,56 0,22 -131,185 -149,185 -9,0 -47,-25 -86,-55 z"
         id="path114"
         sodipodi:nodetypes="ccccccccccssc"
         style="fill:#000000;fill-opacity:0.847059" />
      <path
         d="m 13813,14857 c -148,-119 -628,-610 -799,-817 -241,-293 -485,-694 -589,-965 -68,-179 -121,-393 -132,-531 -5,-77 -5,-82 18,-97 16,-12 44,-17 91,-17 81,0 86,5 117,126 49,193 142,434 235,609 294.289,536.412 645.893,1036.512 1131,1423 101,78 160,131 160,142 0,24 -122,190 -139,190 -8,0 -49,-28 -93,-63 z"
         id="path118"
         sodipodi:nodetypes="cccccscccssc"
         style="fill:#000000;fill-opacity:0.847059" />
      <path
         d="m 14209,14432 c -61,-42 -178,-141 -226,-192 -213,-225 -269,-286 -339,-366 -293.835,-335.835 -525.427,-668.384 -702,-1039 -136,-289 -188,-461 -149,-493 21,-17 155,-54 175,-48 18,6 49,77 122,281 214.962,539.2 610.539,1037.485 987,1390 234,217 303,287 303,304 0,22 -117,181 -133,181 -6,0 -24,-8 -38,-18 z"
         id="path122"
         sodipodi:nodetypes="ccccccccssc"
         style="fill:#000000;fill-opacity:0.847059" />
      <path
         d="m 14492,13966 c -129.824,-121.234 -241.5,-260.835 -358,-388 -242,-266 -365,-424 -520,-668 -154,-244 -282,-674 -216,-733 42,-38 153,-70 166,-48 3,5 12,53 20,107 145.526,623.78 515.527,1037.76 1004,1467 67,59 122,115 122,123 0,19 -131,194 -145,194 -5,0 -38,-24 -73,-54 z"
         id="path126"
         sodipodi:nodetypes="cccccccssc"
         style="fill:#000000;fill-opacity:0.847059" />
    </g>
    <g
       id="g1074"
       style="fill:#000000;fill-opacity:0.847059">
      <desc
         id="desc1317">h2o41</desc>
      <title
         id="title1315">1.3.1</title>
      <path
         d="m 27074,14994 c -35,-36 -64,-69 -64,-73 0,-13 152,-146 250,-218 432.557,-437.551 790.596,-894.88 1037,-1463 94.005,-253.684 211.668,-510.163 263,-772 8,-42 16,-59 31,-63 21,-7 109,30 148,62 24,19 24,22 11,69 -49.08,131.689 -95.864,262.723 -125,359 -31,104 -158,461 -185,520 -273.722,588.195 -605.82,1083.614 -1085,1496 -93,79 -191,149 -209,149 -5,0 -37,-30 -72,-66 z"
         id="path116"
         sodipodi:nodetypes="sscccccccccss"
         style="fill:#000000;fill-opacity:0.847059" />
      <path
         d="m 26593,14531 c -40,-38 -73,-75 -73,-83 0,-22 205,-215 305,-288 260.691,-249.266 429.216,-443.233 647,-794 211.758,-346.417 331.982,-705.875 486,-1068 11,-25 30,-52 42,-58 26,-14 94,-5 110,15 -1.081,214.552 -166.967,627.815 -227,765 -252.481,629.069 -606.822,994.906 -1064,1437 -80,79 -148,143 -150,143 -2,0 -37,-31 -76,-69 z"
         id="path120"
         sodipodi:nodetypes="cscccccccsc"
         style="fill:#000000;fill-opacity:0.847059" />
      <path
         d="m 26150,14114 -75,-75 35,-30 c 19,-17 79,-65 133,-109 276,-222 513.25,-450.5 724.25,-737.5 177.271,-299.088 383.476,-723 408.75,-1050.5 4,-48 11,-93 17,-99 15,-20 68,-15 117,10 0,0 36.298,7.75 45,22 17.724,29.023 -2,102 -2,102 -17.356,260.12 -99.778,547.425 -186,738 -87,191 -204,392 -302,520 -146,192 -518,564 -665,665 -19,13 -60,45 -91,72 -31,26 -63,48 -71,48 -7,0 -47,-34 -88,-76 z"
         id="path124"
         sodipodi:nodetypes="ccccccccscccccsc"
         style="fill:#000000;fill-opacity:0.847059" />
      <path
         d="m 25791,13771 c -39,-37 -71,-74 -71,-82 0,-16 161.839,-149.322 338.839,-306.322 345.798,-274.965 666.84,-809.048 811.161,-1272.678 21,-69 42,-141 45,-160 11,-59 28,-74 77,-66 74,12 88,27 88,95 -160.164,831.606 -633.033,1337.093 -1147,1813 -28,26 -56,48 -62,48 -5,0 -41,-31 -80,-69 z"
         id="path128"
         sodipodi:nodetypes="csccccccsc"
         style="fill:#000000;fill-opacity:0.847059" />
    </g>
    <g
       id="g1392"
       style="fill:#000000;fill-opacity:0.847059">
      <desc
         id="desc1313">h2o42</desc>
      <title
         id="title1311">2.3.1</title>
      <path
         d="m 15180,12247 c 0,-23 115,-234 170,-312 74.978,-126.089 130.822,-240.419 202,-374 15,-30 28,-64 28,-75 0,-12 -23,-61 -51,-111 -51,-90 -129,-241 -129,-249 0,-2 7,-7 16,-10 10,-4 72,25 163,76 196,110 193,108 217,108 12,0 25,-7 28,-16 3,-9 11,-152 16,-318 12,-383 16,-416 50,-416 20,0 120,115 236,270 165,222 220,297 246,338 15,23 32,42 39,42 6,0 41,-17 77,-39 113,-65 213,-113 228,-107 11,4 14,40 14,177 v 172 l 48,46 c 27,25 74,68 105,94 31,27 57,55 57,63 0,21 -43,34 -114,34 -103,0 -102,-2 -82,191 9,90 16,200 16,245 0,117 -24,131 -107,66 -73.419,-38.923 -233.128,-207.118 -282,-212 -13,0 -56,46 -134,143 -110,137 -144,174 -150,166 -2,-2 -15,-49 -30,-104 -15,-55 -36,-131 -47,-170 -12,-38 -24,-93 -27,-122 -7,-63 -22,-72 -72,-42 -20,12 -56,33 -81,47 -24,14 -74,45 -110,70 -190,132 -521,352 -530,352 -6,0 -10,-10 -10,-23 z"
         id="path136"
         sodipodi:nodetypes="sccscsccsscsccsccscccsscsccccsccsccss"
         style="fill:#000000;fill-opacity:0.847059" />
    </g>
    <g
       id="g1096"
       style="fill:#000000;fill-opacity:0.847059">
      <desc
         id="desc1309">h1o11</desc>
      <title
         id="title1307">1.0.0</title>
      <path
         d="m 11602,11493 c -4,-10 -7,-92 -7,-183 24.266,-1084.339 462.98,-2060.3466 1096,-2859 77,-98 123,-141 153,-141 22,0 106,83 106,104 0,10 -53,88 -118,174 -571.153,922.1385 -992.258,1690.74 -1028,2755 l 6,167 h -100 c -86,0 -102,-2 -108,-17 z"
         id="path138"
         sodipodi:nodetypes="sccsscccss"
         style="fill:#000000;fill-opacity:0.847059" />
      <path
         d="m 12173,11484 c -10,-27 5,-402 22,-524 109.189,-789.494 406.276,-1544.7803 969,-2247 67,-71 87,-70 156,2 66,70 64,83 -33,185 -406.85,554.1529 -779.755,1365.776 -872,2014 -30,228 -35,291 -35,423 0,164 1,163 -116,163 -68,0 -86,-3 -91,-16 z"
         id="path140"
         sodipodi:nodetypes="ccccccssc"
         style="fill:#000000;fill-opacity:0.847059" />
      <path
         d="m 12786,11423 c -52.811,-555.093 191.366,-1186.125 387,-1615 122,-262 430,-698 492,-698 22,0 91,65 114,109 15,27 14,28 -125,227 -380.328,578.291 -670.775,1200.372 -663,1839 l 4,190 -101,3 -102,3 z"
         id="path142"
         sodipodi:nodetypes="ccsccccccc"
         style="fill:#000000;fill-opacity:0.847059" />
      <path
         d="m 13329,11473 c -24,-4 -27,-9 -33,-65 16.256,-630.46 215.577,-1249.072 593,-1758 14,-19 52,-65 84,-102 74,-85 96,-88 156,-23 22,24 41,50 41,58 0,13 -65,131 -118,212 -318.742,483.841 -538.916,1011.484 -542,1513 v 172 l -77,-1 c -43,-1 -90,-4 -104,-6 z"
         id="path144"
         sodipodi:nodetypes="cccccsccccc"
         style="fill:#000000;fill-opacity:0.847059" />
    </g>
    <g
       id="g1102"
       style="fill:#000000;fill-opacity:0.847059">
      <desc
         id="desc1305">h1o41</desc>
      <title
         id="title1303">1.3.0</title>
      <path
         d="m 28553,11268 c -4,-7 -7,-132 -5,-278 -42.198,-948.96 -270.762,-1775.7648 -838,-2462 -41,-49 -82,-102 -90,-117 -9,-15 -26,-40 -38,-56 -12,-15 -22,-32 -22,-36 0,-15 150,-129 170,-129 709.429,679.6756 1059.153,1922.699 1046,2745 -3,132 -9,264 -12,293 l -7,52 h -98 c -67,0 -100,-4 -106,-12 z"
         id="path146"
         sodipodi:nodetypes="cccccsccccsc"
         style="fill:#000000;fill-opacity:0.847059" />
      <path
         d="m 27553,11218 c -39,-13 -43,-25 -43,-168 17.279,-571.614 -239.49,-1377.2384 -604,-1845 -123,-156 -158,-206 -153,-219 3,-8 40,-42 83,-77 l 77,-63 38,43 c 38,42 181,253 241,355 312.554,519.7625 557.823,1151.176 575,1723 l 5,231 -30,16 c -35,18 -138,20 -189,4 z"
         id="path148"
         sodipodi:nodetypes="cccccccccccc"
         style="fill:#000000;fill-opacity:0.847059" />
      <path
         d="m 28080,11211 c -6,-11 -10,-90 -10,-184 -8.313,-810.089 -356.606,-1621.1266 -814,-2227 -74,-96 -96,-130 -96,-149 0,-17 150,-133 165,-127 585.964,764.0958 901.665,1482.727 912,2342 l 5,331 -23,17 c -35,24 -125,22 -139,-3 z"
         id="path150"
         sodipodi:nodetypes="cccsccccc"
         style="fill:#000000;fill-opacity:0.847059" />
      <path
         d="m 27026,11188 c -39.964,-189.832 -49.198,-408.947 -92,-588 -136.016,-441.463 -316.719,-869.6884 -604,-1173 l -55,-59 35,-29 c 19,-16 59,-48 88,-71 l 53,-41 46,44 c 419.343,496.9227 700.147,1128.138 691,1735 -4,194 -8,204 -94,204 -45,0 -56,-4 -68,-22 z"
         id="path152"
         sodipodi:nodetypes="cccccccccsc"
         style="fill:#000000;fill-opacity:0.847059" />
    </g>
    <g
       id="g1399"
       style="fill:#000000;fill-opacity:0.847059">
      <desc
         id="desc1301">h2os1</desc>
      <title
         id="title1299">0.0.1</title>
      <path
         d="m 23463,13316 c -15,-13 -71,-72 -123,-131 -95,-106 -95,-106 -135,-102 -73.532,5.811 -173.348,74.778 -231,77 -50,0 -58,-27 -49,-175 4,-66 10,-179 14,-251 4,-86 11,-137 20,-148 15,-18 72,-36 118,-36 39,0 42,8 46,134 3,109 9,116 91,96 69,-16 65,-20 169,128 88,126 114,146 148,116 32,-28 122,-150 162,-220 20,-34 47,-65 62,-72 53,-24 73,-16 151,64 99,102 104,98 104,-83 v -134 l 93,3 92,3 3,326 c 2,309 1,328 -17,350 -27,34 -49,22 -188,-97 -132,-112 -155,-128 -183,-119 -10,3 -48,41 -83,83 -113,135 -191,212 -214,212 -12,0 -34,-11 -50,-24 z"
         id="path132"
         sodipodi:nodetypes="cccccccscccccccsccccccccsc"
         style="fill:#000000;fill-opacity:0.847059" />
      <path
         d="m 23677,10265 c -32,-7 -61,-16 -65,-19 -11,-11 -13,-249 -5,-480 9,-245 6,-238 104,-217 120.161,33.2244 202.978,103.8178 313,138 31,5 39,1 70,-33 19,-22 45,-53 58,-71 27,-38 121,-168 161,-224 33,-46 58,-49 87,-11 74,97 94,125 136,192 26,41 56,85 67,98 40,44 100,23 228,-78 53,-41 79,-49 97,-27 16,19 28,547 13,576 -16,29 -68,51 -120,51 -56,0 -71,-30 -72,-147 -2,-158 -19,-180 -98,-128 -50,34 -69,28 -118,-33 -21,-26 -43,-51 -49,-57 -6,-5 -33,-38 -59,-73 -36,-46 -54,-62 -69,-60 -14,2 -45,40 -93,113 -78,119 -131,175 -163,175 -12,0 -68,-23 -124,-51 -105,-52 -137,-57 -150,-23 -3,9 -9,103 -13,210 l -6,194 -36,-1 c -20,-1 -62,-7 -94,-14 z"
         id="path154"
         sodipodi:nodetypes="scccccccccccccscccccccscccccs"
         style="fill:#000000;fill-opacity:0.847059" />
    </g>
    <g
       id="g1389"
       style="fill:#000000;fill-opacity:0.847059">
      <desc
         id="desc1297">h1o42</desc>
      <title
         id="title1295">2.3.0</title>
      <path
         d="m 16663,13338 c -11,-13 -51,-70 -88,-128 -79,-123 -111,-160 -139,-160 -12,0 -72,38 -134,85 -124,93 -155,107 -180,81 -15,-15 -17,-50 -17,-309 v -292 h 90 90 l 8,100 c 5,64 12,105 22,114 15,16 16,16 89,-43 34,-27 39,-28 62,-15 14,7 52,50 85,94 32,44 79,108 104,143 57,77 79,81 128,20 53.133,-52.44 88.496,-160.635 149,-209 24,-13 57,-6 83,19 35,32 74,54 85,47 6,-4 10,-53 10,-125 0,-135 -4,-130 95,-130 46,0 69,5 85,18 23,19 23,20 24,303 1,315 2,312 -62,267 -143,-102 -230,-158 -247,-158 -29,1 -52,22 -155,150 -131,161 -147,172 -187,128 z"
         id="path130"
         sodipodi:nodetypes="ccsccscccccccccccccsscccccc"
         style="fill:#000000;fill-opacity:0.847059" />
      <path
         d="m 16480,10111 c -5,-11 -10,-67 -10,-124 0,-88 -3,-106 -18,-120 -26,-24 -54,-21 -122,13 -33,17 -68,30 -78,30 -11,0 -36,-19 -56,-42 -85.855,-88.4274 -158.914,-180.5509 -255,-269 -58.017,84.982 -121.314,224.3679 -181,291 -30,16 -52,12 -93,-16 -24,-16 -45,-23 -57,-19 -18,6 -20,16 -20,114 0,129 -8,141 -86,141 -84,0 -82,9 -90,-282 -8,-326 -8,-327 131,-242 60,37 81,44 97,37 11,-5 64,-74 117,-153 106,-157 141,-190 202,-190 35,0 42,5 65,42 74,117 231,282 282,294 29,8 86,-36 260,-201 73,-70 138,-125 145,-122 17,5 22,803 6,823 -8,10 -40,14 -120,14 -97,0 -109,-2 -119,-19 z"
         id="path156"
         sodipodi:nodetypes="csccsccccsssccccsccccssc"
         style="fill:#000000;fill-opacity:0.847059" />
    </g>
    <g
       id="g1141"
       style="fill:#000000;fill-opacity:0.847059">
      <desc
         id="desc1293">h1o12</desc>
      <title
         id="title1291">2.0.0</title>
      <path
         d="m 10600,9580 c -205,-74 -192,-72 -260,-48 -33,12 -62,19 -65,16 -4,-3 32,-85 79,-181 47,-97 86,-180 86,-185 0,-16 192,-442 199,-442 3,1 26,31 51,68 52,77 67,87 325,196 184,79 183,78 290,135 168.829,100.2359 270.062,268.496 225,410 -45,141 -144,200 -345,207 -189.006,-11.1487 -407.667,-111.4999 -585,-176 z"
         id="path158"
         sodipodi:nodetypes="ccccsccccccc"
         style="fill:#000000;fill-opacity:0.847059" />
    </g>
    <g
       id="g1144"
       style="fill:#000000;fill-opacity:0.847059">
      <desc
         id="desc1289">h2os4</desc>
      <title
         id="title1287">0.3.1</title>
      <path
         d="m 29380,9700 c -95,-13 -162,-45 -217,-103 -69,-73 -90,-131 -76,-212 96.711,-252.9179 277.615,-360.5825 513,-442 176,-59 274,-133 375,-287 50,-77 104,-136 125,-136 20,0 60,73 147,270 77,174 240,575 248,610 11,50 -5,56 -93,32 -44,-12 -94,-22 -111,-22 -41,0 -333,117 -522,209 -184,90 -240,101 -389,81 z"
         id="path160"
         sodipodi:nodetypes="cccccsccsscc"
         style="fill:#000000;fill-opacity:0.847059" />
    </g>
    <g
       id="g1138"
       style="fill:#000000;fill-opacity:0.847059">
      <desc
         id="desc1285">h2o12</desc>
      <title
         id="title1283">2.0.1</title>
      <path
         d="m 9370,9129 c -183,-75 -236,-84 -348,-55 -65,17 -168,21 -176,7 -17,-27 375,-887 410,-898 6,-2 31,29 54,69 63,106 78,131 94,151 249.6682,119.9762 482.706,201.843 754,360 115.546,92.7602 142.371,240.6278 112,336 -45,141 -144,200 -345,207 -186.6838,4.7736 -395.5606,-111.5533 -555,-177 z"
         id="path162"
         sodipodi:nodetypes="cccccccccc"
         style="fill:#000000;fill-opacity:0.847059" />
    </g>
    <g
       id="g1147"
       style="fill:#000000;fill-opacity:0.847059">
      <desc
         id="desc1281">h2o18</desc>
      <title
         id="title1279">8.0.1</title>
      <path
         d="m 30796,9114 c -56,-20 -99,-56 -135,-112 -32,-50 -61,-130 -61,-169 0,-48 45,-137 99,-196 175.342,-140.415 306.334,-188.018 545,-292 155,-65 183,-86 238,-180 62,-104 86,-135 103,-135 8,0 26,34 45,83 18,45 40,100 50,122 10,22 46,110 80,195 33,85 77,192 96,237 42,99 86,225 80,230 -2,3 -48,-7 -102,-22 -57,-16 -113,-25 -134,-22 -201.857,58.3502 -417.247,143.3372 -600,212 -188,71 -228,77 -304,49 z"
         id="path164"
         sodipodi:nodetypes="ccscccscsccccccc"
         style="fill:#000000;fill-opacity:0.847059" />
    </g>
    <g
       id="g1427"
       style="fill:#000000;fill-opacity:0.847059">
      <desc
         id="desc1277">h1os4</desc>
      <title
         id="title1275">0.3.0</title>
      <path
         d="m 24080,8758 c -7,-22 -12,-170 -15,-438 -5,-452 -1,-492 54,-541 42,-39 131,-69 201,-69 55,0 63,3 100,36 43.904,35.4809 56.022,92.8145 76,134 51,108 70,240 67,485 -2,105 2,224 7,266 6,42 8,84 4,93 -11,30 -47,13 -88,-41 -21,-29 -45,-53 -52,-53 -7,0 -29,20 -50,45 -42,52 -71,56 -91,14 -7,-14 -22,-34 -33,-44 -28,-26 -47,-13 -85,57 -53,98 -75,111 -95,56 z"
         id="path166"
         sodipodi:nodetypes="cccsccccccsccccc"
         style="fill:#000000;fill-opacity:0.847059" />
    </g>
    <g
       id="g1135"
       style="fill:#000000;fill-opacity:0.847059">
      <desc
         id="desc1273">h2o43</desc>
      <title
         id="title1271">3.3.1</title>
      <path
         d="m 7872,8574 c -150,-68 -176,-76 -222,-71 -25,3 -78,20 -119,36 -83,35 -111,38 -111,15 0,-45 425,-984 446,-984 25,0 75,76 111,168 l 36,94 156,76 c 86,43 209,99 273,125 174.0204,74.658 351.0201,239.1915 366,418 11,157 -78,254 -268,294 -234.2471,43.3768 -491.0919,-91.3041 -668,-171 z"
         id="path168"
         sodipodi:nodetypes="cccssccccccc"
         style="fill:#000000;fill-opacity:0.847059" />
    </g>
    <g
       id="g1424"
       style="fill:#000000;fill-opacity:0.847059">
      <desc
         id="desc1269">h2o11</desc>
      <title
         id="title1267">1.0.1</title>
      <path
         d="m 15636,8573 c 5,-32 9,-204 9,-383 0,-283 2,-329 16,-355 32,-58 95,-95 159,-95 236.471,3.9516 239.229,474.404 240,676 0,108 -2,123 -20,139 -19,17 -21,17 -38,2 -28,-25 -60,-21 -99,13 -44,39 -74,39 -96,0 -10,-16 -30,-33 -45,-37 -22,-5 -32,1 -72,45 -25,29 -49,52 -54,52 -5,0 -5,-24 0,-57 z"
         id="path170"
         sodipodi:nodetypes="cscccccccccsc"
         style="fill:#000000;fill-opacity:0.847059" />
    </g>
    <g
       id="g1150"
       style="fill:#000000;fill-opacity:0.847059">
      <desc
         id="desc1265">h1o18</desc>
      <title
         id="title1263">8.0.0</title>
      <path
         d="m 32135,8621 c -87,-22 -173,-108 -199,-200 -24,-87 -21,-139 12,-192 60,-93 111,-124 508,-303 396,-179 418,-192 457,-278 18,-40 28,-46 45,-25 10,12 162,371 162,383 0,4 15,41 34,83 87,197 117,274 108,283 -6,6 -43,5 -101,-3 l -91,-13 -137,48 c -215.529,61.2239 -605.34,259.0405 -798,217 z"
         id="path172"
         sodipodi:nodetypes="ccccccscscccc"
         style="fill:#000000;fill-opacity:0.847059" />
    </g>
    <g
       id="g1132"
       style="fill:#000000;fill-opacity:0.847059">
      <desc
         id="desc1050">h1o43</desc>
      <title
         id="title1048">3.3.0</title>
      <path
         d="m 6480,8025 c -68,-25 -83,-27 -165,-21 -83,6 -250,30 -302,43 -31,7 -29,-6 10,-91 19,-39 105,-268 193,-508 87,-241 164,-436 169,-435 14,5 179,189 226,254 47,62 62,71 361,198 218,94 280,130 370,217 101.5039,109.4137 137.1965,275.7843 71,399 -31,58 -65,90 -134,125 -252.2146,71.9841 -587.652,-104.2966 -799,-181 z"
         id="path174"
         sodipodi:nodetypes="cccccccccccc"
         style="fill:#000000;fill-opacity:0.847059" />
    </g>
    <g
       id="g1153"
       style="fill:#000000;fill-opacity:0.847059">
      <desc
         id="desc1046">h2o28</desc>
      <title
         id="title1044">8.1.1</title>
      <path
         d="m 33555,8092 c -96,-29 -125,-54 -189,-166 -50.424,-91.24 -10.65,-206.9355 36,-281 49,-73 129,-128 280,-191 226,-95 341,-141 393,-158 70,-23 97,-48 168,-156 66,-101 95,-121 117,-80 14,26 83,191 151,360 28,69 68,168 89,220 37,90 85,214 97,252 8,27 -37,32 -129,14 -162,-31 -204,-31 -298,2 -207,72 -292,104 -395,147 -132,57 -220,67 -320,37 z"
         id="path180"
         sodipodi:nodetypes="cccccccccccccc"
         style="fill:#000000;fill-opacity:0.847059" />
    </g>
    <g
       id="g1418"
       style="fill:#000000;fill-opacity:0.847059">
      <desc
         id="desc1042">h1os2</desc>
      <title
         id="title1040">0.1.0</title>
      <path
         d="m 24073,6838 c -6,-7 -20,-44 -32,-83 -31,-108 -41,-462 -16,-600 31,-170 96,-265 182,-265 215.96,41.4126 265.84,486.004 278,610 30,295 29,284 11,299 -15,13 -22,9 -59,-27 -24,-23 -46,-42 -49,-42 -4,0 -21,20 -38,45 -17,25 -37,45 -45,45 -7,0 -26,-20 -42,-45 -39,-62 -60,-60 -115,12 -47,62 -60,70 -75,51 z"
         id="path182"
         sodipodi:nodetypes="cccccccsssccc"
         style="fill:#000000;fill-opacity:0.847059" />
    </g>
    <g
       id="g1421"
       style="fill:#000000;fill-opacity:0.847059">
      <desc
         id="desc1038">h2o32</desc>
      <title
         id="title1036">2.2.1</title>
      <path
         d="m 16049,6733 c -14,-16 -37,-45 -53,-65 -15,-21 -33,-38 -41,-38 -7,0 -26,24 -42,53 -38,70 -58,69 -94,-4 -15,-30 -35,-62 -45,-70 -19,-15 -19,-15 -77,76 -39,61 -62,69 -71,24 -3,-17 -6,-173 -6,-345 0,-308 0.409,-313.8133 24,-366 42.41,-93.8158 115,-145 189,-132 209.942,91.45 229.328,346.1646 262,469 14,50 34,155 46,234 14.434,70.1034 31.077,144.1576 -7,168 -41.034,25.6943 -55,29 -85,-4 z"
         id="path184"
         sodipodi:nodetypes="ccscccccsscccsc"
         style="fill:#000000;fill-opacity:0.847059" />
    </g>
    <g
       id="g1415"
       style="fill:#000000;fill-opacity:0.847059">
      <desc
         id="desc1034">h1o28</desc>
      <title
         id="title1032">8.1.0</title>
      <path
         d="m 37565,8182 c -22,-10 -72,-29 -112,-42 -91,-31 -111,-45 -97,-68 6,-9 60,-47 120,-83 127,-78 141,-97 98,-139 -30,-30 -395,-216 -477,-244 -64,-21 -76,-21 -235,15 -194,43 -233,50 -252,44 -32,-10 -40,-52 -40,-206 0,-148 0,-150 -24,-160 -19,-9 -39,-5 -112,24 -318.111,113.5143 -638.993,251.6399 -974,313 -97,16 -145,12 -285,-23 -99,-25 -147,-26 -256,-7 -55,9 -90,-14 -128,-85 -55.735,-115.5206 -20.401,-210.925 39,-280 32,-36 67,-75 79,-85 11,-11 21,-24 21,-30 0,-7 15,-44 34,-83 28,-59 48,-83 120,-145 95,-84 184,-131 366,-198 63,-23 163,-62 222,-86 59,-24 112,-44 118,-44 16,0 352,-130 378,-146 37,-24 30,-75 -22,-158 -60,-98 -76,-131 -76,-160 0,-31 8,-36 145,-81 66,-22 115,-45 126,-58 39,-47 216,-371 355,-647 63,-125 51,-138 -119,-120 -172,18 -163,23 -159,-84 1,-49 7,-95 13,-103 25,-29 111,-62 191,-73 316.072,-55.9073 610.284,-77.1954 918,-130 489,-79 545,-84 557,-53 8,20 -24,177 -43,215 -10,19 -27,30 -57,38 -68,18 -98,32 -112,54 -19,29 -40,413 -24,432 6,8 29,14 50,14 21,0 41,5 45,11 3,6 11,65 17,131 10,113 12,119 31,115 12,-2 50,-10 85,-18 l 64,-14 26,34 c 14,19 44,54 66,79 l 41,44 61,-16 c 33,-9 77,-16 96,-16 34,0 37,3 55,53 11,28 36,94 56,145 20,52 36,98 36,102 0,5 -34,27 -75,50 -41,23 -80,50 -86,61 -8,15 -6,38 8,90 13,50 15,74 7,87 -10,16 -84,58 -171,95 -55,24 -65,55 -32,100 136,185 147,208 109,242 -11,10 -20,30 -20,44 0,28 28,47 265,178 50,27 130,73 179,101 96,56 112,60 176,37 23,-8 46,-15 50,-15 15,0 72,53 101,94 37,51 38,88 2,114 -29,20 -273,152 -648,349 -115,61 -303,163 -417,227 -361,201 -381,209 -473,168 z m 774,-585 c 232,-116 390,-201 399,-215 13,-20 12,-24 -15,-51 -35,-34 -80,-49 -185,-57 -76,-7 -78,-6 -170,37 -165,79 -585,294 -604,310 -20,17 -17,53 6,74 36,33 145,95 165,95 11,-1 193,-87 404,-193 z m -2817,-118 c 31,-10 67,-23 80,-28 12,-6 55,-22 93,-37 102,-39 123,-57 164,-143 31,-65 36,-86 36,-146 -4.906,-95.3896 -39.28,-154.4045 -117,-216 -61,-44 -164,-89 -202,-89 -44,0 -154,39 -281,100 -109,52 -141,79 -151,127 -5,26 -2,34 20,48 25,17 32,16 196,-25 191,-49 189,-49 215,29 8,26 31,72 50,102 19,30 35,59 35,66 0,7 -15,23 -32,36 -31,22 -66,37 -221,97 -50,19 -77,42 -77,64 0,4 15,15 33,26 36,23 64,21 159,-11 z m 1490,-243 c 79,-30 222,-87 318,-126 173.752,-68.0916 364.854,-146.7136 528,-205 73,-27 145,-57 159,-68 23,-19 24,-24 18,-76 -13,-105 -60,-160 -124,-146 -205.478,66.1758 -425.867,156.9773 -616,229 -160,58 -409,169 -457,202 -21,15 -41,38 -44,51 -9,32 5,165 18,181 18,21 53,14 200,-42 z m -387,-855 c 33,-10 112,-39 175,-63 212.862,-73.3141 431.69,-156.8912 635,-231 143,-50 172,-64 189,-89 34,-48 10,-169 -37,-187 -18,-7 -106,19 -418,123 -536,180 -739,269 -739,325 0,20 35,78 68,114 30,32 47,33 127,8 z m 700,-1109 c 94,-12 206,-26 250,-32 74,-9 82,-13 120,-50 38,-38 40,-44 40,-99 0,-81 -11,-91 -98,-91 -39,0 -96,5 -126,10 -31,6 -130,20 -221,31 -283,35 -303,38 -339,57 -33,17 -36,23 -39,67 -4,55 12,99 42,121 27,19 136,15 371,-14 z"
         id="path178"
         sodipodi:nodetypes="ccccccccsccccccccscccssccscccccccccccccscccccccccsccssccccccscccsccccccccccccccccccccscccccssccscccccccccccccccccccscccccsscccccc"
         style="fill:#000000;fill-opacity:0.847059" />
      <path
         d="m 39170,6361 c -117,-27 -239,-71 -268,-96 -26,-22 -27,-26 -28,-136 -1,-164 -31,-246 -123,-338 l -53,-54 c 8.991,-68.9137 4.29,-141.7062 23,-209 12,-43 166,-198 196,-198 28,0 35,14 63,118 27,100 46,116 148,127 132.837,14.2777 251.83,35.5498 387,50 76,8 105,18 105,39 0,15 -226,229 -280,266 -56,37 -140,123 -140,142 0,10 25,71 55,136 30,64 56,129 57,142 3,22 -1,25 -32,27 -19,0 -69,-7 -110,-16 z"
         id="path186"
         sodipodi:nodetypes="ccccccscccscscccc"
         style="fill:#000000;fill-opacity:0.847059" />
    </g>
    <g
       id="g1411"
       style="fill:#000000;fill-opacity:0.847059">
      <desc
         id="desc1030">h1o33</desc>
      <title
         id="title1028">3.2.0</title>
      <path
         d="m 2716,8153 c -122,-74 -134,-82 -290,-183 -80,-52 -202,-131 -270,-175 -68,-44 -171,-109 -230,-145 -291,-177 -476,-311 -476,-344 0,-13 121,-134 160,-160 34,-22 68,-20 119,9 75,43 86,38 198,-82 159,-174 156,-169 149,-227 -6,-48 -4,-55 34,-110 22,-32 40,-67 40,-77 0,-10 -21,-37 -46,-61 -50,-47 -51,-51 -24,-168 18,-76 9,-101 -50,-144 -58,-42 -60,-53 -25,-132 14,-31 41,-97 61,-148 50,-124 55,-129 126,-121 62,7 62,8 130,-73 21,-26 34,-32 66,-32 22,0 59,7 82,15 23,8 55,15 71,15 32,0 39,-17 59,-150 16,-107 26,-120 100,-120 60,0 60,0 60,-30 0,-39 -52,-165 -152,-368 -66,-134 -87,-169 -124,-199 l -44,-37 v -108 c 0,-98 2,-109 24,-135 l 24,-28 143,34 c 79,18 209,48 289,67 271.0319,62.5915 562.7316,128.8993 810,183 327,72 419,97 444,119 21,19 144,199 169,249 24,45 21,62 -10,74 -22,8 -61,4 -181,-20 -180,-36 -208,-38 -216,-13 -8,23 13,82 52,153 17,30 40,78 51,106 42,107 213,449 237,474 14,15 65,43 114,63 48,20 96,46 105,56 23,25 17,39 -59,140 -31,41 -59,85 -62,98 -14,50 8,60 471,217 44,15 136,49 205,75 69,26 160,60 203,75 163,58 309,196 349,329 24,82 38,100 93,128 91,46 164,154 150,226 -11,59 -32,89 -83,119 -46,27 -51,28 -178,26 -108,-2 -143,1 -200,18 -100,31 -347,38 -470,14 -80,-16 -295,-86 -504,-165 -41,-15 -136,-51 -211,-79 -140,-52 -197,-62 -219,-36 -6,8 -18,59 -25,113 -7,54 -18,109 -25,121 -14,27 -12,27 -192,-20 l -127,-34 -73,19 c -155,40 -647,190 -705,216 -70,31 -64,41 84,140 100,66 117,92 90,134 -25,37 -166,146 -190,146 -12,0 -58,-21 -101,-47 z m -86,-469 c 22,-20 40,-44 40,-53 0,-21 -43,-63 -90,-86 -19,-10 -57,-32 -85,-50 -363,-232 -417,-265 -437,-265 -21,0 -88,32 -131,62 -21,15 -27,27 -25,47 2,22 34,47 183,147 193,130 338,219 370,227 11,2 46,5 77,6 53,1 61,-2 98,-35 z m 2551,-184 c 10,-6 19,-15 19,-20 0,-12 -59,-50 -185,-117 -120,-63 -149,-92 -140,-137 36,-188 57,-222 132,-211 98.7489,19.6618 202.6386,58.8197 289,78 35,2 39,0 42,-24 6,-55 -40,-86 -277,-184 -138,-57 -189,-58 -292,-8 -112,55 -169,139 -169,248 0,64 43,175 79,205 38,33 277,161 316,171 46,11 164,10 186,-1 z M 3655,7284 c 48,-19 76,-172 36,-208 -22,-20 -161,-80 -223,-96 -24,-7 -171,-61 -328,-122 -600,-231 -581,-224 -619,-208 -50,20 -131,125 -131,169 0,34 22,45 355,162 233.0699,88.3527 475.464,161.8871 705,254 128,49 175,60 205,49 z m 389,-874 c 53,-47 97,-120 94,-155 -6,-61 -41,-76 -823,-346 -464,-161 -489,-169 -506,-169 -10,0 -27,12 -38,26 -18,22 -21,41 -21,111 0,78 2,86 26,108 15,14 63,38 108,56 250.8668,100.0114 479.4173,172.9889 731,269 132,50 365,129 382,130 7,0 28,-14 47,-30 z M 3710,5339 c 15,-27 -12,-110 -51,-154 -45,-51 -74,-60 -409,-132 -91,-19 -217,-46 -280,-60 -165,-36 -189,-38 -196,-19 -7,19 99,212 125,225 226.5471,69.1621 418.9028,83.3945 646,142 98,25 151,25 165,-2 z"
         id="path176"
         sodipodi:nodetypes="ccscscccccscccccccssscsscccsccccccccscccccccccscccccccccccscccccccsccsccscccccccscccccccsccccccccsccccccscscccccccccsccc"
         style="fill:#000000;fill-opacity:0.847059" />
      <path
         d="m 1145,6330 c -9,-15 18,-58 91,-145 102,-120 107,-107 -118,-333 -211,-212 -232,-240 -190,-257 9,-4 107,-18 217,-31 285,-34 332,-42 340,-62 4,-9 17,-54 30,-100 26,-91 47,-132 70,-132 19,0 165,222 181,276 24,81 27,170 9,247 -48,205 -80,325 -91,347 -18,35 -104,117 -136,129 -38,14 -331,71 -367,71 -16,0 -33,-4 -36,-10 z"
         id="path188"
         style="fill:#000000;fill-opacity:0.847059" />
    </g>
    <g
       id="g1430"
       style="fill:#000000;fill-opacity:0.847059">
      <desc
         id="desc1026">h2o22</desc>
      <title
         id="title1024">2.1.1</title>
      <path
         d="m 15680,4847 c 0,-6 7,-43 14,-81 10,-45 17,-168 21,-355 4,-157 11,-302 17,-321 25,-85 94,-140 175,-140 44,0 58,5 88,32 60,52 74,91 96,281 20,180 39,374 39,417 0,14 -5,32 -10,40 -9,12 -16,8 -45,-25 -30,-36 -36,-38 -49,-25 -8,8 -26,47 -39,85 -32,96 -51,98 -95,10 -44,-90 -60,-88 -134,15 -54,76 -78,96 -78,67 z"
         id="path190"
         style="fill:#000000;fill-opacity:0.847059" />
    </g>
    <g
       id="g1433"
       style="fill:#000000;fill-opacity:0.847059">
      <desc
         id="desc1022">h1os3</desc>
      <title
         id="title1020">0.2.0</title>
      <path
         d="m 24077,4813 c -4,-3 -7,-85 -7,-180 0,-96 -7,-255 -16,-354 -15,-179 -15,-180 6,-214 50,-80 122,-119 226,-120 140.438,4.7281 192.238,106.9631 213,200 11,50 38,160 60,245 83,321 85,338 31,360 -34,14 -59,4 -84,-35 -23,-35 -50,-31 -82,10 -37,49 -61,44 -102,-25 -45,-77 -63,-74 -124,15 -63,92 -99,121 -121,98 z"
         id="path192"
         sodipodi:nodetypes="csccccccccccc"
         style="fill:#000000;fill-opacity:0.847059" />
    </g>
    <g
       id="g1062"
       style="fill:#000000;fill-opacity:0.847059">
      <desc
         id="desc1018">h1o32</desc>
      <title
         id="title1016">2.2.0</title>
      <path
         d="m 9825,3426 c -21,-10 -35,-26 -46,-57 -51,-142 -195,-580 -228,-694 -17,-60 -46,-164 -65,-230 -56,-197 -85,-294 -121,-405 -19,-57 -31,-108 -26,-113 4,-4 58,-6 120,-5 l 113,3 14,40 c 8,22 22,65 30,95 38,142 57,192 79,217 l 23,28 202,3 c 170,3 205,1 226,-12 23,-16 44,-75 109,-301 10,-33 24,-66 33,-72 19,-16 238,-18 247,-3 3,5 -12,67 -34,137 -22,71 -78,261 -126,423 -47,162 -99,336 -115,385 -16,50 -38,126 -50,170 -29,109 -99,324 -117,358 -8,15 -25,32 -39,37 -37,15 -194,11 -229,-4 z m 124,-428 c 6.9513,-9.7622 154,-469 144,-493 -10,-28 -49,-35 -192,-35 -186,0 -179,-10 -120,185 93,303 120,375 145,375 17.4902,-4.6425 16.3216,-15.1458 23,-32 z"
         id="path196"
         sodipodi:nodetypes="cccccsccccccccccscccccccccsccc"
         style="fill:#000000;fill-opacity:0.847059" />
      <path
         d="m 4579,3301 -24,-19 v -674 -673 h 85 84 l 19,53 c 10,29 66,139 124,245 58,105 135,248 171,317 81,154 151,270 174,284 38,23 40,2 46,-455 l 7,-444 h 85 85 l 3,663 2,663 c -29.05,35.5605 -68.7271,58.7634 -103,59 -74,0 -81,-9 -257,-314 -177,-307 -282,-478 -302,-490 -40,-24 -43,-3 -48,390 l -5,376 -24,19 c -30,25 -92,25 -122,0 z"
         id="path198"
         sodipodi:nodetypes="ccccccccccccccccccscccc"
         style="fill:#000000;fill-opacity:0.847059" />
      <path
         d="m 5718,3308 c -20,-7 -31,-20 -38,-46 -7,-25 -10,-249 -8,-682 l 3,-645 h 85 85 l 5,575 c 3,316 9,583 14,593 21,43 50,47 348,47 266,0 285,1 316,20 30,19 33,24 30,62 -2,35 -9,46 -37,65 -34,23 -35,23 -405,22 -220,0 -382,-5 -398,-11 z"
         id="path200"
         style="fill:#000000;fill-opacity:0.847059" />
      <path
         d="M 6800.5318,3301.9157 C 6790.6197,3291.9115 6790,3261 6790,3261 l 2,-663 3,-663 h 85 85 l 3,220 c 3,262 4,264 98,276 33,4 86,8 120,8 67,1 174,34 254,77 71,38 155,130 193,211 46.4624,102.226 39.3837,211.5465 -1,296 -36,78 -120,168 -196,210 -103,57 -163,69 -388,74 l -206,6 c 0,0 -31.3978,-0.9203 -41.4682,-11.0843 z M 7297,3105 c 263.2844,-103.308 200.0259,-394.4587 -15,-461 -43,-13 -81,-15 -161,-11 -98,5 -107,7 -128,32 -22,25 -23,33 -23,211 0,193 5,218 43,234 37,15 228,12 284,-5 z"
         id="path204"
         sodipodi:nodetypes="sccccccccccccccsccccscc"
         style="fill:#000000;fill-opacity:0.847059" />
      <path
         d="m 8313,3300 c -12,-5 -26,-18 -32,-28 -12,-23 -96,-287 -140,-442 -89.1642,-293.5455 -147.0836,-539.5685 -243,-838 -16,-56 -8,-63 74,-60 62.5721,2.6682 65.6789,-13.3727 84,43 7,22 22,72 34,110 34,113 41,126 76,141 41,17 335,20 382,3 33,-11 34,-12 72,-159 39,-149 28,-135 100,-138 35,-2 67,1 71,5 5,5 2,36 -7,68 -8,33 -82,327 -164,653 -82,326 -154,601 -160,611 -18,34 -98,51 -147,31 z m 92,-362 c 15,-37 100,-381 111,-448 10,-64 -3,-70 -156,-70 -136,0 -150,5 -150,51 0,25 77,288 122,414 34,95 50,107 73,53 z"
         id="path206"
         sodipodi:nodetypes="cccccccccccscsccccsscc"
         style="fill:#000000;fill-opacity:0.847059" />
    </g>
    <g
       id="g1055"
       style="fill:#000000;fill-opacity:0.847059">
      <desc
         id="desc1014">h2os2</desc>
      <title
         id="title1012">0.1.1</title>
      <path
         d="M 33581.468,3460.4065 C 33571.135,3451.7398 33570,3418 33570,3418 l 2,-711 3,-712 310,-3 c 288.768,-1.2558 582.113,3.2277 723,273 138.727,262.0005 -18.87,572.8984 -238,639 -42,12 -113,16 -305,18 -278,3 -288,5 -305,68 -13,47 -13,219 1,258 7,20 21,34 41,41 20,7 150,11 352,11 361,0 361,0 372,72 4.007,51.6709 -13.595,68.6439 -54,98 h -420 -420 c 0,0 -40.198,-0.9269 -50.532,-9.5935 z M 34294,2720 c 163.06,-59.8261 183.971,-258.3615 133,-366 -67,-131 -169,-169 -480,-181 -152,-5 -169,-4 -187,12 -19,17 -20,31 -20,242 0,139 4,232 11,244 5,11 25,29 42,39 29,18 52,20 247,20 118,0 233,-5 254,-10 z"
         id="path194"
         sodipodi:nodetypes="scccccccccssccccsccccsccsc"
         style="fill:#000000;fill-opacity:0.847059" />
      <path
         d="M 31020.75,3314.9376 31000,3289 l 2,-647 3,-647 h 85 85 l 5,195 c 3,107 9,202 13,211 16,32 68,50 199,68 146,21 199,37 268,81 306.675,199.0578 218.742,615.5787 -44,735 -96.266,57.5123 -217.615,39.6876 -325.813,39.6876 -196,-1 -253.231,10.5075 -269.437,-9.75 z M 31522,3141 c 145.947,-47.0159 199.136,-207.2365 154,-306 -82.882,-140.553 -196.645,-174.8653 -310,-175 -105.523,1.5987 -108.266,6.0802 -176,61 v 189 c 0,183 1,190 22,210 75.371,58.1458 229.755,42.5775 310,21 z"
         id="path202"
         sodipodi:nodetypes="scccccccccccsccccscc"
         style="fill:#000000;fill-opacity:0.847059" />
      <path
         d="m 28721,3284 c -21,-27 -21,-32 -19,-658 l 3,-631 102,-3 c 97,-3 102,-2 114,20 14,28 163,281 237,403 30,49 66,110 80,135 74,134 128,197 150,175 4,-4 7,-169 7,-368 v -362 h 90 90 l 8,625 c 6,430 6,633 -2,652 -18,47 -129,51 -172,5 -11,-12 -50,-78 -86,-147 -36,-69 -86,-161 -111,-205 -25,-44 -70,-129 -99,-190 -60,-121 -126,-225 -173,-270 -29,-28 -30,-28 -51,-9 l -22,19 7,390 c 7,389 7,390 -14,418 -18,23 -29,27 -70,27 -41,0 -52,-4 -69,-26 z"
         id="path208"
         style="fill:#000000;fill-opacity:0.847059" />
      <path
         d="m 29872,3303 c -59.252,-1.5611 -41,-36 -44,-684 l -3,-624 h 90 90 l 5,540 c 3,297 9,548 13,557 23,46 40,48 350,48 283,0 295,1 321,21 37.577,34.6442 34.155,101.3544 0,128 -26,20 -37,21 -418,20 -215,0 -397,-3 -404,-6 z"
         id="path210"
         sodipodi:nodetypes="cccccccscccc"
         style="fill:#000000;fill-opacity:0.847059" />
      <path
         d="m 32554,3296 c -20,-14 -56,-105 -103,-261 -51,-169 -115,-366 -141,-435 -15,-41 -58,-172 -95,-290 -36,-118 -73,-234 -81,-258 -8,-23 -14,-47 -14,-52 0,-15 146,-12 158,3 5,6 17,39 27,72 24,84 52,134 81,145 14,6 96,10 183,10 207,0 209,-2 251,-187 0,0 3.372,-30.6452 17.524,-41.9513 C 32859.4,1983.572 32916,1990 32916,1990 c 62,0 86,4 90,14 3,7 -15,83 -39,167 -52,181 -61,218 -127,534 -51,249 -110,497 -130,551 -6,17 -22,36 -36,43 -35,15 -95,14 -120,-3 z m 90,-428 c 8,-24 19,-65 25,-93 5,-27 15,-79 22,-115 7,-36 13,-96 13,-135 1,-64 -1,-70 -24,-82 -14,-7 -60,-13 -107,-13 -72,0 -85,3 -103,22 -11,12 -20,30 -20,39 0,32 119,381 136,400 26,29 41,23 58,-23 z"
         id="path212"
         sodipodi:nodetypes="cccccscccscssccccccccsccscscc"
         style="fill:#000000;fill-opacity:0.847059" />
    </g>
    <g
       id="g1449"
       style="fill:#000000;fill-opacity:0.847059">
      <desc
         id="desc1010">h1o22</desc>
      <title
         id="title1008">2.1.0</title>
      <path
         d="m 15958,3048 c -9,-13 -31,-57 -50,-98 -37,-80 -43,-85 -141,-120 -33,-13 -62,-30 -68,-43 -14,-25 -8,-133 21,-407 13,-120 20,-241 18,-314 l -3,-120 34,-23 c 28,-19 46,-23 110,-22 42,0 94,3 116,7 66.67,19.8342 157.594,217.7976 115,242 -11,6 -20,21 -20,34 0,13 41,188 91,388 51,199 92,383 92,408 1,55 -17,90 -45,90 -28,0 -103,-79 -148,-155 -24,-42 -41,-60 -55,-60 -18,0 -21,9 -26,105 -4,58 -7,106 -8,108 -4,9 -21,-1 -33,-20 z"
         id="path214"
         sodipodi:nodetypes="cccccccccccsccscsccc"
         style="fill:#000000;fill-opacity:0.847059" />
      <path
         d="m 14940,3014 c 0,-17 28,-129 62,-249 34,-121 62,-238 62,-260 1,-34 -2,-40 -22,-43 -13,-2 -57,8 -98,22 -73,26 -124,33 -124,19 1,-20 34,-61 145,-183 66,-72 175,-193 243,-268 117,-130 151,-161 180,-162 16,0 66,107 134,285 44,116 49,135 43,183 -7,57 -16,66 -79,75 -57,9 -80,28 -158,134 -61.76,86.7287 -138.036,168.4212 -198,252 -56,79 -129,169 -164,200 l -26,24 z"
         id="path216"
         sodipodi:nodetypes="scccccccccccccccs"
         style="fill:#000000;fill-opacity:0.847059" />
      <path
         d="m 17119,2597 c -95,-59 -228,-143 -417,-268 -134,-88 -141,-83 -117,76 26,173 9,176 -108,20 -32,-44 -78,-118 -102,-165 -49,-98 -148,-373 -143,-398 3,-15 27,-18 176,-25 144,-7 211,-5 397,12 122,11 230,24 239,27 27,10 19,27 -39,84 -46,46 -55,60 -55,90 0,19 10,52 23,72 35,60 145,245 209,351 55,93 88,159 88,178 0,24 -56,3 -151,-54 z"
         id="path222"
         style="fill:#000000;fill-opacity:0.847059" />
    </g>
    <g
       id="g1444"
       style="fill:#000000;fill-opacity:0.847059">
      <desc
         id="desc1006">h2os3</desc>
      <title
         id="title1004">0.2.1</title>
      <path
         d="m 24082,2978 c -29,-115 -33,-557 -6,-738 8,-58 18,-150 21,-205 3,-55 9,-107 14,-116 5,-10 29,-19 61,-24 102,-16 130,-12 188,25 33,21 71,37 99,40 l 46,5 7,50 c 23,165 48,529 48,687 0,106 0,108 -27,125 -38,24 -43,32 -43,75 0,29 -6,41 -24,53 -22,15 -27,15 -58,-1 -18,-9 -50,-28 -70,-41 -47,-32 -64,-26 -144,48 -77,72 -97,75 -112,17 z"
         id="path218"
         style="fill:#000000;fill-opacity:0.847059" />
      <path
         d="m 23460,2803 c 0,-10 14,-85 32,-166 24,-112 29,-154 22,-175 l -9,-27 -135,-5 c -122,-5 -135,-7 -138,-24 -3,-14 69,-92 269,-291 279,-276 369,-355 407,-355 26,0 26,1 6,87 -18.477,156.5428 -17.319,264.8066 5,433 8,52 7,69 -4,87 -20,30 -261,301 -344,386 -66,68 -111,88 -111,50 z"
         id="path220"
         sodipodi:nodetypes="scsccccsccccs"
         style="fill:#000000;fill-opacity:0.847059" />
      <path
         d="m 25405,2488 c -48,-27 -133,-85 -175,-118 -102,-83 -289,-210 -309,-210 -12,0 -24,6 -27,14 -3,7 4,59 16,116 23,111 21,130 -8,130 -23,0 -30,-9 -64,-70 -62.509,-102.2785 -113.191,-221.291 -139,-320 -17,-69 -35,-129 -40,-135 -23,-24 -9,-63 41,-108 44,-40 59,-47 123,-58 64,-10 91,-9 237,11 198,27 263,44 258,68 -3,18 -22,29 -110,66 -72,31 -74,45 -17,141 93,158 220,376 239,410 35,62 23,90 -25,63 z"
         id="path224"
         sodipodi:nodetypes="scsccsccccccccccs"
         style="fill:#000000;fill-opacity:0.847059" />
    </g>
  </g>
</svg>
