<?xml version="1.0" encoding="UTF-8" standalone="no"?>
<svg
   version="1.0"
   width="4076.000000pt"
   height="2672.000000pt"
   viewBox="0 0 4076.000000 2672.000000"
   preserveAspectRatio="xMidYMid meet"
   id="svg186"
   sodipodi:docname="LCD.svg"
   inkscape:version="1.1 (c68e22c387, 2021-05-23)"
   xmlns:inkscape="http://www.inkscape.org/namespaces/inkscape"
   xmlns:sodipodi="http://sodipodi.sourceforge.net/DTD/sodipodi-0.dtd"
   xmlns="http://www.w3.org/2000/svg"
   xmlns:svg="http://www.w3.org/2000/svg">
  <defs
     id="defs190" />
  <sodipodi:namedview
     id="namedview188"
     pagecolor="#ffffff"
     bordercolor="#666666"
     borderopacity="1.0"
     inkscape:pageshadow="2"
     inkscape:pageopacity="0.0"
     inkscape:pagecheckerboard="true"
     inkscape:document-units="pt"
     showgrid="false"
     borderlayer="true"
     inkscape:showpageshadow="false"
     inkscape:zoom="0.21212924"
     inkscape:cx="2717.6829"
     inkscape:cy="1779.5755"
     inkscape:window-width="2048"
     inkscape:window-height="1009"
     inkscape:window-x="-4"
     inkscape:window-y="-4"
     inkscape:window-maximized="1"
     inkscape:current-layer="layer1" />
  <metadata
     id="metadata2">
Created by potrace 1.16, written by Peter Selinger 2001-2019
</metadata>
  <g
     inkscape:groupmode="layer"
     id="layer1"
     inkscape:label="white">
    <rect
       height="2832"
       id="rect1356"
       style="fill:#ffffff;fill-opacity:1;stroke-width:0.297802;stroke-miterlimit:4;stroke-dasharray:none"
       width="4236"
       x="-80"
       y="-80" />
  </g>
  <g
     transform="matrix(0.1,0,0,-0.1,0,2672)"
     fill="#000000"
     stroke="none"
     id="g184"
     inkscape:groupmode="layer"
     inkscape:label="segs">
    <g
       id="g1751"
       style="fill:#000000;fill-opacity:0.847059">
      <desc
         id="desc1807">h1o16</desc>
      <title
         id="title1805">5.0.0</title>
      <path
         d="m 14938,24677 c -33,-14 -106,-76 -165,-137 -76,-79 -100,-205 -131,-693 -11,-170 -23,-187 -144,-202 -30,-4 -59,-16 -78,-32 l -30,-25 2,-167 3,-166 h 109 109 l 12,57 c 13,67 34,94 84,108 20,6 168,10 339,10 326,0 351,-3 381,-52 7,-12 16,-45 20,-73 l 6,-50 h 100 100 v 165 c 0,193 -4,204 -69,213 -25,4 -62,13 -81,21 -64,27 -65,32 -65,519 0,288 -4,445 -11,465 -8,24 -20,34 -47,42 -53,14 -410,12 -444,-3 z m 231,-231 c 49,-26 51,-41 51,-401 v -334 l -24,-28 c -23,-27 -28,-28 -129,-31 -117,-4 -170,11 -181,51 -16,61 11,438 41,577 26,121 41,137 153,174 29,9 61,6 89,-8 z"
         id="path6"
         style="fill:#000000;fill-opacity:0.847059" />
      <path
         d="m 16089,24667 -34,-23 v -694 -695 h 100 100 l 5,567 5,566 31,39 31,38 264,3 c 170,1 273,-1 289,-8 14,-6 34,-23 45,-38 19,-26 20,-47 25,-597 l 5,-570 88,-3 c 57,-2 94,1 103,9 12,10 14,121 14,696 v 684 l -26,24 -27,25 h -492 -492 z"
         id="path8"
         style="fill:#000000;fill-opacity:0.847059" />
    </g>
    <g
       id="g1747"
       style="fill:#000000;fill-opacity:0.847059">
      <desc
         id="desc1803">h1o26</desc>
      <title
         id="title1801">5.1.0</title>
      <path
         d="m 11554,24604 c -114.176,-59.505 -155.633,-83.746 -313,-194 -250.639,-185.721 -427.002,-474.294 -516,-705 -21,-54 -42,-85 -91,-137 -38,-39 -64,-75 -64,-87 -31.754,-83.199 -45.45,-164.807 -48,-226 -5,-148 15,-275 58,-360 32,-65 125,-185 144,-185 123.085,-43.469 216.754,-143.698 276,-208 137,-147 165,-170 328,-262 122,-69 204,-139 227,-195 51,-121 -32,-248 -179,-276 -69,-12 -242,-93 -328,-152 -88,-60 -283,-283 -336,-382 -40,-77 -92,-195 -92,-210 0,-13 23,-15 156,-15 h 155 l 15,38 c 8,20 21,48 28,62 20,36 93,79 148,86 40,6 53,3 83,-17 36,-25 50,-53 61,-126 l 7,-43 h 492 493 l 17,53 c 30,91 105,147 176,132 42,-9 103,-66 136,-126 l 26,-49 h 185 184 l -6,28 c -10,42 -91,202 -133,262 -49,70 -181,204 -258,261 -118.357,89.544 -235.887,135.387 -369,185 -58,20 -127,80 -151,131 -26,53 -17,135 19,172 15,15 84,55 154,87 181,83 296,165 472,335 110,105 178,155 253,186 67,27 79,40 153,162 72,120 96,215 98,391 4.412,147.671 -60.984,437.256 -165,490 -50,26 -92,77 -134,165 -176.86,344.177 -555.276,552.634 -829,721 -103,69 -99,68 -261,70 -130.795,4.725 -164.607,-4.942 -271,-62 z m 130,-505 c 50,-23 58,-76 54,-388 l -3,-279 -24,-26 -24,-26 -266,1 c -307,0 -340,6 -373,70 -16,31 -17,42 -6,95 22,113 85,223 195,340 74,79 193,150 333,200 77,27 81,27 114,13 z m 517,-31 c 30,-12 66,-30 80,-39 14,-10 38,-21 55,-25 55,-13 151,-96 218,-189 94,-130 168,-323 145,-382 -18,-48 -54,-53 -374,-53 h -297 l -29,29 -29,29 v 282 c 0,242 2,285 17,313 9,18 23,37 32,44 26,20 122,15 182,-9 z m -523,-909 c 61,-21 62,-26 62,-374 v -316 l -27,-26 c -24,-22 -34,-24 -74,-20 -54,7 -168,50 -224,86 -121,77 -260,210 -294,281 -42.45,53.9 -55.682,125.126 -81,181 -24,55 -25,100 -2,128 9,12 46,33 82,46 62,23 77,24 296,24 140,1 243,-3 262,-10 z m 983,-22 c 60,-40 52,-105 -36,-292 -41,-88 -161,-226 -244,-282 -107,-71 -224,-124 -290,-130 -57,-5 -61,-4 -90,25 l -31,30 v 297 c 0,190 4,303 11,316 5,11 25,29 42,39 30,19 52,20 318,20 281,0 287,0 320,-23 z"
         id="path10"
         style="fill:#000000;fill-opacity:0.847059"
         sodipodi:nodetypes="ccccccccccccccssccccccccccccccccscccccccccccccccccccccccccsccccscccsccscsccccccccccccccccsccsc" />
    </g>
    <g
       id="g1744"
       style="fill:#000000;fill-opacity:0.847059">
      <desc
         id="desc1799">h2o46</desc>
      <title
         id="title1797">5.3.1</title>
      <path
         d="m 3508,24649 c -468.4058,-164.969 -773.8333,-479.797 -950,-912 -23,-60 -39,-85 -70,-110 -102,-82 -156,-274 -128,-459 32,-225 124,-378 265,-443 60,-27 83,-46 160,-131 160,-176 216,-221 419,-335 102,-57 136,-101 136,-176 0,-47 -4,-58 -34,-91 l -34,-37 -114,2 c -62,1 -189,3 -283,5 -304.1234,-32.387 -974.4369,-281.281 -1084,-593 -6,-24 -17,-61 -26,-83 -30,-71 9,-142 94,-171 33,-11 68,-35 114,-79 72,-69 119,-92 173,-83 58,10 102,45 160,128 62,88 95,119 165,155 60,30 81,61 90,133 7,61 37,147 69,198 34,56 116,99 275,146 60,17 78,18 124,9 161,-34 190,-164 101,-447 -38.8665,-113.495 -45.6538,-201.133 -53,-315 h 597 596 v 73 c 0,88 -33,387 -53,482 -20,94 -85,249 -130,310 -69,95 -90,136 -91,179 -2,85 54,155 161,204 157.5442,82.986 288.9252,190.443 404,309 98,101 190,170 249,188 83,25 176,163 240,358 48.214,192.361 1.78,408.466 -47,563 -26,86 -31,91 -132,157 -21,13 -48,47 -70,88 -218.0677,315.312 -555.9497,630.977 -866,758 -78,29 -245,37 -427,20 z m 543,-537 c 144.906,-79.17 288.066,-195.582 363,-311 63,-97 116,-220 116,-269 0,-37 -26,-71 -66,-88 -49,-21 -550,-20 -600,1 -62,26 -66,50 -62,359 2,194 7,277 16,293 34,60 122,66 233,15 z m -548,17 c 45,-20 50,-48 59,-329 4,-146 5,-278 2,-293 -12,-59 -29,-62 -354,-65 -290,-4 -296,-3 -323,18 -35,28 -35,60 3,173 59,178 200,338 384,434 129,68 184,83 229,62 z m 17,-932 c 14,-7 33,-28 42,-47 16,-31 18,-69 18,-318 0,-303 -5,-338 -51,-362 -48,-26 -178,12 -297,87 -74,47 -215,174 -251,227 -16,23 -41,71 -55,106 -15,36 -38,89 -53,118 -43,87 -20,151 61,174 94,27 540,38 586,15 z m 965,-2 c 86,-35 66,-156 -60,-356 -67,-107 -178,-217 -274,-271 -130,-73 -175,-91 -242,-96 -62,-4 -67,-3 -87,23 -21,27 -22,35 -22,331 v 304 l 29,32 c 26,29 35,32 107,38 44,4 177,8 297,8 170,2 225,-1 252,-13 z"
         id="path12"
         style="fill:#000000;fill-opacity:0.847059"
         sodipodi:nodetypes="cccccccscccccccccccccccccccsccccccccccccccscccccccccccccscsccccccscccccsccccc" />
    </g>
    <g
       id="g1741"
       style="fill:#000000;fill-opacity:0.847059">
      <desc
         id="desc1795">h1o36</desc>
      <title
         id="title1793">5.2.0</title>
      <path
         d="m 8320,24590 c -85,-43 -225,-136 -272,-180 -20,-19 -53,-48 -73,-65 -19,-16 -64,-64 -99,-105 -181,-213 -191,-227 -256,-380 -25.9239,-58.572 -136.932,-285.768 -184,-311 -17,-8 -31,-31 -50,-83 -23,-62 -26,-87 -26,-191 0,-135 25,-275 59,-344 25,-47 107,-162 125,-173 6,-4 41,-19 78,-34 63,-24 78,-36 200,-166 163,-172 216,-214 388,-307 190,-103 230,-146 230,-251 0,-109 -30,-135 -357,-299 -54,-27 -119,-71 -159,-106 -38,-33 -84,-72 -104,-86 -59,-43 -227,-215 -245,-251 -10,-18 -26,-42 -36,-53 -16,-18 -99,-184 -99,-199 0,-3 89,-6 199,-6 h 198 l 7,49 c 18,139 101,231 205,231 44,0 57,-4 81,-28 34,-34 60,-116 60,-189 v -53 h 510 510 v 51 c 0,83 46,154 118,185 112,46 199,-21 232,-178 l 11,-58 h 180 c 206,0 192,-9 163,103 -17,68 -39,107 -132,246 -77,115 -101,143 -175,201 -159,126 -195,147 -372,220 -208,87 -238,108 -265,187 -15,41 1,98 38,139 15,18 90,68 165,112 163,95 202,126 367,288 108,106 138,129 218,170 153,77 225,176 278,379 20.022,214.822 59.135,553.935 -126,672 -41,26 -92,77 -111,114 -43,82 -66,119 -103,167 -22,30 -53,73 -69,95 -93,140 -155,198 -381,355 -73,50 -193,110 -296,147 -69,25 -89,27 -255,30 -124.9432,1.935 -268.9339,9.599 -375,-45 z m 241,-471 29,-31 v -295 c 0,-320 -4,-343 -56,-363 -14,-6 -160,-10 -330,-10 h -306 l -29,29 c -33,33 -36,59 -14,122 49,142 168,327 252,394 63,50 244,154 292,170 25,7 66,14 89,14 37,1 49,-4 73,-30 z m 526,-25 c 142,-75 181,-100 228,-148 75,-76 150,-186 187,-276 58,-141 62,-199 15,-234 -27,-20 -42,-21 -317,-24 -322,-3 -345,0 -375,58 -15,29 -16,68 -13,324 4,359 0,349 131,355 29,1 64,-13 144,-55 z m -502,-942 3,-306 c 3,-334 -1,-360 -54,-385 -34,-15 -49,-14 -117,9 -120,40 -212,97 -322,199 -123,115 -156,166 -211,326 -30,87 -30,103 -1,146 35,52 67,57 374,58 l 272,1 c 18.6667,-16 37.3333,-32 56,-48 z m 886,38 c 53,-15 74,-43 73,-99 -3,-65 -32,-160 -63,-201 -15,-19 -43,-60 -63,-90 -54,-83 -185,-203 -265,-243 -124,-62 -208,-90 -246,-83 -41,8 -59,26 -81,87 -15,39 -17,79 -14,296 4,358 -12,343 368,343 140,0 271,-5 291,-10 z"
         id="path14"
         style="fill:#000000;fill-opacity:0.847059"
         sodipodi:nodetypes="cccccccscccccscccccssccssscccscccsccccccccccccccccccccscscsccccccccccscccccccccccccccccscccsc" />
    </g>
    <g
       id="g1738"
       style="fill:#000000;fill-opacity:0.847059">
      <desc
         id="desc1791">h2o27</desc>
      <title
         id="title1789">6.1.1</title>
      <path
         d="m 20868,24513 c -21,-23 -24,-33 -17,-56 11,-39 35,-71 179,-234 l 73,-83 h 490 c 473,0 492,1 533,20 47,23 204,155 204,172 0,17 -137,195 -156,202 -8,3 -300,6 -648,6 h -632 z"
         id="path16"
         style="fill:#000000;fill-opacity:0.847059" />
    </g>
    <g
       id="g1735"
       style="fill:#000000;fill-opacity:0.847059">
      <desc
         id="desc1787">h2os2</desc>
      <title
         id="title1785">8.1.1</title>
      <path
         d="m 29308,24513 c -21,-23 -24,-33 -17,-56 11,-39 35,-71 179,-234 l 73,-83 h 490 c 473,0 492,1 533,20 47,23 204,155 204,172 0,17 -137,195 -156,202 -8,3 -300,6 -648,6 h -632 z"
         id="path18"
         style="fill:#000000;fill-opacity:0.847059" />
    </g>
    <g
       id="g1732"
       style="fill:#000000;fill-opacity:0.847059">
      <desc
         id="desc1783">h2o28</desc>
      <title
         id="title1781">7.1.1</title>
      <path
         d="m 25448,24503 c -21,-23 -24,-33 -17,-56 11,-39 35,-71 179,-234 l 73,-83 h 490 c 473,0 492,1 533,20 47,23 204,155 204,172 0,17 -137,195 -156,202 -8,3 -300,6 -648,6 h -632 z"
         id="path20"
         style="fill:#000000;fill-opacity:0.847059" />
    </g>
    <g
       id="g1729"
       style="fill:#000000;fill-opacity:0.847059">
      <desc
         id="desc1779">h2o41</desc>
      <title
         id="title1777">0.3.1</title>
      <path
         d="m 36656,24123 c -269.416,-261.395 -345.493,-649.85 -349,-1008 -30.35,-147.259 84.885,-355.114 60,-486 -9,-35 -46,-88 -79,-112 -34,-26 -116,-33 -191,-17 -129,26 -289,141 -368,263 -21,32 -52,100 -69,152 -44,131 -141,268 -234,330 -87,57 -115,65 -234,65 -173,0 -286,-44 -392,-154 -103,-106 -144,-194 -105,-226 18,-15 56,-6 165,40 96,41 241,60 291,40 72,-30 132,-103 163,-198 49.677,-239.901 -2.491,-692.168 -271,-782 -227.594,-70.794 -303.128,104.606 -452,157 -62,15 -111,-41 -111,-129 9.449,-288.759 245.237,-420.264 499.21,-421.483 294.011,78.196 536.7,221.665 935.79,367.483 138,37 548,66 665,46 194,-32 278,-71 517,-240 174,-124 272,-327 243,-504 -25,-153 -152,-312 -285,-356 -126.541,-37.761 -253.442,-11.017 -342,50 -65,45 -91,97 -106,213 -14,114 2,184 73,301 62,103 65,137 13,165 -34,18 -103,13 -163,-12 -416.705,-164.458 -345.54,-690.85 -177,-883 47,-51 71,-68 128,-89 224,-86 266,-208 134,-395 -172.629,-325.154 -8.712,-1105.901 611,-1080 39,13 59,48 48,84 -202.899,287.971 -337.595,565.232 -82,863 159.512,194.859 418.888,66.855 428,-127 23.542,-152.138 190.416,-511.863 317,-520 86,0 127,55 127,170 0,78 -5,98 -79,273 -69,166 -118,513 -82,583 35,68 158,144 233,144 292.433,-93.177 330.953,-564.395 258,-813 -33.967,-98.462 -30.668,-274.756 77,-277 216.641,102.781 270.331,410.763 272,543 1,89 -2,197 -7,239 -8,73 -7,80 19,133 60,123 205,151 287,56 147.98,-248.09 144.444,-620.787 -13,-873 -42,-59 -32,-172 17,-205 49.011,-20.181 92.062,-0.919 141,26 376.517,438.226 430.22,1013.516 72,1452 -65,76 -84,122 -76,186 39.938,142.458 182.053,111.439 255,79 153,-68 222,-88 284,-83 104.883,17.608 156.692,58.081 139,142 -10,43 -23,64 -64,107 -221.777,248.991 -586.03,299.229 -872,203 -95,-35 -104,-36 -185,-30 -141,11 -237,70 -286,173 -28.479,78.424 -38.534,162.881 1,242 276,357.417 746.097,775.759 758.374,1220.625 C 38971.883,24549.888 37469.529,24750.999 36656,24123 Z m 622,-252 c 239.153,-137.041 316.742,-465.388 186,-733 -23,-44 -46,-50 -150,-43 -89,7 -97,6 -148,-19 -44,-21 -57,-34 -70,-66 -20,-50 -20,-64 1,-231 16,-129 16,-138 0,-163 -23,-34 -75,-36 -111,-3 -242.913,253.425 -308.825,514.992 -266,860 37.658,254.814 311.531,516.281 558,398 z m 1192,-333 c 202.841,-375.73 -87.865,-803.32 -385,-1046 -115,-91 -318,-154 -395,-122 -36,15 -50,37 -50,81 0,33 19,56 132,151 80,68 120,141 122,224 1,60 -1,66 -29,89 -16,13 -43,27 -60,31 -46,10 -103,42 -115,63 -19,37 -11,109 24,199 81.436,226.008 160.974,404.873 416,467 139.497,32.769 254.093,-22.107 340,-137 z"
         id="path22"
         style="fill:#000000;fill-opacity:0.847059"
         sodipodi:nodetypes="ccccccccscccccccccccccccccccccccccccscccccccccccccccccccccccccccccccccccccscccccccc" />
    </g>
    <g
       id="g1726"
       style="fill:#000000;fill-opacity:0.847059">
      <desc
         id="desc1775">h1o27</desc>
      <title
         id="title1773">6.1.0</title>
      <path
         d="m 20642,24308 c -7,-7 -12,-36 -12,-66 0,-29 -4,-83 -9,-120 -5,-37 -17,-121 -26,-187 -9,-66 -23,-160 -31,-210 -28,-188 -43,-315 -54,-460 -6,-82 -15,-172 -20,-200 -18,-99 -22,-162 -11,-169 6,-4 40,18 75,48 88.056,64.122 168.025,129.129 256,188 96,62 107,79 119,193 6,55 16,136 21,180 12,92 40,339 47,406 4,40 1,51 -24,80 -16,19 -44,54 -61,79 -17,25 -44,59 -59,76 -15,17 -50,57 -78,89 -45,51 -89,85 -113,85 -4,0 -13,-5 -20,-12 z"
         id="path24"
         style="fill:#000000;fill-opacity:0.847059"
         sodipodi:nodetypes="ssssccccccccccsscss" />
    </g>
    <g
       id="g1723"
       style="fill:#000000;fill-opacity:0.847059">
      <desc
         id="desc1771">h1os2</desc>
      <title
         id="title1769">8.1.0</title>
      <path
         d="m 29082,24308 c -7,-7 -12,-36 -12,-66 0,-29 -4,-83 -9,-120 -5,-37 -17,-121 -26,-187 -9,-66 -23,-160 -31,-210 -28,-188 -43,-315 -54,-460 -6,-82 -15,-172 -20,-200 -18,-99 -22,-162 -11,-169 6,-4 40,18 75,48 88.056,64.122 168.025,129.129 256,188 96,62 107,79 119,193 6,55 16,136 21,180 12,92 40,339 47,406 4,40 1,51 -24,80 -16,19 -44,54 -61,79 -17,25 -44,59 -59,76 -15,17 -50,57 -78,89 -45,51 -89,85 -113,85 -4,0 -13,-5 -20,-12 z"
         id="path26"
         style="fill:#000000;fill-opacity:0.847059"
         sodipodi:nodetypes="ssssccccccccccsscss" />
    </g>
    <g
       id="g1720"
       style="fill:#000000;fill-opacity:0.847059">
      <desc
         id="desc1767">h1o28</desc>
      <title
         id="title1765">7.1.0</title>
      <path
         d="m 25222,24298 c -7,-7 -12,-36 -12,-66 0,-29 -4,-83 -9,-120 -5,-37 -17,-121 -26,-187 -9,-66 -23,-160 -31,-210 -28,-188 -43,-315 -54,-460 -6,-82 -15,-172 -20,-200 -18,-99 -22,-162 -11,-169 6,-4 40,18 75,48 88.056,64.122 168.025,129.129 256,188 96,62 107,79 119,193 6,55 16,136 21,180 12,92 40,339 47,406 4,40 1,51 -24,80 -16,19 -44,54 -61,79 -17,25 -44,59 -59,76 -15,17 -50,57 -78,89 -45,51 -89,85 -113,85 -4,0 -13,-5 -20,-12 z"
         id="path30"
         style="fill:#000000;fill-opacity:0.847059"
         sodipodi:nodetypes="ssssccccccccccsscss" />
    </g>
    <g
       id="g1717"
       style="fill:#000000;fill-opacity:0.847059">
      <desc
         id="desc1763">h2o17</desc>
      <title
         id="title1761">6.0.1</title>
      <path
         d="m 22355,24092 c -89,-71 -113,-95 -123,-127 -13,-39 -37,-206 -67,-470 -8,-71 -22,-186 -30,-255 -23,-194 -21,-228 18,-271 43,-49 158,-137 195,-150 23,-8 37,-7 59,4 70,37 91,71 103,170 5,40 16,126 25,192 33,251 70,554 92,762 l 5,51 -67,74 c -38,40 -75,81 -84,91 -16,16 -23,12 -126,-71 z"
         id="path32"
         style="fill:#000000;fill-opacity:0.847059" />
    </g>
    <g
       id="g1714"
       style="fill:#000000;fill-opacity:0.847059">
      <desc
         id="desc1759">h2os1</desc>
      <title
         id="title1757">8.0.1</title>
      <path
         d="m 30795,24092 c -89,-71 -113,-95 -123,-127 -13,-39 -37,-206 -67,-470 -8,-71 -22,-186 -30,-255 -23,-194 -21,-228 18,-271 43,-49 158,-137 195,-150 23,-8 37,-7 59,4 70,37 91,71 103,170 5,40 16,126 25,192 33,251 70,554 92,762 l 5,51 -67,74 c -38,40 -75,81 -84,91 -16,16 -23,12 -126,-71 z"
         id="path34"
         style="fill:#000000;fill-opacity:0.847059" />
    </g>
    <g
       id="g1711"
       style="fill:#000000;fill-opacity:0.847059">
      <desc
         id="desc1755">h2o18</desc>
      <title
         id="title1753">7.0.1</title>
      <path
         d="m 26935,24082 c -89,-71 -113,-95 -123,-127 -13,-39 -37,-206 -67,-470 -8,-71 -22,-186 -30,-255 -23,-194 -21,-228 18,-271 43,-49 158,-137 195,-150 23,-8 37,-7 59,4 70,37 91,71 103,170 5,40 16,126 25,192 33,251 70,554 92,762 l 5,51 -67,74 c -38,40 -75,81 -84,91 -16,16 -23,12 -126,-71 z"
         id="path36"
         style="fill:#000000;fill-opacity:0.847059" />
    </g>
    <g
       id="g1704"
       style="fill:#000000;fill-opacity:0.847059">
      <desc
         id="desc1708">h2o36</desc>
      <title
         id="title1706">5.2.1</title>
      <path
         d="m 5869,23831 c -161.5009,-57.609 -256.947,-155.371 -323,-296 -4.3988,-193.32 -7.6666,-386.66 -11,-580 -85.9966,-149.932 -190.6613,-297.986 -312,-415 -147.1426,-119.008 -343.5489,-290.005 -518,-339 -73,-21 -109,-45 -133,-88 -30,-54 -22,-105 23,-150 77,-77 242,-47 520,95 123,63 249,165 364,295 160.0376,190.192 293.891,371.406 355,583 29,98 46,128 96,162 61,41 119,21 155,-55 28.9522,-120.212 19,-182.628 19,-318 -68.9677,-166.064 -178.2805,-326.488 -247,-476 -83,-192 -91,-361 -24,-510 54,-120 186,-169 377,-138 301.8517,76.514 407.0031,339.55 456,569 38,181 16,425 -54,587 -21.0651,59.734 -51.7896,118.701 -87,163 -143,175 -154,211 -131,430 10,99 12,168 7,190 -50,201 -297,336 -532,291 z"
         id="path38"
         style="fill:#000000;fill-opacity:0.847059"
         sodipodi:nodetypes="ccccccsccccccccccccccc" />
    </g>
    <g
       id="g1641"
       style="fill:#000000;fill-opacity:0.847059">
      <desc
         id="desc1701">h1o41</desc>
      <title
         id="title1699">0.3.0</title>
      <path
         d="m 33568,23205 c -350,-46 -660.46,-86 -666.46,-90 -50.028,-288.937 -102.214,-588.179 -153.54,-882 -27,-29 -81,-30 -162,-3 -244.129,81.525 -458.111,-208.693 -367,-387 180.67,-276.513 593.957,-170.763 710.664,38.413 L 33095,22792 c 25,138 44,148 340,188 143.38,13.775 506.932,105.7 561,24 19,-28 20,-15 -27,-349 -28,-192 -34,-217 -64,-242 -31,-27 -53,-29 -103,-7 -177.404,43.465 -317.148,-27.141 -367,-183 -41.929,-218.449 122.726,-362.621 297,-362.076 171.687,17.215 345.719,123.223 382,283.076 40,184 48,230 62,351 7,72 22,186 33,255 28,178 54,465 47,505 -6,28 -11,35 -29,34 -12,-1 -309,-38 -659,-84 z"
         id="path42"
         style="fill:#000000;fill-opacity:0.847059"
         sodipodi:nodetypes="sccccccccccccccccccs" />
    </g>
    <g
       id="g1638"
       style="fill:#000000;fill-opacity:0.847059">
      <desc
         id="desc1697">h2o37</desc>
      <title
         id="title1695">6.2.1</title>
      <path
         d="m 20998,22855 c -34.135,-16.336 -289.872,-166.886 -298,-209 0,-6 49,-51 109,-99 l 109,-87 h 496 497 l 47,24 c 76,39 185,119 201,147 23,41 7,72 -67,134 -128,106 -91,100 -607,102 -359,2 -457,-1 -487,-12 z"
         id="path44"
         style="fill:#000000;fill-opacity:0.847059"
         sodipodi:nodetypes="ccccccccccc" />
    </g>
    <g
       id="g1635"
       style="fill:#000000;fill-opacity:0.847059">
      <desc
         id="desc1693">h2os3</desc>
      <title
         id="title1691">8.2.1</title>
      <path
         d="m 29438,22855 c -34.135,-16.336 -289.872,-166.886 -298,-209 0,-6 49,-51 109,-99 l 109,-87 h 496 497 l 47,24 c 76,39 185,119 201,147 23,41 7,72 -67,134 -128,106 -91,100 -607,102 -359,2 -457,-1 -487,-12 z"
         id="path46"
         style="fill:#000000;fill-opacity:0.847059"
         sodipodi:nodetypes="ccccccccccc" />
    </g>
    <g
       id="g1632"
       style="fill:#000000;fill-opacity:0.847059">
      <desc
         id="desc1689">h2o38</desc>
      <title
         id="title1687">7.2.1</title>
      <path
         d="m 25578,22845 c -34.135,-16.336 -289.872,-166.886 -298,-209 0,-6 49,-51 109,-99 l 109,-87 h 496 497 l 47,24 c 76,39 185,119 201,147 23,41 7,72 -67,134 -128,106 -91,100 -607,102 -359,2 -457,-1 -487,-12 z"
         id="path48"
         style="fill:#000000;fill-opacity:0.847059"
         sodipodi:nodetypes="ccccccccccc" />
    </g>
    <g
       id="g1681"
       style="fill:#000000;fill-opacity:0.847059">
      <desc
         id="desc1685">h2o16</desc>
      <title
         id="title1683">5.0.1</title>
      <path
         d="m 18452,24298 c -5,-7 -12,-38 -15,-68 -4,-30 -11,-82 -17,-115 -15,-89 -29,-187 -44,-310 -15,-118 -39,-307 -57,-445 -6,-47 -17,-125 -24,-175 -27,-174 -29,-295 -5,-295 4,0 30,18 58,40 28,22 77,60 110,83 175,123 222,159 231,174 5,10 12,50 16,88 4,39 15,122 25,185 10,63 21,158 25,210 3,52 13,141 21,198 l 16,103 -69,77 c -38,42 -88,102 -113,132 -98,123 -133,149 -158,118 z"
         id="path28"
         style="fill:#000000;fill-opacity:0.847059" />
      <path
         d="m 18288,22524 c -50,-27 -71,-78 -89,-214 -10,-69 -26,-188 -37,-265 -11,-77 -28,-212 -37,-300 -9,-88 -28,-241 -42,-340 -14,-99 -29,-214 -34,-255 -5,-41 -11,-87 -15,-102 -5,-23 3,-36 46,-82 29,-31 61,-58 72,-61 30,-10 93,29 189,117 83,76 100,100 113,158 11,52 35,239 46,350 26,281 41,423 55,525 9,61 18,146 21,190 l 6,80 -81,73 c -90,81 -167,143 -179,141 -4,-1 -19,-7 -34,-15 z"
         id="path50"
         style="fill:#000000;fill-opacity:0.847059" />
    </g>
    <g
       id="g1629"
       style="fill:#000000;fill-opacity:0.847059">
      <desc
         id="desc1677">h1o37</desc>
      <title
         id="title1675">6.2.0</title>
      <path
         d="m 20488,22501 c -20,-14 -44,-41 -53,-60 -16,-35 -19,-51 -54,-336 -39,-311 -53,-419 -72,-555 -10,-74 -19,-147 -19,-162 0,-36 146,-218 176,-218 15,0 134,110 174,160 28,36 34,56 55,183 12,78 26,180 30,227 4,47 20,177 36,290 16,113 29,219 29,236 0,34 -40,76 -191,200 l -74,61 z"
         id="path52"
         style="fill:#000000;fill-opacity:0.847059" />
    </g>
    <g
       id="g1626"
       style="fill:#000000;fill-opacity:0.847059">
      <desc
         id="desc1673">h1os3</desc>
      <title
         id="title1671">8.2.0</title>
      <path
         d="m 28928,22501 c -20,-14 -44,-41 -53,-60 -16,-35 -19,-51 -54,-336 -39,-311 -53,-419 -72,-555 -10,-74 -19,-147 -19,-162 0,-36 146,-218 176,-218 15,0 134,110 174,160 28,36 34,56 55,183 12,78 26,180 30,227 4,47 20,177 36,290 16,113 29,219 29,236 0,34 -40,76 -191,200 l -74,61 z"
         id="path54"
         style="fill:#000000;fill-opacity:0.847059" />
    </g>
    <g
       id="g1623"
       style="fill:#000000;fill-opacity:0.847059">
      <desc
         id="desc1669">h1o38</desc>
      <title
         id="title1667">7.2.0</title>
      <path
         d="m 25068,22491 c -20,-14 -44,-41 -53,-60 -16,-35 -19,-51 -54,-336 -39,-311 -53,-419 -72,-555 -10,-74 -19,-147 -19,-162 0,-36 146,-218 176,-218 15,0 134,110 174,160 28,36 34,56 55,183 12,78 26,180 30,227 4,47 20,177 36,290 16,113 29,219 29,236 0,34 -40,76 -191,200 l -74,61 z"
         id="path56"
         style="fill:#000000;fill-opacity:0.847059" />
    </g>
    <g
       id="g1620"
       style="fill:#000000;fill-opacity:0.847059">
      <desc
         id="desc1665">h2o47</desc>
      <title
         id="title1663">6.3.1</title>
      <path
         d="m 22290,22491 c -77,-24 -254,-173 -264,-223 -14,-74 -27,-172 -41,-318 -9,-91 -25,-221 -35,-290 -11,-69 -25,-168 -31,-220 -6,-52 -13,-111 -16,-131 -4,-30 -1,-39 22,-58 15,-11 37,-21 49,-21 27,0 126,79 259,206 l 105,101 6,64 c 4,35 12,89 17,119 6,30 16,111 24,180 15,129 28,233 45,355 5,39 9,94 10,124 0,47 -4,57 -34,87 -35,35 -63,41 -116,25 z"
         id="path58"
         style="fill:#000000;fill-opacity:0.847059" />
    </g>
    <g
       id="g1617"
       style="fill:#000000;fill-opacity:0.847059">
      <desc
         id="desc1661">h2os4</desc>
      <title
         id="title1659">8.3.1</title>
      <path
         d="m 30730,22491 c -77,-24 -254,-173 -264,-223 -14,-74 -27,-172 -41,-318 -9,-91 -25,-221 -35,-290 -11,-69 -25,-168 -31,-220 -6,-52 -13,-111 -16,-131 -4,-30 -1,-39 22,-58 15,-11 37,-21 49,-21 27,0 126,79 259,206 l 105,101 6,64 c 4,35 12,89 17,119 6,30 16,111 24,180 15,129 28,233 45,355 5,39 9,94 10,124 0,47 -4,57 -34,87 -35,35 -63,41 -116,25 z"
         id="path60"
         style="fill:#000000;fill-opacity:0.847059" />
    </g>
    <g
       id="g1614"
       style="fill:#000000;fill-opacity:0.847059">
      <desc
         id="desc1657">h2o48</desc>
      <title
         id="title1655">7.3.1</title>
      <path
         d="m 26870,22481 c -77,-24 -254,-173 -264,-223 -14,-74 -27,-172 -41,-318 -9,-91 -25,-221 -35,-290 -11,-69 -25,-168 -31,-220 -6,-52 -13,-111 -16,-131 -4,-30 -1,-39 22,-58 15,-11 37,-21 49,-21 27,0 126,79 259,206 l 105,101 6,64 c 4,35 12,89 17,119 6,30 16,111 24,180 15,129 28,233 45,355 5,39 9,94 10,124 0,47 -4,57 -34,87 -35,35 -63,41 -116,25 z"
         id="path62"
         style="fill:#000000;fill-opacity:0.847059" />
    </g>
    <g
       id="g1611"
       style="fill:#000000;fill-opacity:0.847059">
      <desc
         id="desc1653">h1o46</desc>
      <title
         id="title1651">5.3.0</title>
      <path
         d="m 14519,22297 -34,-23 v -694 -695 h 100 100 l 5,567 5,566 31,39 31,38 264,3 c 170,1 273,-1 289,-8 14,-6 34,-23 45,-38 19,-26 20,-47 25,-597 l 5,-570 88,-3 c 57,-2 94,1 103,9 12,10 14,121 14,696 v 684 l -26,24 -27,25 h -492 -492 z"
         id="path64"
         style="fill:#000000;fill-opacity:0.847059" />
      <path
         d="m 16079,22297 -34,-23 v -694 -695 h 100 100 l 5,567 5,566 31,39 31,38 264,3 c 170,1 273,-1 289,-8 14,-6 34,-23 45,-38 19,-26 20,-47 25,-597 l 5,-570 88,-3 c 57,-2 94,1 103,9 12,10 14,121 14,696 v 684 l -26,24 -27,25 h -492 -492 z"
         id="path66"
         style="fill:#000000;fill-opacity:0.847059" />
    </g>
    <g
       id="g1645"
       style="fill:#000000;fill-opacity:0.847059">
      <desc
         id="desc1649">h1o17</desc>
      <title
         id="title1647">6.0.0</title>
      <path
         d="m 23247,23553 -41,-348 321,-7 38,357 z"
         id="path40"
         style="fill:#000000;fill-opacity:0.847059"
         sodipodi:nodetypes="ccccc" />
      <path
         d="m 23077,21918 -26,-358 c 57.946,3.312 309.519,5.596 309.519,5.596 12,52 41.481,345.404 35.481,359.404 z"
         id="path68"
         style="fill:#000000;fill-opacity:0.847059"
         sodipodi:nodetypes="ccccc" />
    </g>
    <g
       id="g1603"
       style="fill:#000000;fill-opacity:0.847059">
      <desc
         id="desc1607">h2o26</desc>
      <title
         id="title1605">5.1.1</title>
      <path
         d="m 4670,21562 c -21,-12 -38,-31 -46,-53 -24,-66 -18,-98 44,-264 29.18,-92.013 74.9791,-179.683 92,-275 h 170 c 94,0 170,4 170,8 0,17 -68,200 -108,289 -99,222 -141,281 -216,301 -60,16 -65,15 -106,-6 z"
         id="path70"
         style="fill:#000000;fill-opacity:0.847059"
         sodipodi:nodetypes="csccsscsc" />
    </g>
    <g
       id="g1592"
       style="fill:#000000;fill-opacity:0.847059">
      <desc
         id="desc1596">h1o47</desc>
      <title
         id="title1594">6.3.0</title>
      <path
         d="m 20764,21137 c -44,-34 -99,-79 -123,-99 l -43,-37 33,-42 c 19,-23 54,-64 78,-91 l 44,-49 391,3 391,3 55,41 c 75,56 167,155 176,188 7,31 -4,62 -42,112 l -26,34 h -427 -426 z"
         id="path72"
         style="fill:#000000;fill-opacity:0.847059" />
    </g>
    <g
       id="g1585"
       style="fill:#000000;fill-opacity:0.847059">
      <desc
         id="desc1589">h1os4</desc>
      <title
         id="title1587">8.3.0</title>
      <path
         d="m 29204,21137 c -44,-34 -99,-79 -123,-99 l -43,-37 33,-42 c 19,-23 54,-64 78,-91 l 44,-49 391,3 391,3 55,41 c 75,56 167,155 176,188 7,31 -4,62 -42,112 l -26,34 h -427 -426 z"
         id="path74"
         style="fill:#000000;fill-opacity:0.847059" />
    </g>
    <g
       id="g1578"
       style="fill:#000000;fill-opacity:0.847059">
      <desc
         id="desc1582">h1o48</desc>
      <title
         id="title1580">7.3.0</title>
      <path
         d="m 25344,21127 c -44,-34 -99,-79 -123,-99 l -43,-37 33,-42 c 19,-23 54,-64 78,-91 l 44,-49 391,3 391,3 55,41 c 75,56 167,155 176,188 7,31 -4,62 -42,112 l -26,34 h -427 -426 z"
         id="path76"
         style="fill:#000000;fill-opacity:0.847059" />
    </g>
    <g
       id="g1571"
       style="fill:#000000;fill-opacity:0.847059">
      <desc
         id="desc1575">h1os1</desc>
      <title
         id="title1573">8.0.0</title>
      <path
         d="m 31980,25104 1524,-1025 c 72,-31 96,-8 146,146 42,129 84,195 125,195 29,0 134,-35 209,-70 92,-43 188,-83 321,-135 66,-25 136,-53 156,-62 41,-17 79,-6 79,24 0,19 -112,125 -385,362 -115,100 -259,227 -320,281 -114,102 -210,180 -221,180 -102.131,-32.044 -122.807,-90.726 -148,-149 -76,-173 -84,-185 -134,-189 l -1344,668 c -12.607,-78.462 -8,-140.455 -8,-226 z"
         id="path4"
         style="fill:#000000;fill-opacity:0.847059"
         sodipodi:nodetypes="cccscccsccccccc" />
      <path
         d="m 32900,20881 c -512.015,-218.464 -1026.251,-432.472 -1490,-632 0.25,-38.458 -3.557,-266.632 13,-274 25,-10 239,46 512,135 348,114 532,170 557,170 36,0 76,-29 87,-62 23.513,-94.796 9.153,-182.569 32,-280 416.104,262.695 822.942,534.293 1309,850 48,43 52,51 46,76 l -7,29 c -96.431,-1.512 -193.749,-38.141 -274,-63 -94.956,-30.405 -526.986,-199.084 -580,-126 -29.995,59.73 -22.551,226.612 -84,225 -9,0 -63,-22 -121,-48 z"
         id="path78"
         style="fill:#000000;fill-opacity:0.847059"
         sodipodi:nodetypes="ccccsccccccccc" />
    </g>
    <g
       id="g1563"
       style="fill:#000000;fill-opacity:0.847059">
      <desc
         id="desc1567">h1o18</desc>
      <title
         id="title1565">7.0.0</title>
      <path
         d="m 25210,19540 c -280.686,-31.803 -692.631,-162.069 -920,-328 -63,-47 -222,-203 -239,-235 -12,-23 -12,-29 3,-51 42.844,-53.224 99.212,-81.706 147,-132 94.094,-111.137 193.522,-334.248 202,-459 12,-158 53,-260 146,-358 80,-85 205,-146 365,-176 180,-34 220,-73 236,-233 5,-46 13,-101 19,-123 26,-99 -1,-180 -74,-223 -33,-19 -52,-22 -106,-20 -57,3 -74,8 -117,39 -28,19 -88,78 -133,130 -100,114 -151,169 -335,364 -79,83 -162,174 -186,204 -112,140 -160,207 -213,298 -141,241 -198,315 -405,526 -166.753,179.824 -364.63,320.579 -530,407 -296.844,158.541 -663.529,254.087 -969,220 -542.218,-25.389 -1047.783,-244.571 -1465,-484 -444.533,-311.704 -821.286,-688.507 -1260,-993 -592.457,-323.018 -1310.592,-598.916 -1846,-683 -410.285,-38.908 -776.337,-29.744 -1230,-95 -119.923,-27.426 -351.579,-67.277 -425,-135 -58.65,-67.665 -57.116,-146.685 -11,-197 56,-62 223,-146 353,-177 355.35,-50.811 699.003,-114.857 1026,-230 218,-77 558,-246 707,-352 209.158,-148.271 450.914,-335.744 691,-289 247.834,68.13 521.409,258.856 657,436 48,66 62,79 98,89 53,15 101,7 179,-29 121,-57 229,-76 387,-68 158,8 232,35 410,154 108,71 174,138 232,234 108,176 113,179 389,184 235,4 261,9 397,73 80,38 117,60 235,143 261.8,175.689 511.671,252.752 778,265 169,7 243,-5 325,-52 49,-29 71,-58 83,-114 24,-105 -33,-175 -198,-243 -608.373,-221.326 -1225.831,-486.903 -1748,-737 -227.24,-128.312 -477.629,-255.423 -655,-353 -189.391,-107.192 -378.899,-203.461 -557,-320 -18,-12 -61,-40 -97,-62 -39,-23 -76,-55 -91,-79 -23,-35 -25,-46 -19,-95 6,-46 13,-62 41,-89 52,-48 77,-56 383,-121 52,-11 136,-29 185,-40 242.749,-39.437 535.737,-62.714 702,-53 369,22 606,54 988,134 439.504,107.047 954.599,60.439 1297,-165 123,-81 172,-103 209,-94 242.364,130.439 495.524,368.332 811,323 57,-10 98,-50 98,-93 0,-32 -9,-44 -72,-102 -180,-166 -259,-251 -350,-381 -205.957,-416.738 -595.132,-698.962 -869,-1007 -142,-173 -188,-272 -196,-423 -17.833,-254.291 297.867,-319.897 432,-354 262.407,-56.665 532.103,-65.5 818,-36 906.22,83.011 1765.588,732.271 2487,733 673.085,-14.907 1216.789,-333.089 1586,-866 231.478,-292.444 368.841,-702.552 577,-972 495.308,-549.09 1097.25,-899.369 1792,-1190 183,-75 386,-143 462,-155 55,-9 70,-8 107,8 50,23 86,74 86,123 0,42 -42,132 -102,220 -131,190 -224,387 -291,614 -27,94 -29,346 -3,445 66,249 130,365 243,443 87,60 309,75 416,28 157,-69 233,-185 246,-376 7,-89 12,-109 48,-186 53.004,-101.056 120.426,-200.127 212,-268 50,-36 102,-61 201,-96 89,-31 161,-43 330,-55 200,-14 256,-29 356,-97 55,-37 98,-78 260,-244 51,-53 111,-87 234,-132 81,-31 92,-32 230,-32 169,1 223,13 318,74 113,73 118,75 232,75 154.668,5.793 259.006,-96.8 415,-102 239,-8 336,44 585,314 109,119 185,141 380,109 202,-34 379,-29 480,11 173.082,88.948 304.243,222.986 416,357 217.203,290.033 494.474,407.08 760,482 134,39 384,2 520,-76 119,-69 268,-199 351,-305 35,-46 102,-83 161,-91 295.632,14.758 213.565,301.121 47,482 -112,158 -338,340 -500,403 -258,99 -401.773,134.923 -765.773,135.923 -610.568,57.219 -1321.506,-319.058 -1835.227,-330.923 -380.664,-22.396 -649.372,103.72 -924,207 -282.252,116.791 -529.638,327.236 -666,446 -34,30 -84,71 -110,92 -93,73 -139,151 -132,224 6,62 33,99 85,117 69,25 113,-3 253,-160 239.839,-245.606 652.063,-560.474 1043,-569 224.813,3.473 410.507,133.083 512,236 173,176 174,176 395,185 96,4 200,13 230,19 98,22 210,90 338,205 49,44 137,164 157,215 50,125 131,216 220,249 53,20 72,22 165,17 321.701,-21.894 477.983,-28.977 673,165 103,104 135,124 186,114 79,-15 105,-43 185,-196 229.584,-294.917 489.388,-616.062 759,-918 47,-50 214,-189 287,-237 38,-25 97,-52 143,-66 89.988,-45.248 194.54,47.157 182,112 -8,24 -76,85 -162,142 -56,38 -80,63 -125,130 -120.508,169.875 -175.534,312.282 -248,498 -42,109 -62,260 -99,760 -6,69 -19,159 -30,200 -78.064,356.387 -163.277,571.086 -369,802 -327.846,359.487 -577.489,425.79 -962,428 -633.661,-24.889 -1145.468,-417.891 -1615,-721 -236.596,-157.435 -507.97,-283.433 -710,-379 -108,-51 -156,-69 -335,-124 -182,-57 -324,-81 -575,-97 -752.225,8.847 -1388.047,128.831 -2066,275 -127,28 -211,101 -193,170 17,70 134,123 304,136 476.09,29.627 955.778,-116.794 1375,-145 354.873,-4.244 652.026,-24.894 991,65 515.855,131.684 1013.447,458.953 1304,855 586.896,888.573 553.579,1984.474 -10,2759 -569.283,692.293 -1297.907,981.219 -2045,1077 -1233.104,97.054 -2352.363,-545.857 -3268,-1082 -279.576,-167.758 -458.465,-62.253 -722,41 -190,70 -580,73 -719,4 -16,-8 -36,-14 -44,-14 -31,0 -194,-77 -306,-144 -129,-78 -340,-278 -425,-404 -189.569,-288.383 -316.5,-625.87 -401,-927 -13,-44 -27,-95 -32,-113 -12,-40 -60,-97 -99,-118 -15,-7 -49,-14 -75,-14 -44,0 -51,4 -94,48 -40,41 -49,58 -59,113 -32,159 -38,257 -33,525 5,345 -7,454 -100,864 -42,186 -163,483 -267,654 -37,62 -184,216 -274,290 -155.577,119.059 -339.55,230.374 -503,291 -221.597,89.354 -511.645,92.053 -744,75 z m -54,-1018 c 68,-38 120,-75 138,-99 20,-28 56,-151 56,-197 0,-44 -38,-114 -71,-131 -33,-17 -125,-20 -165,-4 -55,20 -136,100 -161,159 -13,30 -33,72 -43,92 -31,57 -26,81 23,123 82,72 161,92 223,57 z m 3950,-753 c 154,-47 214,-99 280,-237 51,-110 59,-143 49,-217 -7,-59 -47,-129 -86,-151 -259.836,26.728 -592.442,79.93 -766,80 -244,1 -274,3 -293,18 -25,22 -26,64 -2,99 9,14 44,56 77,93 82,92 328,260 425,290 25,8 61,21 80,30 51,22 155,20 236,-5 z m -3355,-99 c 46,-24 156,-134 200,-199 16,-25 30,-58 31,-75 9,-172 -34,-226 -180,-226 -65,0 -78,3 -115,29 -84,58 -146,161 -147,243 0,111 34,186 105,229 38,24 56,24 106,-1 z m 4911,-587 c 38,-18 82,-50 112,-81 51,-53 126,-159 126,-178 0,-7 9,-31 20,-55 13,-29 20,-66 20,-107 0,-79 -42,-288 -68,-333 -10,-19 -28,-61 -40,-94 -41,-115 -83,-210 -104,-232 -27,-29 -80,-31 -107,-4 -10,10 -43,70 -74,132 -30,63 -70,137 -89,164 -19,28 -53,90 -76,139 -44,92 -104,181 -208,304 -69,81 -81,118 -63,184 18,68 77,118 185,155 121,43 118,42 216,39 71,-3 98,-9 150,-33 z m -10311,-161 c 49,-77 35,-156 -35,-198 -29,-17 -51,-19 -286,-16 -140,2 -272,8 -293,13 -58.387,17.957 -101.955,64.881 -101,112 1,58 42,129 96,165 193.784,99.406 501.025,94.323 619,-76 z m 8292,-46 c 14,-13 39,-50 55,-82 40,-78 82,-129 201,-237 25,-23 31,-37 31,-70 -51.156,-244.129 -424.633,-284.49 -613,-199 -177,86 -322,307 -286,436 13,46 39,63 114,71 157,16 313,51 380,85 52,26 86,25 118,-4 z m -3968,-146 c 110,-24 166,-43 224,-77 93,-54 209,-145 302,-235 80,-78 99,-102 114,-147 24,-74 16,-128 -25,-163 -83,-69 -172,-41 -325,101 -242.489,192.221 -637.839,233.379 -908,175 -96,-21 -123,-14 -154,41 -40,70 -25,127 47,180 223.751,127.682 472.889,178.09 725,125 z m -5565,-244 c 0,-42 -24.5,-111.813 -72,-122 -169.93,-34.558 -478.022,-82.443 -626,5 -50,32 -74,77 -69,131 30.597,157.223 362.982,206.857 467,202 122.901,-0.564 295.495,-102.771 300,-216 z m 10878,-184 c 36,-16 65,-64 76,-126 11,-56 65,-215 84,-245 9,-14 41,-57 72,-96 79,-99 90,-116 90,-145 0,-35 -24,-67 -68,-89 -349.366,-116.593 -759.792,99.511 -872,448 -14,55 3,90 79,156 69,60 141,93 239,110 93,16 253,9 300,-13 z m -1169,-1174 c 92.243,-201.621 127.875,-383.845 78,-563 -76.925,-247.818 -248.702,-444.466 -512.74,-456.954 -683.918,-32.346 -1413.906,934.647 -1204.26,1572.954 383.645,732.325 1529.46,-123.094 1639,-553 z m -3198,-230 c 54,-18 105,-56 124,-93 16,-29 17,-39 7,-73 -21,-68 -38,-74 -252,-77 -197,-4 -229,-9 -366,-61 -134,-51 -234,-131 -374,-298 -75,-90 -124,-106 -179,-60 -41,35 -48,78 -23,151 38.643,141.141 132.982,287.041 261,359 25,14 73,43 106,64 90,59 197,89 351,100 149,10 297,5 345,-12 z m 11363,-469 c 156,-27 244,-72 271,-135 21,-50 19,-76 -7,-109 -32,-40 -75,-54 -190,-61 -119,-6 -235,-27 -278,-49 -34,-17 -104,-20 -147,-4 -18,6 -38,24 -48,43 -38,71 6,176 108,255 46,36 70,47 125,57 89,16 96,16 166,3 z m -954,-583 c 48,-31 62,-62 63,-133 0,-92 -52,-143 -183,-179 -103,-28 -121,-38 -210,-118 -66,-60 -96,-80 -146,-96 -85,-29 -123,-17 -165,48 -39,61 -39,120 -1,193 50,96 247,243 407,304 27,10 65,14 117,12 64,-3 84,-8 118,-31 z m -6115,-229 c 392.788,-134.295 689.954,-492.451 776,-792 10,-38 25,-95 34,-125 20,-73 20,-192 -1,-233 -35,-68 -102,-99 -168,-77 -59,19 -100,78 -136,193 -79.172,149.056 -82.914,199.471 -215,341 -96,77 -131,102 -238,170 -358.505,202.426 -514.28,197.116 -725,241 -40,33 -49,91 -23,143 42,81 118,115 346,151 84,14 301,6 350,-12 z m 4953,-292 c 57,-17 105,-53 127,-96 23,-43 19,-131 -6,-163 -36,-46 -73,-58 -213,-67 -142,-9 -183,-16 -235,-43 -80,-42 -180,-29 -210,28 -24,44 0,123 52,173 46,43 116,94 189,137 72,42 210,56 296,31 z m -5777,-1245 c 79,-15 137,-47 208,-114 68,-65 171,-212 191,-272 16,-48 8,-129 -17,-162 -32,-43 -82,-72 -124,-72 -88,0 -135,40 -194,165 -49,106 -82,147 -167,206 -105,74 -128,101 -128,147 0,90 88,129 231,102 z m 3249,-44 c 160,-65 299,-226 308,-355 7,-112 -57,-181 -168,-181 -68,0 -107,22 -149,83 -35,51 -71,69 -181,87 -41,7 -87,19 -102,26 -87,45 -75,163 28,283 71,82 157,100 264,57 z m 3726,-125 c 39,-24 74,-94 74,-149 -17.376,-162.211 -131.734,-251.797 -251,-292 -174,-59 -402,25 -358,131 16,41 119,89 190,89 47,0 90,40 134,123 24,46 53,86 70,97 38,25 101,26 141,1 z m -2549,-397 c 57,-21 213,-124 246,-163 30,-36 51,-102 42,-132 -11,-33 -65,-89 -109,-111 -59,-30 -140,-21 -231,26 -102,52 -180,76 -246,76 -77,0 -170,25 -191,51 -10,12 -18,38 -18,59 0,74 111,183 198,196 26,3 65,10 87,14 54,11 170,2 222,-16 z m 1158,-73 c 129,-57 189,-177 132,-262 -37,-55 -79,-71 -167,-63 -41,4 -155,7 -253,8 l -179,1 -29,33 c -34,38 -39,94 -13,144 30,58 103,126 152,142 71,23 89,25 202,22 83,-2 115,-7 155,-25 z"
         id="path80"
         style="fill:#000000;fill-opacity:0.847059"
         sodipodi:nodetypes="cccccccccccccccscccccccccccccccccscccccccccccccccccccccccsccccccccccccsccccccccccccccccccccccccccccccccccccccccccccccccccccccccccccccccccccccccscccccsccccccccccsscccccccccccccccccccsccccccscscccsccccccccccccccccccccccccccccccccccccccccccccscccccccscccccccccccccccccccccccccccccccccccccccccccccccccccccccccscsccscccscccccccccsccccccccscsccccccccccccc" />
      <path
         d="m 27730,15558 c -126.263,-80.641 -130.567,-262.724 -105,-385 62.693,-252.246 201.491,-496.998 410,-648 97,-69 170,-95 267,-95 96,0 144,18 218,80 121,101 127.112,346.839 36.112,509.839 -145.615,207.837 -334.317,417.621 -565.112,527.161 -80,37 -188,41 -261,11 z"
         id="path82"
         style="fill:#000000;fill-opacity:0.847059"
         sodipodi:nodetypes="cccscccc" />
    </g>
    <g
       id="g1555"
       style="fill:#000000;fill-opacity:0.847059">
      <desc
         id="desc1559">h1o25</desc>
      <title
         id="title1557">4.1.0</title>
      <path
         d="m 5640,17971 c -87,-9 -197,-32 -255,-54 -253.8105,-109.119 -543.2,-311.968 -620,-578 -7,-25 -34,-78 -59,-117 -36,-55 -62,-80 -106,-108 -72,-44 -84,-71 -100,-215 -24,-211 5,-430 75,-576 53,-109 101,-167 153,-184 66,-21 103,-50 160,-128 96,-131 194,-217 329,-290 168,-91 214,-138 228,-232 8,-51 -9,-100 -52,-157 -60,-79 -180,-94 -324,-41 -46,17 -100,35 -119,41 -19,5 -66,26 -105,45 -38,19 -88,41 -110,47 -41,13 -171,92 -238,145 -21,16 -63,37 -93,46 -64,19 -138,81 -179,150 -13,24 -43,58 -65,75 -38,30 -45,32 -96,27 -44,-5 -66,-14 -107,-45 -66,-49 -95,-57 -147,-36 -80,32 -251,-16 -309,-87 -77,-94 -78,-269 -3,-344 15,-15 61,-42 102,-59 41,-17 90,-40 109,-50 134,-71 314,-83 495,-30 164,47 436,16 586,-68 125,-70 258,-181 301,-252 24,-39 25,-125 2,-169 -35,-67 -93,-253 -93,-297 0,-138 -22,-163 -158,-180 -106,-13 -169,-38 -240,-95 -49,-39 -137,-69 -176,-59 -55,13 -106,92 -106,163 0,49 -33,147 -63,189 -86.008,93.418 -210.8766,121.367 -307,92 -171.0857,-70.715 -205.1306,-165.015 -204,-290 15.1,-338.774 238.2946,-593.181 418,-778 77.5915,-75.193 138.1853,-129.759 245,-132 84,0 165,59 176,128 25,155 80,266 182,363 100,95 185,137 296,145 206.8501,8.48 277.4345,-165.092 455,-166 127.9238,-6.56 227.8917,125.775 344,130 163,0 278,-82 322,-230 23,-78 21,-226 -4,-311 -23.5036,-54.027 -39.8181,-106.351 -40,-157 0,-101 19,-137 91,-175 52,-28 58,-29 154,-23 55,3 132,10 170,16 39,6 203,14 365,19 329,9 334,10 421,88 58,52 80,103 86,200 5,75 3,87 -21,137 -32,64 -102,127 -162,144 -56,16 -184,15 -236,-2 -24,-8 -68,-21 -98,-29 -209,-60 -237,-63 -290,-36 -50,26 -65,64 -63,159 6.8619,212.045 -162.224,377.709 -346,411 -107,18 -111,19 -131,39 -32,32 -26,90 22,193 48.1097,128.091 76.4244,292.331 77,434 1,44 5,93 11,107 13,35 57,73 100,87 22,7 201,14 490,20 476,9 641,18 676,36 65.9628,50.852 69.2693,164.889 120,214 28,26 49,28 207,14 56,-5 107,-4 140,3 95.5098,30.012 201.9738,6.571 238,90 49,114 2,235 -135,350 -75,63 -86,69 -151,81 -164.8608,13.146 -336.0132,-22.259 -462,-125 -324.6992,-281.484 -534.3658,-422.186 -871,-431 -195,-6 -211,-3 -399,54 -69,20 -88,31 -122,68 -35,38 -41,51 -41,87 0,70 25,99 116,132 196.8914,84.335 375.5986,137.779 526,321 13,17 51,72 83,124 60,96 90,123 157,141 206.5564,123.429 242.2641,491.369 242,655 -1,270 -19,312 -152,361 -63,23 -91,51 -142,142 -165.2178,278.641 -413.9666,511.487 -734,603 -81,22 -312,32 -436,20 z m 29,-248 c 27,-28 27,-31 39,-226 19,-305 27,-297 -305,-297 -197,0 -233,2 -263,18 -29,14 -36,23 -38,54 -8,97 159,304 327,404 49,29 164,70 204,73 5,1 21,-11 36,-26 z m 799,-314 c 27,-44 33,-119 12,-144 -33,-39 -71,-45 -300,-45 -242,0 -271,6 -291,57 -12,32 -2,343 13,390 14,48 42,63 114,63 160.9577,-8.67 360.8152,-179.78 452,-321 z m -812,-426 25,-27 -3,-343 -3,-344 -25,-20 c -28,-22 -61,-21 -147,3 -207.9004,84.424 -350.5608,216.381 -426,418 -44,120 -55,215 -31,262 37,71 59,76 347,77 l 238,1 z m 774,-3 c 102,-27 125,-52 116,-129 -40.3096,-278.337 -200.9023,-451.113 -416,-561 -108,-55 -174,-60 -218,-17 -27,27 -27,28 -30,195 -2,92 -1,231 3,310 7,132 9,145 32,172 14,17 39,34 56,39 18,5 111,9 207,10 144,0 188,-3 250,-19 z"
         id="path84"
         style="fill:#000000;fill-opacity:0.847059"
         sodipodi:nodetypes="ccccccccccccccccccccccccssccsccscccscccccccccccccccccsccccccccsccccccccccccccccscccccccccccscccccccsccccccccccccccccccccccccc" />
    </g>
    <g
       id="g1347"
       style="fill:#000000;fill-opacity:0.847059">
      <desc
         id="desc1351">h2o25</desc>
      <title
         id="title1349">4.1.1</title>
      <path
         d="m 7941,17485 c -21,-28 -51,-113 -51,-147 0,-56 56,-110 136,-129 326.4476,-165.348 566.1792,-375.309 769,-663 142.2771,-230.547 289.796,-385.052 560,-452 113,-27 482,-26 600,0 230.658,59.577 480.322,155.634 645,206 165,51 220,86 220,140 0,45 -30,100 -60,107 -233.99,-0.896 -476.405,-48.815 -716,13 -739.9205,213.972 -1306.9489,579.227 -1861,902 -67.3947,39.548 -197.1998,77.896 -242,23 z"
         id="path86"
         style="fill:#000000;fill-opacity:0.847059"
         sodipodi:nodetypes="cscccccscccc" />
    </g>
    <g
       id="g1340"
       style="fill:#000000;fill-opacity:0.847059">
      <desc
         id="desc1344">h2o15</desc>
      <title
         id="title1342">4.0.1</title>
      <path
         d="m 14700,16640 c -493.328,-261.233 -949.617,-388.841 -1341,-653 -114,-73 -149,-100 -222,-171 -52.263,-49.085 -124.542,-93.915 -127,-170 0,-45 30,-107 66,-135 39,-30 115,-51 229,-62 355.17,-0.87 739.974,-119.152 1050,-25 162,48 249,58 530,59 143,1 334,-2 425,-6 644.965,21.972 938.292,57.9 1570,178 56,20 95,56 126,117 62,122 -3,266 -142,315 -273.083,75.987 -468.664,44.459 -799,111 -261.695,73.662 -528.629,185.672 -727,340 -90,71 -234,141 -312,153 -112.819,24.056 -228.626,-24.966 -326,-51 z m 636,-451 c 114,-43 181,-136 171,-236 -28.371,-168.603 -166.021,-130.146 -258,-123 -104,8 -158,8 -181,1 -99.78,-29.1 -273.031,-95.507 -339,-23 -57,63 -24,160 94,276 117.069,108.183 363.304,155.928 513,105 z"
         id="path88"
         style="fill:#000000;fill-opacity:0.847059"
         sodipodi:nodetypes="ccccccccccscccccccccccc" />
    </g>
    <g
       id="g1333"
       style="fill:#000000;fill-opacity:0.847059">
      <desc
         id="desc1337">h2o35</desc>
      <title
         id="title1335">4.2.1</title>
      <path
         d="m 11725,16379 c -454.025,-79.111 -968.795,-295.966 -1337,-468 -54,-26 -118,-92 -118,-122 0,-11 22,-44 50,-73 83,-87 240,-156 465,-202 349,-71 419,-78 740,-71 259,6 299,11 495,64 231.595,86.612 478.533,229.043 667,366 168,121 208,146 332,204 178,83 183,86 203,118 20,34 24,102 6,140 -22,48 -102,53 -388,25 -136,-13 -659,-6 -735,10 -62,14 -286,19 -380,9 z m -34,-342 c 101,-26 120,-46 123,-128 2,-81 -2,-83 -232,-90 -170,-6 -209,-10 -286,-33 -64.861,-14.728 -127.318,-51.602 -186,-70 -97,-29 -178,12 -187,95 -6,52 9,89 54,131 32,30 173,82 278,103 88,17 356,12 436,-8 z"
         id="path90"
         style="fill:#000000;fill-opacity:0.847059"
         sodipodi:nodetypes="ccscccccccccccccccccccc" />
    </g>
    <g
       id="g1326"
       style="fill:#000000;fill-opacity:0.847059">
      <desc
         id="desc1330">h2o45</desc>
      <title
         id="title1328">4.3.1</title>
      <path
         d="m 13185,15190 c -524.16,-130.087 -998.145,-220.423 -1370,-642 -84.443,-133.113 -311.263,-386.157 -325,-555 0,-20 52,-64 108,-89 75,-34 221,-50 320,-35 110,17 197,48 272,96 107,69 253,144 329,170 78,26 209,39 506,51 363.161,31.855 803.483,274.881 1030,581 64.855,95.841 128.999,205.693 119,311 -6,58 -9,64 -38,76 -128,52 -751,76 -951,36 z m 494,-234 c 94.6,-51.009 12.864,-139.269 -48,-170 -82,-42 -95,-56 -151,-164 -67.065,-124.569 -188.649,-174.847 -287,-96 -76,62 -67,139 28,257 116.13,118.666 248.01,208.475 458,173 z"
         id="path92"
         style="fill:#000000;fill-opacity:0.847059"
         sodipodi:nodetypes="cccccccccccccccccc" />
    </g>
    <g
       id="g1319"
       style="fill:#000000;fill-opacity:0.847059">
      <desc
         id="desc1323">h1o35</desc>
      <title
         id="title1321">4.2.0</title>
      <path
         d="m 7984,14734 c 8,-37 89,-199 143,-281 48,-75 69,-135 97,-288 25,-133 24,-337 -4,-520 -39,-262 -37,-300 26,-430 158.3854,-229.278 424.4266,-381.608 675,-305 279.5275,92.345 436.861,364.553 439,614 -77.0803,518.854 -593.5765,1133.731 -1004,1380 -54,32 -157,66 -196,66 -114.4423,-22.033 -191.5958,-117.25 -176,-236 z"
         id="path94"
         style="fill:#000000;fill-opacity:0.847059"
         sodipodi:nodetypes="cccccccccc" />
    </g>
    <g
       id="g1312"
       style="fill:#000000;fill-opacity:0.847059">
      <desc
         id="desc1316">h1o15</desc>
      <title
         id="title1314">4.0.0</title>
      <path
         d="m 18785,14746 c -38,-13 -124,-38 -190,-56 -66,-17 -158,-46 -205,-62 -97,-34 -302,-147 -393,-216 -136,-104 -267,-259 -327,-388 -52,-110 -108,-406 -97,-505 8,-64 23,-81 100,-113 134,-55 394,-60 572,-12 28,7 84,21 125,31 94,22 193,64 293,123 77,46 122,89 344,329 58,64 122,120 175,155 91,61 229,138 249,138 6,0 57,20 113,44 102,45 241,92 424,145 55,16 112,37 126,47 36,27 56,74 56,131 0,63 -39,113 -101,132 -44,13 -149,8 -223,-11 -116,-29 -543,17 -830,92 -99,25 -124,25 -211,-4 z m 48,-347 c 72,-20 102,-75 73,-135 -17,-37 -57,-59 -160,-89 -64,-18 -83,-35 -155,-129 -54,-72 -92,-96 -152,-96 -50,0 -79,21 -99,74 -16,42 1,85 65,168 95,123 173,179 276,198 52.645,16.48 104.317,21.689 152,9 z"
         id="path96"
         style="fill:#000000;fill-opacity:0.847059"
         sodipodi:nodetypes="ccccccccccccscccsccccccccscccc" />
    </g>
    <g
       id="g1305"
       style="fill:#000000;fill-opacity:0.847059">
      <desc
         id="desc1309">h2o14</desc>
      <title
         id="title1307">3.0.1</title>
      <path
         d="m 12665,13883 c -287.443,-113.26 -590.421,-336.543 -905,-383 -161,-22 -313,-32 -409,-27 -85.947,3.249 -85.573,26.537 -140,-31 -254.693,-362.967 -428.043,-690.31 -579,-1077 -57.118,-190.715 -137.925,-379.939 -158,-572 l -7,-71 39,-20 c 94,-48 161,-38 280,39 43,28 123,77 178,108 226,129 361,229 450,334 253.219,302.691 636.896,490.053 877,572 92,31 181,65 198,76 31,19 82,90 131,184 14,28 34,64 43,80 9,17 59,118 111,225 93,193 146,330 146,376 0,39 -24,85 -75,142 -46,52 -47,52 -103,51 -31,-1 -66,-4 -77,-6 z m -98,-546 c -8,-66 -38,-102 -136,-160 -126,-77 -191,-81 -246,-16 -43,52 -30,92 57,175 64,62 86,74 152,84 100.884,11.108 183.507,16.233 173,-83 z"
         id="path100"
         style="fill:#000000;fill-opacity:0.847059"
         sodipodi:nodetypes="ccccccccccccccccsccccccccc" />
    </g>
    <g
       id="g1298"
       style="fill:#000000;fill-opacity:0.847059">
      <desc
         id="desc1302">h1o45</desc>
      <title
         id="title1300">4.3.0</title>
      <path
         d="m 18180,13179 c -19,-4 -116,-11 -215,-14 -406.412,-1.07 -700.368,-89.789 -805,-513 -39.314,-329.693 104.032,-539.009 257,-792 75,-123 136,-189 209,-227 50,-26 55,-27 101,-15 86,23 119,77 152,247 23,116 94,321 157,455 136,286 161,326 290,471 127,143 138,161 138,229 1,109 -66,170 -184,169 -36,-1 -81,-5 -100,-10 z m -338,-306 c 20,-18 24,-73 7,-106 -6,-12 -24,-35 -39,-52 -33,-36 -55,-120 -47,-179 23,-165 -154,-262 -224,-124 -17,34 -22,61 -23,138 -1,105 8,136 62,215 78,114 202,165 264,108 z"
         id="path104"
         style="fill:#000000;fill-opacity:0.847059"
         sodipodi:nodetypes="cccccccccccccccccccc" />
    </g>
    <g
       id="g1291"
       style="fill:#000000;fill-opacity:0.847059">
      <desc
         id="desc1295">h1o33</desc>
      <title
         id="title1293">2.2.0</title>
      <path
         d="m 22640,12379 c -207.052,-30.987 -380.409,-105.865 -532,-230 -45,-38 -97,-78 -114,-89 -179.719,-138.675 -270.04,-309.528 -380,-487 -53,-90 -69,-130 -90,-238 -33,-168 -28,-267 17,-357 44,-86 90,-112 242,-138 78.294,-5.186 100.615,-27.325 154,-59 34,-18 104,23 188,109 77,80 282,256 355,306 114,79 304,159 476,203 239,61 495,237 623,428 92,139 211,382 211,434 0,26 -38,86 -60,95 -72,29 -126,32 -575,31 -253,-1 -485,-5 -515,-8 z m 523,-344 c 18,-17 27,-36 27,-56 0,-33 -14,-49 -135,-148 -124,-101 -130,-104 -191,-99 -132,11 -140,119 -17,234 68,65 135,90 238,93 41,1 55,-4 78,-24 z"
         id="path108"
         style="fill:#000000;fill-opacity:0.847059"
         sodipodi:nodetypes="ccccccccccccsccccsccccc" />
    </g>
    <g
       id="g1284"
       style="fill:#000000;fill-opacity:0.847059">
      <desc
         id="desc1288">h2o34</desc>
      <title
         id="title1286">3.2.1</title>
      <path
         d="m 11825,12142 c -66,-32 -102,-71 -178,-192 -269.149,-381.224 -695.159,-531.819 -1122,-558 l -119,-7 c -105.852,-284.133 -221.523,-510.289 -313,-680 -273.3411,-409.705 -611.3405,-882.6257 -939,-1216 -56.6112,-54.8994 -183.1954,-197.7201 -137,-269 39,-55 139,-66 244,-26 56,21 134,63 459,246 414.129,223.9418 719.212,485.5487 1042,829 108,115 246,300 335,449 118,198 178,279 292,390 111,107 184,166 288,232 68,43 77,56 160,245 74,166 120,331 128,461 7,100 3,109 -51,119 -20,4 -48,-3 -89,-23 z"
         id="path110"
         style="fill:#000000;fill-opacity:0.847059"
         sodipodi:nodetypes="ccccccccccccccccc" />
    </g>
    <g
       id="g1277"
       style="fill:#000000;fill-opacity:0.847059">
      <desc
         id="desc1281">h1o23</desc>
      <title
         id="title1279">2.1.0</title>
      <path
         d="m 21985,14600 c -84,-29 -168,-93 -259,-197 -46,-54 -98,-116 -114,-138 -20,-28 -52,-52 -106,-79 -70,-36 -86,-40 -181,-46 -58,-4 -111,-12 -118,-19 -21,-17 -40,-95 -33,-133 15,-78 56,-112 201,-164 22,-8 56,-30 75,-48 19,-18 58,-47 86,-64 51,-32 148,-128 195,-192 50,-68 77,-169 113,-418 21,-145 42,-254 54,-282 46,-104 140,-147 217,-100 63,39 77,108 55,260 -5,36 -16,144 -25,240 -8,96 -17,191 -19,210 -6,58 21,398 39,485 21,107 37,164 91,327 41,127 44,143 38,204 -6,54 -13,73 -36,100 -63,71 -165,92 -273,54 z"
         id="path98"
         style="fill:#000000;fill-opacity:0.847059" />
      <path
         d="m 20360,13404 c -271.929,-44.187 -502.058,-137.294 -681,-286 -258,-216 -294,-290 -370,-758 -15,-97 -17,-133 -8,-229 17.684,-196.089 76.126,-399.658 168,-556 59,-97 113,-215 132,-289 21,-80 38,-100 139,-169 165,-112 433,-192 623,-185 94,3 107,6 172,39 81,41 157,69 270,99 84,22 187,59 243,88 57,29 79,62 92,132 39,214 120,455 205,603 48,85 103,162 223,311 l 47,58 3,92 c 6,145 -55,370 -136,511 -50,86 -173,217 -275,296 -32,24 -77,59 -100,77 -43,34 -168,97 -247,125 -111,39 -368,60 -500,41 z m 303,-262 c 48,-45 46,-58 -34,-263 -43,-109 -62,-137 -105,-155 -29,-12 -39,-12 -76,2 -24,9 -81,28 -128,43 -102,34 -223,93 -256,126 -34,34 -31,69 9,99 146.018,104.459 322.955,174.391 489,173 65,-2 80,-6 101,-25 z m 405,-217 c 127,-107 222,-354 163,-426 -32,-39 -105,-33 -214,19 -48,23 -94,42 -103,42 -9,0 -29,14 -45,31 -25,26 -29,39 -29,85 0,85 59,221 112,258 33,24 82,20 116,-9 z m -1021,-336 c 228,-73 328,-120 349,-161 19,-37 13,-66 -33,-166 -19,-43 -50,-119 -69,-169 -40,-110 -87,-206 -114,-233 -25,-25 -76,-26 -110,-4 -70,47 -177,171 -206,239 -7,19 -25,77 -39,130 -25,98 -34,239 -19,314 9,43 55,91 88,91 14,0 83,-19 153,-41 z m 778,-294 c 39,-14 106,-35 149,-46 43,-11 101,-31 127,-45 85,-43 89,-82 22,-197 -59,-99 -154,-183 -252,-222 -45.536,-19.358 -93.104,-46.631 -137,-55 -181,-38 -202,-38 -251,4 -36,31 -36,81 -1,151 14,28 38,88 53,135 33,98 85,215 112,247 20,25 70,53 93,53 8,0 47,-12 85,-25 z m -612,-769 c 137,-26 251,-104 263,-178 12,-73 -56,-99 -144,-54 -62,31 -108,43 -216,55 -93,11 -125,25 -152,66 -36,55 7,103 104,115 50.924,13.267 102.669,4.177 145,-4 z"
         id="path102"
         style="fill:#000000;fill-opacity:0.847059"
         sodipodi:nodetypes="ccccccccccccccccccccccccccsccccccscsccccccsccccsccscccccsccscccccccc" />
      <path
         d="m 18476,11909 c -63,-58 -81,-98 -116,-259 -20,-90 -22,-122 -17,-240 12.928,-175 56.274,-362.809 166,-505 31,-38 96,-109 144,-157 74,-73 104,-94 191,-137 199.487,-99.744 494.309,-143.747 693,-81 81,28 103,56 103,130 0,49 -4,64 -27,92 -38,46 -42,48 -178,119 -132,68 -178,103 -338,259 -128.952,137.939 -353.87,404.881 -386,615 -17,118 -43,175 -92,201 -52,26 -83,18 -143,-37 z"
         id="path112"
         style="fill:#000000;fill-opacity:0.847059"
         sodipodi:nodetypes="cccccccscccccc" />
    </g>
    <g
       id="g1268"
       style="fill:#000000;fill-opacity:0.847059">
      <desc
         id="desc1272">h1o14</desc>
      <title
         id="title1270">3.0.0</title>
      <path
         d="m 16808,11933 c -34,-21 -59,-66 -105,-189 -33,-88 -37,-109 -37,-194 34.301,-444.038 213.091,-992.052 341,-1300 80.246,-199.957 143.277,-395.0246 258,-552 70,-60 188,-55 251,10 114.692,300.229 235.321,684.506 274,1023 -1,174 -78,312 -257,461 -147,123 -211,199 -263,314 -30,68 -96,267 -109,334 -14,69 -31,80 -131,92 -161,19 -194,20 -222,1 z m 565,-946 c 18,-8 55,-39 83,-70 70,-76 100,-166 91,-273 -15,-173 -96,-266 -192,-222 -44,20 -58,61 -65,198 -6,122 -8,127 -48,203 -47,87 -49,102 -26,135 29,42 96,54 157,29 z"
         id="path114"
         style="fill:#000000;fill-opacity:0.847059"
         sodipodi:nodetypes="cccccccccccccccccccc" />
    </g>
    <g
       id="g1261"
       style="fill:#000000;fill-opacity:0.847059">
      <desc
         id="desc1265">h1o34</desc>
      <title
         id="title1263">3.2.0</title>
      <path
         d="m 7450,11230 c -309,-42 -288,-36 -436,-125 -233.1985,-179.059 -511.6202,-480.378 -594,-836 -31.4125,-81.991 -86.1722,-112.626 -122,-192 0.2315,-268.1919 35.4247,-482.4402 193,-709 103,-146 142,-175 259,-188 116.5066,-29.2776 263.149,-103.2417 374,-187 47,-63 23,-162 -47,-197 -68.8499,-26.6191 -129.7638,-3.3145 -198,28 -257.3695,123.0983 -571.2507,263.1816 -818,468 -34,36 -99,164 -125,242 -9,27 -16,79 -16,116 0,88 -36,149 -103,175 -47.4599,27.309 -73.7882,2.8898 -120,-19 -42,-19 -86,-38 -99,-41 -15,-4 -59,9 -121,35 -108.8176,44.7361 -193.0818,53.7145 -276,-10 -75,-59 -91,-93 -91,-187 0,-139 65,-299 159,-389 101,-98 223,-146 381,-149 165,-4 242,-26 364,-103 250.4241,-125.2625 513.5,-264.125 780,-338 40,-10 94,-67 102,-108 3,-21 0,-54 -9,-83 -39,-124 -52,-348 -25,-424 9,-26 20,-69 24,-97 9.7478,-69.267 -40.5632,-110.9268 -98,-118 -41,-6 -59,-1 -160,45 -111,50 -115,51 -252,61 -158,11 -188,22 -223,86 -12,22 -34,86 -49,144 -36,140 -63,198 -117,247 -84,77 -157,97 -264,69 -131,-34 -193,-96 -223,-223 -25,-107 9,-302 82,-468 17,-38 43,-107 59,-152 36,-104 90,-212 120,-240 65,-60 177,-56 279,11 122,79 166,98 323,135 26,6 90,11 142,11 112.1416,-1.3334 379.7083,-63.4672 416,-183 17,-62 -1,-106 -64,-162 -117,-103 -189,-214 -222,-340 -29,-114 -46,-142 -100,-169 -45,-23 -82,-17 -209,32 -152,60 -280,75 -411,51 -155,-28 -315,-171 -315,-281 0,-103 151,-244 292,-273 210.7123,-53.1957 429.2997,-86.023 630,-125 111,-22 183,-25 220,-11 99.838,77.5203 113.16,200.8573 119,326 7,177 19,215 112,378 91,159 255,335 473,504 71,55 222,157 270,181 134.4244,86.0259 186.4141,236.3899 141,367 -98,284 -130,450 -106,563 9,46 19,65 53,97 103,99 258,84 378,-38 64,-65 137,-202 161,-301 39.8762,-124.8498 47.6506,-228.0219 7,-344 -45,-123 -38,-217 21,-266 25,-21 41,-26 89,-26 55,0 61,3 112,46 62,54 94,69 164,79 71,9 120,-7 190,-61 77,-61 110,-74 186,-74 53,0 71,5 117,33 120,72 131,193 31,342 -86,128 -149,178 -280,225 -201,70 -226,92 -324,285 -98.0617,194.0634 -257.5198,295.1643 -431,360 -163,59 -205,95 -205,172 1,62 26,82 155,122 106,32 232,111 344,216 152.2504,142.9117 252.5633,329.1643 316,510 93.5694,400.593 -97.0895,1054.855 -562,1308 -232.2693,112.605 -530.8708,175.584 -823,167 z m 660,-420 c 150,-49 321,-185 336,-269 8,-42 -10,-80 -46,-98 -35,-17 -147,-56 -269,-93 -147,-45 -188,-32 -233,75 -23,56 -60,218 -66,293 -5,66 8,94 53,113 43,17 133,9 225,-21 z m -591,-97 c 68.0028,-99.419 75.175,-201.831 132,-320 75,-157 52,-194 -161,-261 -74,-23 -169,-54 -210,-67 -92,-31 -139,-32 -168,-5 -53.1705,92.317 -41.381,217.489 0,312 40,87 95,165 178,251 113,119 173,142 229,90 z m 1038,-526 c 36,-35 44,-87 28,-173 -25,-129 -38,-167 -87,-264 -86,-166 -178,-234 -245,-182 -21,16 -88,167 -150,336 -32,88 -26,127 27,177 58.1671,51.146 127.2493,53.653 195,87 114,57 188,63 232,19 z M 6761,9959 c 71,-71 109,-181 109,-318 0,-75 -13,-102 -59,-121 -27,-11 -36,-9 -78,11 -72,36 -86,63 -94,177 -0.433,73.2 -37.343,224.2483 4,266 38,38 70,33 118,-15 z m 1054,-33 c 22,-24 41,-61 60,-123 15,-48 47,-138 71,-199 74,-187 59,-229 -88,-246 -142,-16 -284,9 -379,67 -91,55 -199,144 -231,191 -70,100 -39,166 97,210 105.4618,35.7702 198.3659,72.857 305,112 85,32 126,29 165,-12 z"
         id="path118"
         style="fill:#000000;fill-opacity:0.847059"
         sodipodi:nodetypes="ccccccccccsscccccsccccccccccccccccccccccccccccsccccccccccccccscccscccccccccccccccccccccccccccccccccccssccccsccccccccc" />
    </g>
    <g
       id="g1254"
       style="fill:#000000;fill-opacity:0.847059">
      <desc
         id="desc1258">h1o43</desc>
      <title
         id="title1256">2.3.0</title>
      <path
         d="m 22819,11059 c -159.613,-85.698 -311.937,-222.649 -454,-317 -82,-55 -163,-112 -180,-126 -33,-29 -159,-96 -181,-96 -22,0 -235,-86 -290,-117 -91,-51 -131,-93 -173,-185 -22,-47 -43,-103 -46,-124 -4,-22 -14,-74 -22,-117 -12,-63 -13,-93 -3,-163 6,-47 15,-95 19,-107 5,-12 14,-40 19,-62 86,-323 178,-450 343,-470 117,-14 259,39 280,105 37,113 101,231 156,288 30,31 187,156 270,215 52,38 163,162 222,249 49,74 89,177 105,274 17,109 51,229 109,395 61,172 72,224 58,275 -16,59 -44,91 -88,98 -52.771,17.75 -101.763,1.889 -144,-15 z m -314,-573 c 39,-17 55,-42 55,-86 0,-35 -41,-82 -97,-112 -30,-16 -54,-57 -89,-151 -36,-99 -108,-161 -181,-155 -45,4 -73,39 -80,100 -5,45 -1,56 79,225 31,67 127,149 201,172 76,24 70,24 112,7 z"
         id="path120"
         style="fill:#000000;fill-opacity:0.847059"
         sodipodi:nodetypes="cccsccccccccccccccccccsccccccc" />
    </g>
    <g
       id="g1247"
       style="fill:#000000;fill-opacity:0.847059">
      <desc
         id="desc1251">h2o33</desc>
      <title
         id="title1249">2.2.1</title>
      <path
         d="m 25605,11594 c -257,-60 -476,-88 -570,-74 -278,42 -391,46 -442,15 -49,-29 -59,-64 -34,-114 26,-50 44,-62 178,-118 132,-54 184,-84 243,-139 25,-23 74,-57 110,-76 36,-19 95,-51 132,-71 60,-34 79,-39 200,-53 124,-15 138,-15 208,1 175,41 223,62 301,133 88,80 139,213 125,324 -7,53 -11,60 -57,97 -49,39 -104,60 -207,81 -68,13 -113,12 -187,-6 z"
         id="path116"
         style="fill:#000000;fill-opacity:0.847059" />
      <path
         d="m 24064,10796 c -53,-23 -77,-63 -72,-122 9,-108 92,-211 278,-344 205,-147 269,-291 270,-605 0,-198 36,-292 137,-365 81,-58 97,-60 139,-19 54,52 153,195 198,285 98,195 138,320 166,529 18.157,135.581 14.111,253.075 -109,292 -44,13 -94,17 -226,18 -177,1 -220,8 -304,49 -81,39 -127,73 -221,163 -137,132 -180,152 -256,119 z"
         id="path122"
         style="fill:#000000;fill-opacity:0.847059"
         sodipodi:nodetypes="ccccccccccccc" />
      <path
         d="m 20329,10440 c -85,-34 -186,-91 -238,-133 -192.595,-134.78 -338.731,-368.3952 -511,-471 -71,-43 -134,-90 -192,-145 -47,-43 -49,-71 -11,-173 65,-177 223,-245 432,-188 81,23 88,29 156,136 69,110 87,114 332,88 66,-7 117,9 143,47 36,50 36,89 0,189 -41,113 -39,178 6,243 44,63 91,83 221,91 62,3 133,14 163,24 64.583,16.25 55.365,26.278 73,88 20,75 18,138 -8,229 -18,60 -21,65 -62,93 -86.579,43.831 -378.787,-67.843 -504,-118 z"
         id="path124"
         style="fill:#000000;fill-opacity:0.847059"
         sodipodi:nodetypes="cccccccsccccccccc" />
    </g>
    <g
       id="g1238"
       style="fill:#000000;fill-opacity:0.847059">
      <desc
         id="desc1242">h1o42</desc>
      <title
         id="title1240">1.3.0</title>
      <path
         d="m 29697,10163 c -13,-12 -7,-220 8,-307 16,-92 62,-197 110,-251 214.278,-291.6069 396.035,-365.6235 605,-473 91,-46 221,-115 290,-152 69,-37 157,-83 195,-102 39,-19 151,-78 250,-130 99,-52 226,-118 282,-147 56,-29 136,-72 178,-96 103,-58 193,-76 260,-51 61,24 95,69 102,138 8,79 -2,112 -162,553 -26,72 -70,198 -99,280 -81,229 -109,276 -219,363 -67,53 -113,79 -204,114 -49,20 -76,23 -178,22 -66,-1 -162,-9 -213,-18 -50,-9 -137,-16 -191,-16 -111,0 -207,24 -336,86 -38,18 -99,44 -135,57 -36,13 -108,41 -160,61 -64,24 -138,43 -225,56 -146,22 -149,23 -158,13 z m 1463,-608 c 50.05,-41.7064 76.949,-104.5378 106,-150 24,-38 47,-79 50,-91 14,-57 -35,-139 -111,-186 -91,-55 -164,22 -165,174 -1,61 -11,83 -61,127 -37,32 -69,85 -69,116 0,9 14,30 30,47 29,29 34,30 96,26 63,-4 65,-5 124,-63 z"
         id="path128"
         style="fill:#000000;fill-opacity:0.847059"
         sodipodi:nodetypes="ccccscsscccccscccscscccccccccsccc" />
    </g>
    <g
       id="g1231"
       style="fill:#000000;fill-opacity:0.847059">
      <desc
         id="desc1235">h2o43</desc>
      <title
         id="title1233">2.3.1</title>
      <path
         d="m 26044,12711 c -27,-10 -81,-38 -120,-61 -38,-24 -96,-58 -129,-77 -33,-19 -78,-52 -100,-74 -124.096,-104.138 -288.46,-257.231 -450,-298 -27,-7 -110,-14 -183,-16 -137.261,7.858 -219.164,-44.043 -327,-79 -103,-31 -248,-85 -258,-95 -15,-15 17,-79 45,-90 13,-4 113,-13 223,-19 110,-7 229,-19 265,-27 98,-24 213,-35 446,-41 181,-6 218,-4 261,10 56,19 126,73 148,116 22,43 180,199 285,282 123,97 205,184 215,227 19,89 -27,201 -99,238 -47,25 -160,27 -222,4 z"
         id="path106"
         style="fill:#000000;fill-opacity:0.847059"
         sodipodi:nodetypes="ccsccccscccccscccc" />
      <path
         d="m 23454,10490 c -16,-5 -41,-21 -54,-35 -23,-25 -24,-30 -23,-183 0,-128 4,-171 21,-232 12,-41 29,-105 38,-143 18,-75 96,-235 175,-357 76,-120 75,-169 -7,-260 -32,-36 -118,-213 -142,-295 -40,-133 -39,-144 7,-213 67,-98 116,-122 256,-129 110,-6 175,8 249,51 67,39 83,64 101,151 11,53 36,122 77,205 86,179 100,228 96,326 -3,65 -9,90 -31,126 -25,43 -133,144 -167,156 -18,6 -48,29 -112,84 -90,77 -149,219 -169,407 -4.763,124.869 -48.664,144.147 -102,236 -49,84 -74,105 -133,110 -27,2 -63,0 -80,-5 z"
         id="path126"
         style="fill:#000000;fill-opacity:0.847059"
         sodipodi:nodetypes="ccccccccccccccccccccc" />
      <path
         d="m 21006,9970 c -37,-12 -104,-76 -122,-117 -23,-54 -17,-98 27,-188 78,-160 83,-284 15,-382 -48,-70 -78,-84 -204,-93 -103,-8 -153,-21 -243,-65 -171.81,-96.7066 82.894,-256.2257 154,-277 84,-24 132,-21 239,16 121,41 140,42 211,11 34,-16 73,-36 86,-46 13,-11 39,-19 57,-19 29,0 45,11 103,68 50,49 72,79 79,107 26,97 28,88 -37,157 -148,156 -231,390 -214,606 8,104 -2,165 -33,202 -27,32 -59,37 -118,20 z"
         id="path130"
         style="fill:#000000;fill-opacity:0.847059"
         sodipodi:nodetypes="ccccccccccscccccc" />
    </g>
    <g
       id="g1222"
       style="fill:#000000;fill-opacity:0.847059">
      <desc
         id="desc1226">h1o44</desc>
      <title
         id="title1224">3.3.0</title>
      <path
         d="m 16523,9902 c -19,-12 -43,-78 -58,-157 -22,-112 -37,-554 -33,-975 l 3,-385 c 95.537,-360.2473 227.333,-563.4443 364,-778 29,-41 55,-52 106,-44 67,11 99,48 176,205 111.736,227.5017 212.943,626.5757 128,857 -234.504,347.629 -394.397,746.1373 -449,1070 -6,39 -24,95 -38,125 -24,49 -32,56 -77,72 -53,19 -102,23 -122,10 z m 463,-1289 c 29,-31 29,-58 0,-208 -8,-44 -15,-103 -15,-132 -1,-92 -35,-143 -96,-143 -39,0 -72,26 -79,62 -56,260 -47,369 33,424 52,35 123,34 157,-3 z"
         id="path132"
         style="fill:#000000;fill-opacity:0.847059"
         sodipodi:nodetypes="cccccccccccccccsccc" />
    </g>
    <g
       id="g1215"
       style="fill:#000000;fill-opacity:0.847059">
      <desc
         id="desc1219">h1o12</desc>
      <title
         id="title1217">1.0.0</title>
      <path
         d="m 22575,9305 c -45,-145 -76,-190 -243,-361 -120.241,-122.1933 -246.929,-283.3648 -296,-421 -43,-122 -49,-168 -42,-298 15.47,-170.7753 48.905,-692.9725 326,-715 41,0 177,87 260,166 126,121 230,292 300,494 28,82 34,112 38,220 3,94 0,148 -13,215 -14,70 -19,173 -25,455 -4,201 -11,374 -15,385 -13,34 -47,65 -69,64 -165.214,-14.7335 -191.411,-109.8928 -221,-204 z m 32,-567 c 32,-30 37,-74 18,-166 -11,-55 -14,-100 -9,-140 8,-76 -15,-162 -52,-191 -59,-46 -137,-12 -170,75 -16,42 -16,58 -6,173 10,102 17,136 40,181 47,95 121,123 179,68 z"
         id="path134"
         style="fill:#000000;fill-opacity:0.847059"
         sodipodi:nodetypes="ccccccccccccccccccccc" />
    </g>
    <g
       id="g1208"
       style="fill:#000000;fill-opacity:0.847059">
      <desc
         id="desc1212">h1o31</desc>
      <title
         id="title1210">0.2.0</title>
      <path
         d="m 30653,8549 c -39,-11 -91,-61 -99,-96 -10,-39 14,-102 54,-140 20,-19 71,-60 112,-91 94,-70 211,-187 271,-272 119,-167 194,-279 228,-341 33,-59 115,-142 229,-231 124,-97 215,-144 362,-188 262,-78 399,-124 459,-155 116,-58 161,-75 229,-87 59,-10 75,-9 132,8 l 65,20 -2,49 c -5,160 -58,378 -127,526 -47.389,130.7889 -114.556,253.872 -181,374 -68,125 -116,185 -167,211 -26,13 -58,24 -70,24 -13,0 -43,6 -68,14 -29,9 -135,16 -305,21 -402,11 -476,30 -629,161 -191,163 -363,230 -493,193 z m 914,-587 c 63,-33 217,-187 251,-250 44,-82 44,-141 2,-184 -28,-28 -35,-30 -83,-26 -67,5 -109,34 -243,165 -140,136 -172,206 -123,274 35,49 123,59 196,21 z"
         id="path136"
         style="fill:#000000;fill-opacity:0.847059"
         sodipodi:nodetypes="ccscccccccccccccsccccccccccc" />
    </g>
    <g
       id="g1201"
       style="fill:#000000;fill-opacity:0.847059">
      <desc
         id="desc1205">h1o13</desc>
      <title
         id="title1203">2.0.0</title>
      <path
         d="m 16135,7950 c -39,-26 -44,-53 -45,-265 -2.044,-419.0745 -81.385,-790.627 -238,-1185 -69.682,-143.0755 -163.13,-270.6696 -217,-425 -20.852,-65.6787 -28.556,-144.5835 -3,-195 44,-85 120,-113 233,-85 134,34 169,57 326,214 184.594,186.6275 435.169,468.0247 474,692 20,110 15,314 -9,407 -50.91,231.7151 -112.181,482.1715 -201,661 -68,136 -78,151 -119,175 -58,34 -155,37 -201,6 z"
         id="path138"
         style="fill:#000000;fill-opacity:0.847059"
         sodipodi:nodetypes="cccccccccccc" />
    </g>
    <g
       id="g1194"
       style="fill:#000000;fill-opacity:0.847059">
      <desc
         id="desc1198">h1o22</desc>
      <title
         id="title1196">1.1.0</title>
      <path
         d="m 23043,7702 c -25,-19 -76,-100 -137,-216 -67,-128 -224,-265 -343,-298 -47,-13 -103,-72 -103,-108 0,-16 -4,-50 -9,-77 -6,-26 -15,-79 -21,-118 -25.021,-175.6519 -72.106,-313.1901 -115,-470 -31,-114 -105,-294 -179,-435 -98,-188 -97,-187 -94,-237 2,-34 8,-49 19,-51 9,-2 58,28 108,67 121,90 367,371 509,581 63.266,85.4534 128.133,165.4068 175,255 53,104 107,222 107,233 0,6 18,67 40,136 77,243 109,474 89,647 -7,60 -15,109 -18,109 -3,0 -16,-8 -28,-18 z"
         id="path140"
         style="fill:#000000;fill-opacity:0.847059"
         sodipodi:nodetypes="cccscccccccccsccsc" />
    </g>
    <g
       id="g1187"
       style="fill:#000000;fill-opacity:0.847059">
      <desc
         id="desc1191">h2o12</desc>
      <title
         id="title1189">1.0.1</title>
      <path
         d="m 20254,7379 c -184.439,-41.3255 -422.35,-125.5279 -571,-235 -191.143,-169.2878 -282.485,-254.5354 -430,-472 -108,-163 -130,-212 -169,-377 -16,-69 -35,-104 -102,-179 l -35,-39 6,-131 c 4,-121 8,-139 45,-241 110,-303 292,-545 408,-545 46,0 136,-21 154,-36 105.659,-96.2628 231.281,-128.2341 348,-187 111,-58 125,-172 31,-251 -61,-52 -85,-56 -305,-56 -112,0 -227,-5 -256,-11 -277.486,-53.2106 -484.492,-259.4713 -720,-274 -135,-8 -182,-23 -269,-87 -93,-67 -159,-173 -174,-278 -15,-104 34,-256 95,-300 48,-34 134,-60 198,-60 52,0 73,7 172,57 97,49 123,57 188,63 65,5 77,9 98,33 13,16 24,39 24,53 0,46 50,167 91,220 64,83 147,141 261,183 129,48 208,48 261,1 26,-23 31,-36 35,-86 4,-57 1,-66 -69,-214 -93.169,-173.9753 -108.343,-413.1115 3,-553 52,-65 62,-98 55,-179 -4,-52 -49,-247 -69,-301 -17,-43 -46,-76 -91,-99 -38,-20 -58,-22 -192,-23 -144,0 -152,-1 -207,-28 -60,-30 -173,-132 -187,-170 -29.463,-98.6029 -24.606,-137.9942 31,-191 80,-77 118,-86 374,-86 180.574,-3.8273 371.012,17.6729 542,35 155,15 201,31 213,75 4,14 7,68 8,121 1,92 -1,101 -36,175 -34,71 -38,86 -36,152 2,98 17,138 72,195 68,72 123,96 336,148 68,16 123,22 225,23 108.056,6.7729 123.124,6.7858 213,-37 96,-47 137,-82 192,-167 68,-104 128,-149 222,-164 57,-10 141,24 187,75 97,107 286,599 286,742 -1,106 -45,180 -150,252 -37,26 -54,31 -119,33 -98.913,8.1659 -270.287,-79.3455 -295,-174 -3,-16 -10,-60 -15,-98 -13,-88 -48,-140 -122,-179 -48,-25 -58,-27 -128,-21 -42,3 -89,10 -106,16 -45,16 -132,86 -155,123 -36,59 -69,173 -76,263 -12,178 40,300 190,439 182,168 369,250 618,268 161,12 246,-20 343,-131 83,-94 120,-97 174,-15 41,65 92,108 136,117 23,4 57,-1 104,-15 84,-26 143,-26 196,-2 73,33 146,141 144,214 0,35 -25,101 -49,132 -29,39 -175,142 -263,187 -32,17 -89,35 -127,41 -61,9 -77,8 -152,-13 -166.619,-50.3929 -340.442,-110.7644 -481,-179 -317,-154 -344,-164 -439,-169 -77,-4 -90,-2 -117,18 -98,69 -72,184 64,282 77,56 245,220 300,293 180.426,253.2468 250.939,427.0957 243,695 6,274 -8,400 -63,565 -29,86 -115,258 -151,300 -18,22 -53,64 -76,93 -153.604,201.1546 -238.711,248.5175 -448,332 -108,43 -291,60 -436,39 z m 351,-343 c 142,-25 295,-118 295,-180 0,-45 -68,-104 -240,-208 -124,-76 -159,-64 -245,81 -31,53 -72,118 -91,145 -39,55 -45,103 -16,129 50,46 157,57 297,33 z m -564,-199 c 82.069,-88.172 182.948,-223.5493 240,-356 26,-86 -33,-139 -382,-347 -100,-59 -167,-53 -202,18 -69.916,246.5146 38.737,504.0188 184,660 34,35 41,38 90,38 30,0 61,-6 70,-13 z m 1073,-289 c 107,-96 95,-421 -21,-605 -29,-47 -37,-53 -66,-53 -101.163,34.4567 -125.232,137.9999 -185,217 -84,113 -102,146 -102,187 0,31 9,46 50,91 28,29 92,83 143,119 103,73 138,82 181,44 z m -596,-424 c 86.198,-99.5927 149.266,-201.9641 227,-317 69,-98 73,-138 21,-190 -55,-55 -129,-71 -331,-71 -197,-1 -267,13 -355,71 -122,80 -166,167 -104,210 133.296,100.1242 282.561,246.2145 439,310 34,13 70,8 103,-13 z m -1143,-135 c 57,-51 121,-164 145,-259 27,-103 22,-155 -15,-187 -32,-28 -55,-29 -88,-3 -27,21 -36,45 -57,145 -7,33 -29,94 -48,135 -19,41 -37,96 -40,121 -4,40 -1,48 19,63 33,22 43,20 84,-15 z"
         id="path142"
         style="fill:#000000;fill-opacity:0.847059"
         sodipodi:nodetypes="ccccccccscccscccccscccsccccccccccccccccccccccccccccccccccccccccccccccccccccccccccccsccccccccccscccccscccccsccccccccccsccc" />
    </g>
    <g
       id="g1180"
       style="fill:#000000;fill-opacity:0.847059">
      <desc
         id="desc1184">h2o42</desc>
      <title
         id="title1182">1.3.1</title>
      <path
         d="M 29505.443,7309.5574 C 29431.443,7298.5574 29198,7216 29091,7153 c -52,-31 -183,-164 -211,-213 -10,-19 -28,-54 -39,-78 -55,-116 -123,-174 -219,-188 -59,-8 -93,-38 -137,-124 -38,-76 -48,-108 -76,-245 -34,-166 -44,-408 -23,-514 3,-13 36,-53 74,-90 54,-52 71,-76 80,-111 24,-96 49,-135 218,-334 96,-114 122,-159 122,-218 0,-96 -84,-122 -215,-66 -70,30 -299,172 -365,226 -101,83 -221,206 -264,272 -74.124,117.9357 -120.433,259.5115 -150,385 -44,185 -52,201 -141,286 -93,89 -146,124 -234,156 -83,30 -160,30 -239,0 -131.772,-70.3692 -244.341,-179.0674 -304,-315 -31,-70 -35,-126 -14,-175 15,-37 67,-85 99,-92 69.157,-12.2964 130.12,-29.8179 202,-40 38,-7 93,-53 135,-114 20,-29 82,-50 150,-51 31,0 73,-9 96,-19 57,-26 140,-111 206,-211 83,-126 155,-197 302,-293 44,-30 160,-106 256,-170 204,-135 280,-205 324,-297 53.573,-122.6825 28.775,-306.3457 -37,-425 -36,-64 -186,-177 -298,-224 -52,-23 -99,-41 -102,-41 -17,0 -96,-58 -150,-110 -59,-57 -137,-165 -200,-280 -74,-135 -172,-187 -273,-145 -19,8 -61,34 -92,59 -94,73 -146,96 -219,96 -112,0 -164,-34 -213,-141 -23,-50 -33,-89 -37,-141 -5,-70 -4,-75 26,-116 20,-27 49,-50 79,-64 193,-85 280,-134 337,-189 67,-64 168,-132 222,-150 46,-15 135,-6 176,18 45,27 74,74 103,171 15,48 49,122 78,172 29,48 56,95 59,104 15,38 95,145 146,194 79,77 129,103 205,109 94,8 165,-17 231,-81 44,-43 56,-64 79,-134 16,-46 30,-111 33,-145 2,-34 11,-86 20,-116 21,-72 13,-206 -23,-390 -25,-130 -27,-145 -13,-170 12,-21 25,-28 70,-35 46,-7 80,-4 190,19 176,36 289,41 478,21 181,-19 252,-11 313,36 34,27 78,92 93,139 -4.07,40.087 -30.12,69.1505 -93,106 -46,27 -37,27 -343,7 -109,-7 -154,6 -221,64 -77,68 -106,216 -73,367 24,106 43,152 160,385 203.368,360.7129 215.207,764.2389 173,1149 -15,44 -16,58 -5,79 24,50 55,62 178,72 142,11 308,55 439,118 360.02,182.5121 633.842,476.2084 736,857 23,89 25,113 20,215 -5,111 -11,137 -74,365 -64,227 -183,446 -336,614 -88,97 -160,161 -225,198 -25,14 -55,35 -67,45 -47,41 -196,95 -314,112 -119,17 -360.557,9.5574 -454.557,-4.4426 z M 30020,6715 c 207,-52 300,-105 300,-172 0,-43 -187,-388 -235,-433 -39,-36 -97,-33 -168,10 -64,39 -74,44 -237,123 -115,56 -265,147 -307,186 -50,45 -14,117 82,165 167.847,109.5781 348.273,171.5719 565,121 z m -1084,-229 c 33,-33 34,-37 34,-108 0,-41 -7,-100 -15,-131 -19.637,-111.4794 -110.871,-368.4754 -236,-377 -30,0 -69,42 -75,81 -5,27 1,50 26,98 39,78 66,167 74,246 10,90 35,177 59,203 33,35 90,31 133,-12 z m 1629,-216 c 57,-63 94,-309 61,-408 -29,-86 -84,-91 -203,-19 -87,53 -108,80 -107,133 1,33 9,57 31,87 16,24 41,68 55,98 51,113 119,158 163,109 z m -1183,-139 c 40,-22 162,-85 270,-141 115,-59 205,-111 217,-127 41,-52 31,-83 -95,-294 -64,-107 -128,-206 -142,-222 -35,-37 -90,-51 -144,-36 -177.799,77.4307 -324.23,315.5787 -348,481 -8.201,116.6438 -26.517,299.6391 28,349 27,24 41,29 86,29 44,0 68,-7 128,-39 z m 916,-493 c 108,-54 152,-94 152,-137 0,-77 -74,-142 -256,-226 -101,-46 -128,-55 -177,-55 -49,0 -62,4 -84,26 -21,21 -25,32 -20,65 6,47 165,318 204,349 40,31 86,25 181,-22 z"
         id="path144"
         style="fill:#000000;fill-opacity:0.847059"
         sodipodi:nodetypes="cccccccccccsccccccccccccccccccccsccccscccccccccccccccccccccccccccccccccccccccccsccccccssccccccscccccccccccccccsccscssccc" />
    </g>
    <g
       id="g1173"
       style="fill:#000000;fill-opacity:0.847059">
      <title
         id="title1177">2.0.1</title>
      <desc
         id="desc1175">h2o13</desc>
      <path
         d="m 13695,7150 c -153,-12 -251,-28 -339,-56 -582.443,-197.1081 -755.667,-736.8599 -769,-1179 -1,-158 35,-315 118,-510 31,-72 135,-213 200,-270 74,-65 93,-105 75,-161 -8,-25 -22,-40 -46,-52 -52,-24 -105,-5 -252,91 -80,53 -151,91 -192,104 -157.834,58.4845 -343.851,87.3495 -494,232 -22,42 -20,102 9,206 34,121 34,233 3,291 -35,63 -108,139 -158,165 -32,16 -68,24 -125,27 -102,5 -157,-17 -227,-91 -99,-103 -114,-203 -53,-333 30,-63 35,-84 35,-147 0,-70 -3,-80 -56,-183 -30,-60 -63,-118 -73,-129 -48,-52 -47,-117 1,-162 56,-52 126,-55 235,-11 59,23 102,33 178,39 135,11 148,9 434,-89 112,-38 149,-56 225,-110 199,-142 232,-184 243,-310 5,-56 2,-80 -16,-127 -60.793,-140.0918 -233.046,-350.7158 -363,-401 -53,-19 -112,-12 -228,26 -123,40 -238,58 -377,58 -111,0 -125,2 -154,22 -60,43 -73,117 -42,247 18.879,95.1623 11.072,194.6085 -48,258 -55,60 -145,99 -229,100 -115.669,-2.8083 -236.063,-85.164 -266,-187 -20,-75 -18,-85 22,-200 34,-97 37,-112 41,-257 15.76,-104.2254 -23.588,-229.66 -4,-321 10,-46 18,-59 54,-83 72,-51 162,-45 276,18 58.272,32.0187 127.06,45.9993 187,61 92,23 464,13 549,-15 114,-39 267,-121 348,-187 140.8,-133.9684 251.876,-269.2917 327,-437 70.479,-137.3819 54.921,-289.6159 77,-419 10,-59 19,-79 44,-105 39,-39 103,-51 189,-34 314.191,69.9702 484.2,45.9586 776,-29 93,0 123,14 197,93 142.86,146.3991 5.604,273.7617 -132,333 -179.296,73.1538 -295.951,0.2536 -478,-20 -87.615,-6.558 -155.824,21.0704 -212,89 -34,41 -50,74 -114,240 -32,82 -56,202 -48,237 13,51 65,105 147,152 148,86 281,204 331,294 108,199 210,307 317,338 76,22 224,21 294,-1 133,-44 205,-99 284,-217 75,-112 123,-143 207,-132 47,7 59,14 127,79 66,63 84,74 132,85 52,12 61,11 132,-14 89,-30 98,-31 157,-11 29,10 52,27 68,50 76,112 64,202 -38,278 -130,97 -203,121 -371,120 -113,-1 -134,-4 -220,-33 -88,-30 -102,-32 -185,-27 -89,6 -232,27 -453,66 -151,27 -202,59 -202,126 0,34 50,83 93,89 18,3 79,13 137,22 163,25 271,68 370,146 57,45 120,67 211,74 99,8 125,19 197,88 86,80 138,156 201,288 63,132 82,199 106,375 19,135 12,175 -44,236 -59,65 -74,102 -93,237 -9,69 -22,145 -29,170 -137.011,392.7811 -367.398,678.8621 -788,760 -31,5 -91,16 -134,24 -113,21 -189,25 -302,16 z m 329,-314 c 107,-38 175,-85 282,-193 104,-103 114,-120 187,-288 27,-63 42,-165 31,-210 -8,-31 -50,-55 -96,-55 -224.386,40.8386 -350.505,39.1767 -672,168 -17,15 -18,28 -13,134 8.764,115.907 58.455,389.5037 137,446 42,28 63,28 144,-2 z m -430,-19 c 23,-28 17,-99 -20,-219 -14,-46 -29,-106 -34,-134 -11,-72 -37,-122 -73,-141 -37,-19 -82,-14 -261,26 -103,23 -133,34 -148,53 -26,33 -17,80 29,147 64.975,99.7472 386.444,398.7062 507,268 z m -463,-677 c 30,-6 92,-18 137,-26 143,-25 167,-47 159,-147 -12,-141 -96,-463 -128,-489 -29,-25 -79,-22 -117,5 -157,117 -301,520 -221,621 36,46 75,54 170,36 z m 759,-154 c 36,-8 128,-29 205,-46 280,-62 311,-74 340,-130 14,-26 14,-37 2,-83 -8,-29 -25,-71 -39,-93 -31,-49 -161,-183 -203,-209 -66,-42 -177,-95 -213,-101 -20,-3 -62,-13 -92,-20 -31,-8 -105,-14 -171,-14 -111,0 -119,1 -148,26 -0.696,219.3746 51.905,407.4066 114,681 23,17 100,13 205,-11 z m 960,-231 c 36,-19 50,-43 50,-87 0,-39 -14,-61 -85,-139 -55,-60 -89,-122 -100,-182 -9,-47 -63,-97 -106,-97 -40,0 -85,45 -94,93 -21,113 99,347 206,401 61,30 88,32 129,11 z"
         id="path146"
         style="fill:#000000;fill-opacity:0.847059"
         sodipodi:nodetypes="ccccccccccccccccscccccccccccsccccccccccccccccccccccccccccccccccccccccscccccscccccccccccccccccccccccccccccccccccccccsccccsccsccc" />
    </g>
    <g
       id="g1160"
       style="fill:#000000;fill-opacity:0.847059">
      <desc
         id="desc1164">h2o44</desc>
      <title
         id="title1162">3.3.1</title>
      <path
         d="m 8578,7034 c -42,-22 -74,-96 -81,-184 -22.6003,-241.2677 -129.4356,-428.4999 -230,-628 -20,-40 -55,-103 -77,-140 -75,-126 -96,-260 -65,-417 30,-151 131,-379 214,-482 53.7632,-69.6621 109.991,-73.4571 191,-93 323.2812,-1.1 720.7174,176.2034 724,505 0,60 -7,100 -27,160 -35,101 -53,134 -155,293 -43,67 -182,341 -182,359 -49.8582,144.112 -74.4235,307.2928 -85,443 -8,105 -13,120 -58,168 -48.7287,40.6778 -108.6661,46.371 -169,16 z"
         id="path148"
         style="fill:#000000;fill-opacity:0.847059"
         sodipodi:nodetypes="cccccccccccccc" />
    </g>
    <g
       id="g1153"
       style="fill:#000000;fill-opacity:0.847059">
      <desc
         id="desc1157">h1o21</desc>
      <title
         id="title1155">0.1.0</title>
      <path
         d="m 31690,6838 c -86,-45 -62,-156 92,-438 84.765,-180.8827 125.717,-502.8901 91,-695 -6,-27 -19,-86 -28,-130 -16,-77 -49,-179 -95,-295 -35,-90 -43,-122 -43,-190 0,-70 21,-136 48,-147 19,-7 28,0 172,130 110,100 138,131 240,270 208.391,298.1086 468.876,652.5093 493,1037 0,76 -131,259 -237,330 -78,53 -113,61 -293,66 -145,5 -177,9 -260,35 -128,38 -151,42 -180,27 z"
         id="path150"
         style="fill:#000000;fill-opacity:0.847059"
         sodipodi:nodetypes="cccccscccccccc" />
    </g>
    <g
       id="g1146"
       style="fill:#000000;fill-opacity:0.847059">
      <desc
         id="desc1150">h1o32</desc>
      <title
         id="title1148">1.2.0</title>
      <path
         d="m 26605,5224 c -27,-7 -81,-22 -120,-33 -38,-11 -95,-27 -125,-36 -93.127,-47.1699 -204.352,-75.5565 -289,-138 -369.42,-247.9328 -701.236,-487.6184 -836,-877 -49.479,-157.643 -106.848,-382.9985 -42,-511 134.318,-203.9327 397.705,-302.3781 612,-297 153,5 190,21 300,132 136.194,140.7408 222.386,369.8029 225,576 24.348,157.3521 120.594,266.9335 238,344 57,39 111,80 119,92 8,13 15,49 16,82 2,48 -3,65 -24,98 -64,98 -64,252 1,438 11,33 20,79 20,103 0,49 -6,51 -95,27 z"
         id="path152"
         style="fill:#000000;fill-opacity:0.847059"
         sodipodi:nodetypes="ccccccccccccccsc" />
    </g>
    <g
       id="g1139"
       style="fill:#000000;fill-opacity:0.847059">
      <desc
         id="desc1143">h1o24</desc>
      <title
         id="title1141">3.1.0</title>
      <path
         d="m 6085,5022 c -81.7012,-83.2944 -132.6068,-234.8279 -169,-338 -68.6826,-168.9183 -130.2637,-374.1312 -197,-519 -82.0248,-215.02 -129.9812,-339.7172 -174,-492 3,-9 29,-13 82,-13 90,0 90,1 117,95 29,104 57,164 89,191 58.6931,52.7524 206.3734,22.9491 288,22 243,-3 259,-4 286,-24 45,-33 69,-77 92,-166 12,-46 25,-90 30,-98 6,-12 29,-15 102,-15 h 94 l -2,41 c -1,22 -18,89 -38,150 -21,60 -43,129 -50,154 -7,25 -25,74 -40,110 -16,36 -43,112 -61,170 -18,58 -47,143 -64,190 -17,47 -55,157 -85,245 -81,243 -93,266 -158,293 -31,13 -80.7486,25.5724 -142,4 z m 137,-319 c 60.4629,-66.6859 56.267,-130.7692 77,-204 80,-265 83,-277 67,-308 -22,-42 -61,-51 -223,-51 h -145 c -43.0348,7.968 -64.4841,10.4376 -58,92 33.9535,159.2764 83.3685,336.0554 161,474 32,34 87,33 121,-3 z"
         id="path154"
         style="fill:#000000;fill-opacity:0.847059"
         sodipodi:nodetypes="ccccsccccccscccscssccccccscccc" />
      <path
         d="m 3505,4747 c -76,-19 -76,-13 -73,-592 l 3,-490 h 170 l 6,102 c 10,162 19,168 248,176 176.3722,-10.2875 355.2025,104.3664 422,235 94.6121,186.5017 18.1275,383.2655 -142,504 -83,61 -121,69 -364,73 -153,3 -235,1 -270,-8 z m 477,-187 c 31,-8 63,-27 92,-54 107.9024,-109.3883 65.9779,-268.7807 -64,-346 -41,-23 -55,-25 -175,-25 -151,0 -168,6 -196,72 -21,50 -27,210 -9,274 12,41 46,77 84,87 42,11 216,6 268,-8 z"
         id="path156"
         style="fill:#000000;fill-opacity:0.847059"
         sodipodi:nodetypes="cccccccccccccscccc" />
      <path
         d="m 1983,4737 c -140.4041,-116.0802 -302.5049,-383.6306 -398,-534 -119,-188 -119,-188 -149,-191 -16,-2 -36,4 -47,14 -18,16 -19,35 -19,323 0,281 -2,310 -20,349 -19,42 -19,42 -73,42 -98,0 -92,37 -95,-553 -2,-409 0,-512 10,-518 7,-5 74,-9 149,-9 152,0 146,-3 192,81 87.1783,123.7513 202.0822,401.9448 309,483 38,27 64,20 110,-27 1,-1 5,-121 8,-267 l 5,-265 c 56.6667,0 113.3333,0 170,0 v 522 c 0,588 5,552 -76,559 -24,2 -58,-2 -76,-9 z"
         id="path158"
         style="fill:#000000;fill-opacity:0.847059"
         sodipodi:nodetypes="ccccscsccsccccccscc" />
      <path
         d="m 2455,4741 c -25,-5 -34,-16 -52,-61 -22,-55 -22,-59 -20,-535 l 2,-480 c 56.6667,0 113.3333,0 170,0 l 5,415 c 4,371 7,418 23,447 30,56 39,58 332,63 300,6 310,8 321,69 16,83 -18,89 -426,89 -179,0 -338,-3 -355,-7 z"
         id="path160"
         style="fill:#000000;fill-opacity:0.847059"
         sodipodi:nodetypes="cscccccccsc" />
      <path
         d="m 4713,4713 c -132.0291,-264.8611 -193.3522,-495.0223 -282,-773 -22,-69 -50,-152 -61,-184 -33,-96 -33,-96 59,-96 91,0 96,3 112,81 27,125 54,143 226,144 107,0 125,-2 150,-21 31,-23 65,-85 85,-154 l 13,-45 c 50.2681,0.4954 103.3822,-10.4912 153,0 22,5 24,10 18,48 -3,23 -15,67 -25,97 -84.2674,284.1834 -155.6256,478.5483 -242,750 -31,105 -63,166 -91,174 -48,12 -84,6 -115,-21 z m 105,-368 c 14,-11 30,-44 47,-98 32,-106 32,-141 0,-172 -20,-21 -34,-25 -85,-25 -51,0 -65,4 -85,25 -32,31 -32,65 1,171 32,107 68,136 122,99 z"
         id="path162"
         style="fill:#000000;fill-opacity:0.847059"
         sodipodi:nodetypes="ccssccccccccccccccsccc" />
    </g>
    <g
       id="g1107"
       style="fill:#000000;fill-opacity:0.847059">
      <desc
         id="desc1131">h2o32</desc>
      <title
         id="title1129">1.2.1</title>
      <path
         d="m 27234,4695 c -39,-7 -90,-23 -112,-34 -114.429,-34.4971 -145.783,-117.7101 -123,-209 16,-54 71,-132 114,-160 131,-88 192,-112 285,-112 43,0 73,9 141,41 122,58 190,72 293,60 91,-10 137,-28 243,-90 113,-67 199,-52 226,38 9,31 8,43 -5,68 -17,33 -25,41 -160,140 -50,36 -118,94 -152,129 -34,35 -79,71 -100,80 -131,55 -474,81 -650,49 z"
         id="path164"
         style="fill:#000000;fill-opacity:0.847059"
         sodipodi:nodetypes="ccccsccccccscc" />
    </g>
    <g
       id="g1104"
       style="fill:#000000;fill-opacity:0.847059">
      <desc
         id="desc1127">h2o21</desc>
      <title
         id="title1125">0.1.1</title>
      <path
         d="m 30749,4436 c -175.427,-16.0501 -289.667,-4.7176 -348,-60 -54,-52 -46,-142 15,-183 26,-17 67,-19 504,-25 460,-7 751,-19 875,-38 33,-4 98,-14 145,-20 224,-32 368,-90 462,-187 51,-53 69,-102 78,-215 9,-106 17,-124 81,-175 50,-39 97,-50 151,-34 43,13 50,26 122,202 23,57 34,71 76,97 91,57 175,51 286,-20 139.918,-80.1618 456.105,-242.8572 608,-177 61,28 133,101 157,157 28,65 16,99 -66,189 -47,52 -81,79 -127,100 -112,53 -157,63 -279,63 -284.983,12.0952 -576.122,75.4106 -844,171 -95,35 -213,70 -310,93 -110,25 -136,29 -295,48 -88,10 -1282,23 -1291,14 z"
         id="path166"
         style="fill:#000000;fill-opacity:0.847059"
         sodipodi:nodetypes="cccccccccccccccccccccc" />
    </g>
    <g
       id="g1101"
       style="fill:#000000;fill-opacity:0.847059">
      <desc
         id="desc1123">h2o22</desc>
      <title
         id="title1121">1.1.1</title>
      <path
         d="m 22205,4147 c -33,-18 -43,-31 -59,-77 -34.925,-79.5272 9.97,-139.4177 37,-221 54,-160 56,-170 63,-307 5,-94 3,-167 -5,-219 -26.209,-142.495 -56.229,-228.3014 -82,-363 -25,-133 -22,-263 10,-390 72.551,-163.8717 101.369,-192.677 236,-216 83,-12.608 92,-12.1151 174,0 142,29 262,100 326,194 20,29 50,94 66,145 22.906,77.9059 22.69,93.6901 25,172 -7.709,119.5516 -53.502,221.9836 -72,340 -73.672,349.2676 -245.943,623.7818 -397,757 -15,21 -72,76 -126,123 -110,94 -126,100 -196,62 z"
         id="path168"
         style="fill:#000000;fill-opacity:0.847059"
         sodipodi:nodetypes="cccccccccccccccc" />
    </g>
    <g
       id="g1098"
       style="fill:#000000;fill-opacity:0.847059">
      <desc
         id="desc1119">h2o11</desc>
      <title
         id="title1117">0.0.1</title>
      <path
         d="m 29931,3926 c -30,-32 -24,-70 30,-187 60,-131 54,-183 -29,-272 -54,-58 -92,-116 -92,-140 0,-10 12,-18 33,-22 30,-6 71,4 162,39 68,26 121,20 220,-24 77,-34 100,-40 160,-40 85.191,-8.7207 298.843,79.029 253,158 -173.698,157.5014 -386.538,326.4543 -576,465 -78,56 -124,63 -161,23 z"
         id="path170"
         style="fill:#000000;fill-opacity:0.847059"
         sodipodi:nodetypes="cccsccccccc" />
    </g>
    <g
       id="g1095"
       style="fill:#000000;fill-opacity:0.847059">
      <desc
         id="desc1115">h2o23</desc>
      <title
         id="title1113">2.1.1</title>
      <path
         d="m 14572,3613 c -34,-33 -42,-49 -57,-117 -21,-92 -17,-150 20,-299 24,-103 72,-242 102,-300 45,-90 177,-271 257,-354 136,-143 304,-264 462,-333 123.768,-32.0012 150.923,-29.3092 268,-12 116,36 262,145 308,230 60,111 103,327 80,402 -35,114 -60,164 -98,192 -72,55 -115,79 -192,107 -135,49 -190,62 -310,72 -180,14 -228,25 -323,73 -148,75 -231,148 -317,274 -76,113 -131,130 -200,65 z"
         id="path172"
         style="fill:#000000;fill-opacity:0.847059"
         sodipodi:nodetypes="ccccccccccccccc" />
    </g>
    <g
       id="g1092"
       style="fill:#000000;fill-opacity:0.847059">
      <desc
         id="desc1111">h2o24</desc>
      <title
         id="title1109">3.1.1</title>
      <path
         d="m 5675,2869 c -22,-5 -46,-17 -52,-26 -10,-13 -13,-165 -13,-680 0,-645 1,-663 19,-673 13,-6 160,-10 411,-10 162.2113,11.7237 312.9178,-33.415 463,30 121,51 140,63 197,120 108,107 142,233 104,383 -22,86 -62,155 -122,211 -101,94 -157,105 -520,106 -364,0 -362,-1 -362,187 2.1995,95.1116 -3.4326,107.9953 48,168 l 412,5 412,5 19,24 c 27,33 26,111 -2,137 -20,18 -44,19 -498,21 -268,1 -493,-3 -516,-8 z m 773,-765 c 110.4049,-57.7562 165.0746,-175.1683 121,-274 -31,-68 -64,-97 -139,-121 -62,-19 -85,-21 -302,-17 -203,3 -237,5 -261,21 -44,29 -57,75 -57,208 0,109 2,120 24,145 33,40 119,52 369,53 167,1 215,-2 245,-15 z"
         id="path174"
         style="fill:#000000;fill-opacity:0.847059"
         sodipodi:nodetypes="ccsccccccccccccccccccccsccc" />
      <path
         d="m 3495,2567 c -76,-19 -76,-13 -73,-592 l 3,-490 h 170 l 6,102 c 10,162 19,168 248,176 176.3722,-10.2875 355.2026,104.3664 422,235 94.6121,186.5017 18.1275,383.2655 -142,504 -83,61 -121,69 -364,73 -153,3 -235,1 -270,-8 z m 477,-187 c 31,-8 63,-27 92,-54 107.9024,-109.3883 65.9779,-268.7807 -64,-346 -41,-23 -55,-25 -175,-25 -151,0 -168,6 -196,72 -21,50 -27,210 -9,274 12,41 46,77 84,87 42,11 216,6 268,-8 z"
         id="path176"
         style="fill:#000000;fill-opacity:0.847059"
         sodipodi:nodetypes="cccccccccccccscccc" />
      <path
         d="m 1973,2557 c -140.4041,-116.0802 -302.5049,-383.6306 -398,-534 -119,-188 -119,-188 -149,-191 -16,-2 -36,4 -47,14 -18,16 -19,35 -19,323 0,281 -2,310 -20,349 -19,42 -19,42 -73,42 -98,0 -92,37 -95,-553 -2,-409 0,-512 10,-518 7,-5 74,-9 149,-9 152,0 146,-3 192,81 87.1783,123.7513 202.0822,401.9448 309,483 38,27 64,20 110,-27 1,-1 5,-121 8,-267 l 5,-265 c 56.6667,0 113.3333,0 170,0 v 522 c 0,588 5,552 -76,559 -24,2 -58,-2 -76,-9 z"
         id="path178"
         style="fill:#000000;fill-opacity:0.847059"
         sodipodi:nodetypes="ccccscsccsccccccscc" />
      <path
         d="m 2445,2561 c -25,-5 -34,-16 -52,-61 -22,-55 -22,-59 -20,-535 l 2,-480 c 56.6667,0 113.3333,0 170,0 l 5,415 c 4,371 7,418 23,447 30,56 39,58 332,63 300,6 310,8 321,69 16,83 -18,89 -426,89 -179,0 -338,-3 -355,-7 z"
         id="path180"
         style="fill:#000000;fill-opacity:0.847059"
         sodipodi:nodetypes="cscccccccsc" />
      <path
         d="m 4703,2533 c -132.0291,-264.8611 -193.3522,-495.0223 -282,-773 -22,-69 -50,-152 -61,-184 -33,-96 -33,-96 59,-96 91,0 96,3 112,81 27,125 54,143 226,144 107,0 125,-2 150,-21 31,-23 65,-85 85,-154 l 13,-45 c 50.2681,0.4954 103.3822,-10.4912 153,0 22,5 24,10 18,48 -3,23 -15,67 -25,97 -84.2674,284.1834 -155.6256,478.5483 -242,750 -31,105 -63,166 -91,174 -48,12 -84,6 -115,-21 z m 105,-368 c 14,-11 30,-44 47,-98 32,-106 32,-141 0,-172 -20,-21 -34,-25 -85,-25 -51,0 -65,4 -85,25 -32,31 -32,65 1,171 32,107 68,136 122,99 z"
         id="path182"
         style="fill:#000000;fill-opacity:0.847059"
         sodipodi:nodetypes="ccssccccccccccccccsccc" />
    </g>
  </g>
</svg>
